<svg width="24" height="24" viewBox="0 0 24 24" fill="none" xmlns="http://www.w3.org/2000/svg">
<g id="Frame">
<g id="Group">
<path id="Vector" d="M21 12.0001C21.003 13.7869 20.4715 15.5337 19.474 17.0161C18.6514 18.2431 17.5391 19.2484 16.2355 19.9433C14.9319 20.6382 13.4772 21.0011 12 21.0001C10.5228 21.0011 9.06808 20.6382 7.76451 19.9433C6.46093 19.2484 5.34865 18.2431 4.526 17.0161C3.74273 15.8485 3.2439 14.5137 3.06951 13.1186C2.89511 11.7234 3.05 10.3069 3.52175 8.98239C3.9935 7.65793 4.769 6.4624 5.78607 5.49167C6.80314 4.52093 8.0335 3.80198 9.37851 3.39245C10.7235 2.98292 12.1458 2.89421 13.5312 3.13342C14.9167 3.37263 16.2269 3.93311 17.3567 4.76993C18.4865 5.60675 19.4046 6.69664 20.0373 7.95221C20.67 9.20779 20.9997 10.5941 21 12.0001Z" stroke="black" stroke-width="1.5"/>
<path id="Vector_2" d="M13.25 9C13.25 9.69 12.69 10.25 12 10.25V11.75C12.7293 11.75 13.4288 11.4603 13.9445 10.9445C14.4603 10.4288 14.75 9.72935 14.75 9H13.25ZM12 10.25C11.31 10.25 10.75 9.69 10.75 9H9.24999C9.24999 9.72935 9.53972 10.4288 10.0554 10.9445C10.5712 11.4603 11.2706 11.75 12 11.75V10.25ZM10.75 9C10.75 8.31 11.31 7.75 12 7.75V6.25C11.2706 6.25 10.5712 6.53973 10.0554 7.05546C9.53972 7.57118 9.24999 8.27065 9.24999 9H10.75ZM12 7.75C12.69 7.75 13.25 8.31 13.25 9H14.75C14.75 8.27065 14.4603 7.57118 13.9445 7.05546C13.4288 6.53973 12.7293 6.25 12 6.25V7.75ZM5.16599 17.856L4.44699 17.642L4.32999 18.034L4.59699 18.344L5.16599 17.856ZM18.834 17.856L19.404 18.345L19.67 18.035L19.553 17.642L18.834 17.856ZM8.99999 15.75H15V14.25H8.99999V15.75ZM8.99999 14.25C7.97708 14.25 6.9815 14.5802 6.16122 15.1913C5.34093 15.8024 4.73974 16.6619 4.44699 17.642L5.88499 18.07C6.08552 17.3996 6.49692 16.8118 7.05809 16.3939C7.61926 15.9759 8.30027 15.7501 8.99999 15.75V14.25ZM12 20.25C10.8094 20.2514 9.6327 19.9944 8.55107 19.4968C7.46944 18.9993 6.50865 18.273 5.73499 17.368L4.59699 18.344C5.51145 19.413 6.64683 20.272 7.92488 20.8598C9.20292 21.4476 10.5932 21.7513 12 21.75V20.25ZM15 15.75C16.47 15.75 17.715 16.728 18.115 18.07L19.553 17.642C19.2602 16.6619 18.659 15.8024 17.8388 15.1913C17.0185 14.5802 16.0229 14.25 15 14.25V15.75ZM18.265 17.368C17.4913 18.273 16.5305 18.9993 15.4489 19.4968C14.3673 19.9944 13.1906 20.2514 12 20.25V21.75C13.4067 21.7513 14.7971 21.4476 16.0751 20.8598C17.3531 20.272 18.4895 19.414 19.404 18.345L18.265 17.368Z" fill="black"/>
</g>
</g>
</svg>
