<svg width="21" height="20" viewBox="0 0 21 20" fill="none" xmlns="http://www.w3.org/2000/svg">
<g id="start icon">
<path id="Vector" d="M18.5 9.33328C18.5011 10.6163 18.1932 11.8807 17.6023 13.0195C17.0114 14.1583 16.1549 15.1381 15.1053 15.8759L16.5 18.6666H4.5L5.89467 15.8759C4.77134 15.0851 3.87059 14.0183 3.2792 12.7783C2.68781 11.5383 2.4257 10.1669 2.51813 8.79626C2.61055 7.42557 3.0544 6.10179 3.8069 4.95242C4.55941 3.80305 5.59522 2.86683 6.81455 2.23395C8.03388 1.60107 9.39565 1.29285 10.7687 1.33899C12.1417 1.38512 13.4797 1.78406 14.6538 2.49737C15.8279 3.21067 16.7985 4.21431 17.4722 5.4116C18.1458 6.60889 18.4998 7.95949 18.5 9.33328ZM16.8973 9.49995H12.4933C12.4573 9.92662 12.288 10.3159 12.0267 10.6253L15.1413 13.74C16.2325 12.5935 16.8584 11.0822 16.8973 9.49995ZM14.9067 13.9746L11.792 10.86C11.6071 11.0169 11.3952 11.1389 11.1667 11.2199V15.6999C12.5698 15.5542 13.8851 14.9475 14.9067 13.9746ZM8.50667 9.49995H4.10267C4.14157 11.0822 4.76747 12.5935 5.85867 13.74L8.97334 10.6253C8.70408 10.3081 8.54089 9.91459 8.50667 9.49995ZM6.09334 13.9746C7.1151 14.947 8.43035 15.5533 9.83334 15.6986V11.2186C9.60486 11.138 9.39297 11.0164 9.208 10.86L6.09334 13.9746ZM16.8973 9.16662C16.8584 7.58435 16.2325 6.07308 15.1413 4.92662L12.0267 8.04128C12.288 8.35062 12.4573 8.73995 12.4933 9.16662H16.8973ZM14.9067 4.69195C13.7602 3.60075 12.2489 2.97485 10.6667 2.93595V7.33995C11.0933 7.37595 11.4827 7.54528 11.792 7.80662L14.9067 4.69195ZM10.3333 7.33995V2.93595C8.75107 2.97485 7.2398 3.60075 6.09334 4.69195L9.208 7.80662C9.51734 7.54528 9.90667 7.37595 10.3333 7.33995ZM8.97334 8.04128L5.85867 4.92662C4.76747 6.07308 4.14157 7.58435 4.10267 9.16662H8.50667C8.54267 8.73995 8.712 8.35062 8.97334 8.04128Z" fill="#FF8D5C"/>
</g>
</svg>
