<svg width="24" height="24" viewBox="0 0 24 24" fill="none" xmlns="http://www.w3.org/2000/svg">
<g id="Frame">
<path id="Vector" fill-rule="evenodd" clip-rule="evenodd" d="M9.59199 3.20025C9.43472 3.34256 9.26945 3.47578 9.09699 3.59925C8.79899 3.79925 8.46399 3.93725 8.11199 4.00725C7.95899 4.03725 7.79899 4.05025 7.47999 4.07525C6.67899 4.13925 6.27799 4.17125 5.94399 4.28925C5.56209 4.42409 5.21523 4.64272 4.92884 4.9291C4.64246 5.21548 4.42383 5.56235 4.28899 5.94425C4.17099 6.27825 4.13899 6.67925 4.07499 7.48025C4.06409 7.69202 4.04138 7.90301 4.00699 8.11225C3.93699 8.46425 3.79899 8.79925 3.59899 9.09725C3.51199 9.22725 3.40799 9.34925 3.19999 9.59225C2.67899 10.2043 2.41799 10.5103 2.26499 10.8303C1.91199 11.5703 1.91199 12.4303 2.26499 13.1703C2.41799 13.4903 2.67899 13.7963 3.19999 14.4083C3.40799 14.6513 3.51199 14.7733 3.59899 14.9033C3.79899 15.2013 3.93699 15.5363 4.00699 15.8883C4.03699 16.0413 4.04999 16.2013 4.07499 16.5203C4.13899 17.3213 4.17099 17.7223 4.28899 18.0563C4.42383 18.4382 4.64246 18.785 4.92884 19.0714C5.21523 19.3578 5.56209 19.5764 5.94399 19.7113C6.27799 19.8293 6.67899 19.8613 7.47999 19.9253C7.79899 19.9503 7.95899 19.9633 8.11199 19.9933C8.46399 20.0633 8.79899 20.2023 9.09699 20.4013C9.22699 20.4883 9.34899 20.5923 9.59199 20.8003C10.204 21.3213 10.51 21.5823 10.83 21.7353C11.57 22.0883 12.43 22.0883 13.17 21.7353C13.49 21.5823 13.796 21.3213 14.408 20.8003C14.651 20.5923 14.773 20.4883 14.903 20.4013C15.201 20.2013 15.536 20.0633 15.888 19.9933C16.041 19.9633 16.201 19.9503 16.52 19.9253C17.321 19.8613 17.722 19.8293 18.056 19.7113C18.4379 19.5764 18.7848 19.3578 19.0711 19.0714C19.3575 18.785 19.5762 18.4382 19.711 18.0563C19.829 17.7223 19.861 17.3213 19.925 16.5203C19.95 16.2013 19.963 16.0413 19.993 15.8883C20.063 15.5363 20.202 15.2013 20.401 14.9033C20.488 14.7733 20.592 14.6513 20.8 14.4083C21.321 13.7963 21.582 13.4903 21.735 13.1703C22.088 12.4303 22.088 11.5703 21.735 10.8303C21.582 10.5103 21.321 10.2043 20.8 9.59225C20.6577 9.43498 20.5245 9.26971 20.401 9.09725C20.2012 8.79914 20.0625 8.46434 19.993 8.11225C19.9586 7.90301 19.9359 7.69202 19.925 7.48025C19.861 6.67925 19.829 6.27825 19.711 5.94425C19.5762 5.56235 19.3575 5.21548 19.0711 4.9291C18.7848 4.64272 18.4379 4.42409 18.056 4.28925C17.722 4.17125 17.321 4.13925 16.52 4.07525C16.3082 4.06434 16.0972 4.04164 15.888 4.00725C15.5359 3.93774 15.2011 3.79906 14.903 3.59925C14.7307 3.47552 14.5655 3.34231 14.408 3.20025C13.796 2.67925 13.49 2.41825 13.17 2.26525C12.8047 2.09063 12.4049 2 12 2C11.5951 2 11.1953 2.09063 10.83 2.26525C10.51 2.41825 10.204 2.67925 9.59199 3.20025ZM15.831 8.17025C15.9833 8.32286 16.0688 8.52965 16.0688 8.74525C16.0688 8.96085 15.9833 9.16764 15.831 9.32025L9.31999 15.8323C9.24581 15.9135 9.15593 15.9788 9.0558 16.0243C8.95567 16.0698 8.84736 16.0945 8.7374 16.097C8.62744 16.0995 8.51812 16.0796 8.41604 16.0387C8.31396 15.9978 8.22124 15.9366 8.14347 15.8588C8.0657 15.781 8.00449 15.6883 7.96355 15.5862C7.92261 15.4841 7.90278 15.3748 7.90526 15.2648C7.90774 15.1549 7.93247 15.0466 7.97797 14.9464C8.02348 14.8463 8.0888 14.7564 8.16999 14.6823L14.68 8.17125C14.8326 8.01895 15.0394 7.93342 15.255 7.93342C15.4706 7.93342 15.6774 8.01895 15.83 8.17125M15.797 14.7143C15.797 15.002 15.6827 15.278 15.4792 15.4815C15.2757 15.6849 14.9998 15.7993 14.712 15.7993C14.4242 15.7993 14.1483 15.6849 13.9448 15.4815C13.7413 15.278 13.627 15.002 13.627 14.7143C13.627 14.4265 13.7413 14.1505 13.9448 13.947C14.1483 13.7436 14.4242 13.6293 14.712 13.6293C14.9998 13.6293 15.2757 13.7436 15.4792 13.947C15.6827 14.1505 15.797 14.4265 15.797 14.7143ZM9.28699 10.3743C9.57475 10.3743 9.85073 10.2599 10.0542 10.0565C10.2577 9.85299 10.372 9.57701 10.372 9.28925C10.372 9.00149 10.2577 8.72552 10.0542 8.52204C9.85073 8.31856 9.57475 8.20425 9.28699 8.20425C8.99923 8.20425 8.72326 8.31856 8.51978 8.52204C8.31631 8.72552 8.20199 9.00149 8.20199 9.28925C8.20199 9.57701 8.31631 9.85299 8.51978 10.0565C8.72326 10.2599 8.99923 10.3743 9.28699 10.3743Z" fill="#5119B7"/>
</g>
</svg>
