<svg width="25" height="24" viewBox="0 0 25 24" fill="none" xmlns="http://www.w3.org/2000/svg">
<g id="Frame">
<path id="Vector" d="M19.5 15.0001L9.49999 5.00007M20.209 7.65007C20.366 7.49307 20.637 7.47707 20.796 7.65007C21.728 8.66807 22.245 9.42207 22.415 10.2561C22.512 10.7361 22.526 11.2241 22.455 11.6991C22.265 12.9841 21.225 14.0241 19.143 16.1051L16.605 18.6431C14.525 20.7241 13.484 21.7651 12.199 21.9561C11.724 22.0261 11.236 22.0121 10.756 21.9151C9.92199 21.7451 9.16799 21.2291 8.15099 20.2961C7.97699 20.1361 7.99299 19.8661 8.15099 19.7081C9.02699 18.8321 8.98499 17.3701 8.05799 16.4421C7.12999 15.5151 5.66799 15.4731 4.79199 16.3491C4.63499 16.5071 4.36299 16.5231 4.20399 16.3491C3.27099 15.3321 2.75499 14.5791 2.58499 13.7441C2.48847 13.269 2.47494 12.7808 2.54499 12.3011C2.73499 11.0161 3.77499 9.97607 5.85699 7.89507L8.39499 5.35707C10.475 3.27607 11.516 2.23507 12.801 2.04407C13.276 1.97407 13.764 1.98807 14.244 2.08507C15.079 2.25507 15.832 2.77207 16.849 3.70507C17.023 3.86407 17.007 4.13507 16.849 4.29107C15.973 5.16807 16.015 6.63007 16.943 7.55707C17.87 8.48507 19.334 8.52707 20.209 7.65007Z" stroke="black" stroke-width="1.5" stroke-linecap="round" stroke-linejoin="round"/>
</g>
</svg>
