<svg width="101" height="100" viewBox="0 0 101 100" fill="none" xmlns="http://www.w3.org/2000/svg">
<g id="halloween-tickets/bro">
<g id="background-simple">
<path id="Vector" d="M92.0662 25.2152C91.439 24.8006 90.82 24.3778 90.209 23.9469C83.6039 19.2985 52.6946 -1.81164 39.6637 0.125176C25.0325 2.29884 -6.00749 50.3451 1.90135 64.5801C9.8102 78.8152 49.3522 103.538 59.8309 99.5756C70.3096 95.6134 98.3857 52.1226 100.165 41.4468C101.684 32.3316 94.2664 26.6739 92.0662 25.2152Z" fill="#5119B7"/>
<path id="Vector_2" opacity="0.7" d="M92.0662 25.2152C91.439 24.8006 90.82 24.3778 90.209 23.9469C83.6039 19.2985 52.6946 -1.81164 39.6637 0.125176C25.0325 2.29884 -6.00749 50.3451 1.90135 64.5801C9.8102 78.8152 49.3522 103.538 59.8309 99.5756C70.3096 95.6134 98.3857 52.1226 100.165 41.4468C101.684 32.3316 94.2664 26.6739 92.0662 25.2152Z" fill="white"/>
</g>
<g id="ticket-2">
<path id="Vector_3" d="M90.9166 9.29142L84.0547 62.9467C83.5421 62.8869 83.0262 63.0284 82.6158 63.3413C82.2054 63.6543 81.9325 64.1143 81.8545 64.6245V64.6622C81.8545 64.7109 81.8434 64.7596 81.8412 64.8061C81.8166 65.3033 81.979 65.7917 82.2965 66.1752C82.614 66.5587 83.0636 66.8094 83.5567 66.8779L80.0594 94.2633L45.0063 89.7854L48.5059 62.3978C49.0026 62.4586 49.5041 62.3303 49.9106 62.0383C50.317 61.7463 50.5986 61.312 50.6995 60.8218C50.6995 60.7775 50.7172 60.7288 50.7238 60.6801V60.6447C50.7814 60.1281 50.6331 59.6097 50.3112 59.2016C49.9894 58.7936 49.5197 58.5287 49.0039 58.4644L55.8658 4.80908L90.9166 9.29142Z" fill="white" stroke="#371B63" stroke-width="0.15" stroke-linecap="round" stroke-linejoin="round"/>
<path id="Vector_4" d="M50.7327 60.667L81.6177 64.6115" stroke="#371B63" stroke-width="0.15" stroke-linecap="round" stroke-linejoin="round" stroke-dasharray="0.75 0.75"/>
<path id="Vector_5" d="M83.2291 68.6354L81.3653 70.6276L80.0638 68.2304L78.2 70.2247L76.8985 67.8253L75.0347 69.8197L73.7332 67.4202L71.8694 69.4146L70.5657 67.0174L68.7019 69.0095L67.4004 66.6123L65.5366 68.6044L64.2328 66.2072L62.3691 68.2016L61.0653 65.8022L59.2015 67.7965L57.8978 65.3971L56.034 67.3914L54.7303 64.9942L52.8665 66.9864L51.5627 64.5891L49.699 66.5813L48.3952 64.1841L48.2602 64.328L45.3716 86.93L80.4246 91.4102L83.3154 68.7926L83.2291 68.6354Z" fill="#FF8D5C" stroke="#371B63" stroke-width="0.15" stroke-linecap="round" stroke-linejoin="round"/>
</g>
<g id="ticket-1">
<path id="Vector_6" d="M38.4751 6L50.3593 58.7699C49.8572 58.8889 49.4208 59.1982 49.1421 59.6325C48.8634 60.0669 48.7642 60.5924 48.8652 61.0985V61.1339C48.9827 61.6434 49.2956 62.0862 49.7366 62.367C50.1777 62.6477 50.7114 62.7439 51.2226 62.6347L57.2876 89.5686L22.8212 97.3335L16.754 70.3974C17.2662 70.2801 17.7114 69.9651 17.9925 69.5211C18.2736 69.0771 18.3678 68.54 18.2547 68.0268V67.9891C18.1272 67.4869 17.809 67.0541 17.3676 66.7826C16.9263 66.5111 16.3965 66.4222 15.8907 66.5349L3.99976 13.7628L38.4751 6Z" fill="white" stroke="#371B63" stroke-width="0.15" stroke-miterlimit="10"/>
<path id="Vector_7" d="M18.2571 68.0092L48.6308 61.1694" stroke="#371B63" stroke-width="0.15" stroke-linecap="round" stroke-linejoin="round" stroke-dasharray="0.75 0.75"/>
<g id="BOOKED">
<path d="M12.0436 24.2252L11.1125 19.9883L12.6479 19.6509C13.2027 19.529 13.6349 19.5344 13.9446 19.667C14.2558 19.7972 14.4509 20.0421 14.5299 20.4015C14.5762 20.6125 14.5629 20.8079 14.4898 20.9878C14.4162 21.1657 14.2544 21.3425 14.0043 21.5183C14.192 21.5242 14.3488 21.5532 14.475 21.6053C14.6011 21.6575 14.7038 21.724 14.783 21.8049C14.8617 21.8838 14.923 21.9717 14.9669 22.0686C15.0102 22.1635 15.0427 22.2597 15.0641 22.3574C15.15 22.7481 15.0807 23.0664 14.8562 23.3123C14.6318 23.5582 14.2295 23.7449 13.6493 23.8724L12.0436 24.2252ZM12.7507 23.3757L13.5214 23.2063C13.7792 23.1497 13.9622 23.0552 14.0703 22.9229C14.1804 22.7902 14.2163 22.6369 14.1781 22.463C14.1507 22.338 14.0955 22.2406 14.0125 22.1708C13.9292 22.099 13.8271 22.0538 13.7063 22.0353C13.5875 22.0164 13.4578 22.0224 13.3171 22.0533L12.4996 22.2329L12.7507 23.3757ZM12.3503 21.5531L13.1677 21.3735C13.2556 21.3542 13.3375 21.326 13.4133 21.2888C13.4906 21.2493 13.5558 21.2012 13.6089 21.1445C13.6639 21.0873 13.7027 21.0215 13.7252 20.9469C13.7473 20.8704 13.7482 20.7862 13.7281 20.6944C13.6877 20.5108 13.5879 20.3873 13.4286 20.3241C13.2708 20.2584 13.0845 20.2492 12.8696 20.2964L12.1107 20.4632L12.3503 21.5531Z" fill="#FF8D5C"/>
<path d="M17.8235 23.0165C17.423 23.1045 17.0572 23.0938 16.726 22.9843C16.3963 22.8725 16.1159 22.673 15.8849 22.3859C15.6554 22.0964 15.4913 21.727 15.3926 21.2778C15.2934 20.8265 15.2881 20.4202 15.3766 20.0588C15.467 19.6969 15.6395 19.3959 15.8938 19.1557C16.1478 18.9136 16.472 18.7491 16.8666 18.6624C17.2593 18.5761 17.6204 18.5889 17.9501 18.7008C18.2798 18.8126 18.5596 19.0143 18.7895 19.3057C19.0214 19.5967 19.1871 19.9688 19.2867 20.422C19.385 20.8693 19.3907 21.2725 19.3037 21.6316C19.2187 21.9902 19.05 22.2893 18.7975 22.5291C18.5447 22.7669 18.22 22.9294 17.8235 23.0165ZM17.6689 22.3133C17.876 22.2678 18.044 22.1797 18.1729 22.049C18.3034 21.9159 18.3863 21.7339 18.4215 21.5029C18.4563 21.27 18.436 20.9817 18.3604 20.6379C18.2827 20.2843 18.1778 20.0073 18.0458 19.807C17.9157 19.6063 17.7633 19.4719 17.5886 19.4038C17.4154 19.3333 17.2263 19.3206 17.0212 19.3657C16.8161 19.4107 16.6487 19.5018 16.5191 19.6388C16.389 19.7738 16.3063 19.961 16.2708 20.2002C16.2349 20.4374 16.2555 20.7318 16.3328 21.0834C16.4088 21.4292 16.5122 21.6993 16.643 21.8937C16.7737 22.0882 16.9263 22.2185 17.1005 22.2846C17.2743 22.3488 17.4638 22.3584 17.6689 22.3133Z" fill="#FF8D5C"/>
<path d="M22.2415 22.0457C21.841 22.1337 21.4752 22.1229 21.144 22.0135C20.8143 21.9016 20.5339 21.7022 20.3029 21.415C20.0735 21.1256 19.9094 20.7562 19.8106 20.3069C19.7115 19.8557 19.7061 19.4493 19.7946 19.0879C19.8851 18.7261 20.0575 18.425 20.3119 18.1849C20.5658 17.9427 20.8901 17.7783 21.2847 17.6916C21.6773 17.6053 22.0384 17.6181 22.3681 17.7299C22.6978 17.8418 22.9776 18.0434 23.2075 18.3348C23.4394 18.6259 23.6051 18.998 23.7047 19.4512C23.803 19.8985 23.8087 20.3017 23.7217 20.6607C23.6367 21.0193 23.468 21.3185 23.2156 21.5582C22.9627 21.7961 22.638 21.9585 22.2415 22.0457ZM22.0869 21.3425C22.294 21.297 22.462 21.2088 22.591 21.0781C22.7214 20.945 22.8043 20.763 22.8395 20.532C22.8744 20.2991 22.854 20.0108 22.7784 19.667C22.7008 19.3134 22.5959 19.0365 22.4638 18.8362C22.3337 18.6354 22.1813 18.501 22.0066 18.4329C21.8334 18.3624 21.6443 18.3497 21.4392 18.3948C21.2341 18.4399 21.0667 18.5309 20.9371 18.6679C20.8071 18.803 20.7243 18.9901 20.6888 19.2293C20.6529 19.4665 20.6736 19.761 20.7508 20.1126C20.8268 20.4583 20.9302 20.7284 21.061 20.9229C21.1918 21.1173 21.3443 21.2476 21.5185 21.3138C21.6924 21.378 21.8818 21.3875 22.0869 21.3425Z" fill="#FF8D5C"/>
<path d="M28.4945 20.6101L27.5628 20.8149L26.0072 19.0895L25.5463 19.9833L25.8135 21.1993L24.9257 21.3944L23.9946 17.1575L24.8824 16.9624L25.3087 18.9021L26.4266 16.623L27.4082 16.4073L26.4824 18.3309L28.4945 20.6101Z" fill="#FF8D5C"/>
<path d="M29.1262 20.4713L28.1952 16.2344L31.1048 15.595L31.2602 16.3165L29.2121 16.7665L29.4381 17.795L31.2167 17.4042L31.3718 18.1103L29.5874 18.5024L29.8186 19.5543L31.9054 19.0988L32.0651 19.8255L29.1262 20.4713Z" fill="#FF8D5C"/>
<path d="M31.9494 15.4094C31.9708 15.4047 32.0304 15.3916 32.1281 15.3701C32.2277 15.3482 32.3439 15.3227 32.4768 15.2935C32.6116 15.2639 32.7456 15.2355 32.8788 15.2082C33.0136 15.1786 33.1262 15.1549 33.2164 15.1371C33.7328 15.0359 34.1719 15.0357 34.534 15.1363C34.896 15.237 35.1861 15.4251 35.4044 15.7007C35.6246 15.9758 35.781 16.3243 35.8737 16.7463C35.9703 17.1858 35.9737 17.5833 35.8839 17.9389C35.7937 18.2925 35.6027 18.5925 35.3108 18.8389C35.0208 19.0848 34.6228 19.2634 34.1169 19.3746L32.8804 19.6463L31.9494 15.4094ZM32.9628 15.9116L33.5899 18.7655L33.9825 18.6792C34.2248 18.626 34.4342 18.5308 34.6109 18.3937C34.7895 18.2562 34.915 18.0678 34.9874 17.8287C35.0598 17.5896 35.0569 17.2923 34.9788 16.9368C34.9062 16.6067 34.7947 16.3507 34.6441 16.1687C34.4931 15.9849 34.3095 15.8665 34.0931 15.8137C33.8767 15.7609 33.6347 15.7639 33.3671 15.8228L32.9628 15.9116Z" fill="#FF8D5C"/>
</g>
<g id="ENJOY!">
<path d="M71.6443 55.8318L63.0503 54.6417L63.8676 48.74L65.3288 48.9484L64.7535 53.1028L66.8396 53.3917L67.3392 49.7841L68.7715 49.9825L68.2703 53.6019L70.4039 53.8974L70.9959 49.6666L72.4698 49.8707L71.6443 55.8318Z" fill="#5119B7"/>
<path d="M64.8859 41.3867L65.1263 39.6513L73.7202 40.8414L73.5038 42.4045L67.0248 45.6686L72.9383 46.4875L72.6988 48.217L64.1048 47.0269L64.3427 45.3093L70.5736 42.1744L64.8859 41.3867Z" fill="#5119B7"/>
<path d="M72.0187 35.5452C72.5655 35.6209 73.0168 35.744 73.3728 35.9145C73.7288 36.0849 73.9799 36.3418 74.1262 36.6851C74.2725 37.0284 74.3045 37.4972 74.2222 38.0916C74.1843 38.3649 74.1216 38.643 74.034 38.9256C73.9504 39.2088 73.8814 39.4153 73.8271 39.5451L72.2452 39.2897C72.2848 39.1781 72.3346 39.0517 72.3946 38.9106C72.455 38.7655 72.4979 38.6018 72.5231 38.4196C72.5786 38.0194 72.5109 37.7354 72.3201 37.5677C72.1253 37.3994 71.7902 37.2823 71.3148 37.2164L65.5736 36.4214L65.8139 34.6859L72.0187 35.5452Z" fill="#5119B7"/>
<path d="M75.2623 30.5811C75.1498 31.3934 74.8761 32.0722 74.4412 32.6177C74.0028 33.1587 73.4342 33.5464 72.7355 33.7807C72.0333 34.0106 71.2266 34.0624 70.3153 33.9362C69.4 33.8095 68.634 33.5378 68.0173 33.1213C67.4012 32.7008 66.956 32.1687 66.6817 31.525C66.4034 30.8807 66.3197 30.1584 66.4306 29.358C66.5409 28.5616 66.8152 27.8929 67.2535 27.352C67.6919 26.811 68.2641 26.4258 68.9703 26.1965C69.677 25.9633 70.4899 25.9103 71.4091 26.0376C72.3165 26.1632 73.0768 26.4321 73.6901 26.8441C74.3039 27.2522 74.7482 27.7761 75.0231 28.4158C75.2939 29.055 75.3737 29.7768 75.2623 30.5811ZM73.8359 30.3836C73.8941 29.9636 73.8452 29.5873 73.6894 29.2548C73.5301 28.9178 73.246 28.6361 72.8372 28.4099C72.4244 28.1831 71.8693 28.0215 71.172 27.9249C70.4548 27.8256 69.8626 27.8304 69.3952 27.9393C68.9284 28.0443 68.5706 28.237 68.3218 28.5175C68.0695 28.7935 67.9146 29.1395 67.857 29.5556C67.7994 29.9716 67.8541 30.3487 68.0213 30.6868C68.1846 31.0244 68.4783 31.3094 68.9024 31.5418C69.3226 31.7736 69.8892 31.9389 70.6024 32.0377C71.3037 32.1348 71.8821 32.1281 72.3376 32.0175C72.7931 31.9069 73.1433 31.7111 73.3881 31.43C73.629 31.1484 73.7783 30.7996 73.8359 30.3836Z" fill="#5119B7"/>
<path d="M68.1797 17.6024L72.7462 21.2816L76.3597 21.7821L76.1194 23.5175L72.4999 23.0163L67.1122 25.3109L67.3723 23.4328L71.1291 21.936L67.9172 19.4983L68.1797 17.6024Z" fill="#5119B7"/>
<path d="M75.2905 15.8557L77.1448 16.1125L76.8823 18.0084L75.028 17.7517L75.2905 15.8557ZM68.5607 14.8511L74.4406 16.1318L74.29 17.2194L68.2792 16.8837L68.5607 14.8511Z" fill="#5119B7"/>
</g>
</g>
<g id="Floor">
<path id="Vector_8" d="M15.8486 66.9196C16.2644 66.8275 16.6988 66.8711 17.088 67.044C17.4772 67.2169 17.8007 67.51 18.0112 67.8803L48.7943 60.8723C48.8409 60.4647 49.0121 60.0814 49.2847 59.7747C49.5573 59.4681 49.9179 59.2531 50.3172 59.1591L47.7872 47.9211C43.0038 47.6998 37.0429 48.2731 30.7189 49.6919C23.8061 51.2414 17.7256 53.5456 13.3938 56.038L15.8419 66.9196H15.8486Z" fill="#5119B7" stroke="#371B63" stroke-width="0.15" stroke-miterlimit="10"/>
<path id="Vector_9" d="M33.9092 63.0084C38.9683 61.8692 42.7669 59.6019 42.3936 57.9441C42.0203 56.2864 37.6165 55.866 32.5574 57.0052C27.4983 58.1444 23.6997 60.4117 24.073 62.0695C24.4462 63.7272 28.8501 64.1476 33.9092 63.0084Z" fill="#371B63" stroke="#371B63" stroke-width="0.15" stroke-miterlimit="10"/>
</g>
<path id="Vector_10" d="M38.7243 45.2997C41.3028 39.2456 38.4853 32.2474 32.4312 29.6689C26.3771 27.0903 19.379 29.9078 16.8005 35.9619C14.2219 42.016 17.0394 49.0142 23.0935 51.5927C29.1476 54.1712 36.1457 51.3538 38.7243 45.2997Z" fill="#FF8D5C"/>
<path id="Vector_11" d="M22.2287 41.8293L27.5616 46.1657L33.1936 34.5904" stroke="white" stroke-width="2" stroke-linecap="round" stroke-linejoin="round"/>
<path id="Vector_12" d="M36.68 80.5766L36.6138 80.578C36.505 80.5804 36.3988 80.6112 36.3055 80.6676C36.2124 80.7239 36.1355 80.8036 36.0825 80.899C36.0825 80.8991 36.0824 80.8991 36.0824 80.8992L35.1935 82.5308L35.1829 82.5502L35.1635 82.5608L33.5311 83.4495C33.531 83.4495 33.531 83.4495 33.5309 83.4495C33.4328 83.5034 33.3509 83.5828 33.2938 83.6794C33.2367 83.776 33.2066 83.8863 33.2066 83.9987C33.2066 84.1111 33.2367 84.2214 33.2938 84.3181C33.3509 84.4147 33.4328 84.494 33.531 84.5479C33.531 84.5479 33.531 84.5479 33.5311 84.548L35.1635 85.4366L35.1829 85.4472L35.1935 85.4666L36.0826 87.0987L36.0829 87.0992C36.1363 87.1987 36.2155 87.2819 36.3122 87.3399C36.4089 87.3979 36.5194 87.4285 36.632 87.4285C36.7446 87.4285 36.8551 87.3979 36.9518 87.3399C37.0485 87.2819 37.1278 87.1987 37.1812 87.0992L37.1815 87.0985L38.0759 85.4665L38.0864 85.4472L38.1057 85.4367L39.7303 84.548L36.68 80.5766ZM36.68 80.5766C36.7724 80.5833 36.8625 80.6106 36.9435 80.6568C37.0435 80.7139 37.1259 80.7977 37.1815 80.8989L36.68 80.5766ZM43.0821 87.8999L43.0817 87.9007L42.1926 89.5248L42.1821 89.544L42.1629 89.5545L40.5328 90.4486C40.5328 90.4486 40.5328 90.4486 40.5328 90.4486C40.4347 90.5025 40.3527 90.5819 40.2956 90.6785C40.2385 90.7752 40.2084 90.8855 40.2084 90.9978C40.2084 91.1102 40.2385 91.2206 40.2956 91.3172C40.3527 91.4138 40.4346 91.4932 40.5327 91.547L43.0821 87.8999ZM43.0821 87.8999C43.1339 87.8027 43.2103 87.7209 43.3036 87.6628C43.3969 87.6048 43.5038 87.5725 43.6135 87.5693C43.729 87.5659 43.8431 87.5948 43.9432 87.6528C44.0433 87.7107 44.1254 87.7954 44.1804 87.8975L44.1806 87.898L45.0697 89.5247L45.0802 89.544L45.0995 89.5545L46.7321 90.4486C46.8303 90.5025 46.9122 90.5819 46.9693 90.6785C47.0265 90.7752 47.0566 90.8855 47.0566 90.9978C47.0566 91.1102 47.0264 91.2206 46.9693 91.3172C46.9122 91.4139 46.8303 91.4933 46.7321 91.5471L45.0997 92.4358L45.0803 92.4463L45.0697 92.4657L44.1806 94.0952L44.1803 94.0957C44.1269 94.1952 44.0477 94.2784 43.951 94.3364C43.8543 94.3944 43.7437 94.425 43.6312 94.425C43.5186 94.425 43.4081 94.3944 43.3114 94.3364C43.2147 94.2784 43.1354 94.1952 43.082 94.0957L43.0818 94.0952L42.1926 92.4657L42.1821 92.4464L42.1627 92.4358L40.5328 91.5471L43.0821 87.8999ZM37.1815 80.8989L38.0759 82.531L38.0864 82.5502L38.1057 82.5607L39.7303 83.4495L37.1815 80.8989ZM43.6322 83.374H43.6325C43.7974 83.374 43.9556 83.4396 44.0725 83.5565C44.1894 83.6733 44.2555 83.832 44.2561 83.9977L44.3311 83.9974H44.2561C44.2561 84.1635 44.1903 84.3227 44.0733 84.4401C43.9564 84.5575 43.7978 84.6233 43.6325 84.6233L43.6322 84.6233C43.5501 84.6236 43.4688 84.6077 43.3929 84.5764C43.317 84.5451 43.248 84.4991 43.1898 84.441C43.1317 84.3828 43.0855 84.3137 43.054 84.2375C43.0225 84.1615 43.0063 84.08 43.0062 83.9977C43.0066 83.9154 43.023 83.834 43.0547 83.7582C43.0863 83.6823 43.1325 83.6135 43.1907 83.5556C43.2488 83.4977 43.3177 83.4519 43.3935 83.4207C43.4692 83.3896 43.5503 83.3737 43.6322 83.374ZM36.6331 90.3705H36.6333C36.7986 90.3705 36.9572 90.4365 37.0742 90.5538C37.1911 90.6712 37.2569 90.8303 37.2569 90.9964C37.2563 91.162 37.1902 91.3206 37.0734 91.4375C36.9565 91.5543 36.7982 91.6199 36.6333 91.6199L36.6331 91.6199C36.5512 91.6202 36.4701 91.6043 36.3943 91.5731C36.3185 91.542 36.2496 91.4962 36.1915 91.4383C36.1334 91.3804 36.0872 91.3115 36.0555 91.2357C36.0239 91.1599 36.0074 91.0786 36.0071 90.9964C36.0071 90.914 36.0233 90.8324 36.0548 90.7563C36.0863 90.6802 36.1325 90.6111 36.1907 90.553C36.2488 90.4948 36.3179 90.4488 36.3938 90.4175C36.4697 90.3862 36.551 90.3702 36.6331 90.3705ZM39.9676 84.3181C39.9105 84.4147 39.8286 84.494 39.7304 84.5479V83.4495C39.8286 83.5034 39.9105 83.5828 39.9676 83.6794C40.0247 83.776 40.0548 83.8863 40.0548 83.9987C40.0548 84.1111 40.0247 84.2214 39.9676 84.3181Z" fill="white" stroke="black" stroke-width="0.15"/>
<path id="Vector_13" d="M50.68 15.5766L50.6138 15.578C50.505 15.5804 50.3988 15.6112 50.3055 15.6676C50.2124 15.7239 50.1355 15.8036 50.0825 15.899C50.0825 15.8991 50.0824 15.8991 50.0824 15.8992L49.1935 17.5308L49.1829 17.5502L49.1635 17.5608L47.5311 18.4495C47.531 18.4495 47.531 18.4495 47.5309 18.4495C47.4328 18.5034 47.3509 18.5828 47.2938 18.6794C47.2367 18.776 47.2066 18.8863 47.2066 18.9987C47.2066 19.1111 47.2367 19.2214 47.2938 19.3181C47.3509 19.4147 47.4328 19.494 47.531 19.5479C47.531 19.5479 47.531 19.5479 47.5311 19.548L49.1635 20.4366L49.1829 20.4472L49.1935 20.4666L50.0826 22.0987L50.0829 22.0992C50.1363 22.1987 50.2155 22.2819 50.3122 22.3399C50.4089 22.3979 50.5194 22.4285 50.632 22.4285C50.7446 22.4285 50.8551 22.3979 50.9518 22.3399C51.0485 22.2819 51.1278 22.1987 51.1812 22.0992L51.1815 22.0985L52.0759 20.4665L52.0864 20.4472L52.1057 20.4367L53.7303 19.548L50.68 15.5766ZM50.68 15.5766C50.7724 15.5833 50.8625 15.6106 50.9435 15.6568C51.0435 15.7139 51.1259 15.7977 51.1815 15.8989L50.68 15.5766ZM57.0821 22.8999L57.0817 22.9007L56.1926 24.5248L56.1821 24.544L56.1629 24.5545L54.5328 25.4486C54.5328 25.4486 54.5328 25.4486 54.5328 25.4486C54.4347 25.5025 54.3527 25.5819 54.2956 25.6785C54.2385 25.7752 54.2084 25.8855 54.2084 25.9978C54.2084 26.1102 54.2385 26.2206 54.2956 26.3172C54.3527 26.4138 54.4346 26.4932 54.5327 26.547L57.0821 22.8999ZM57.0821 22.8999C57.1339 22.8027 57.2103 22.7209 57.3036 22.6628C57.3969 22.6048 57.5038 22.5725 57.6135 22.5693C57.729 22.5659 57.8431 22.5948 57.9432 22.6528C58.0433 22.7107 58.1254 22.7954 58.1804 22.8975L58.1806 22.898L59.0697 24.5247L59.0802 24.544L59.0995 24.5545L60.7321 25.4486C60.8303 25.5025 60.9122 25.5819 60.9693 25.6785C61.0265 25.7752 61.0566 25.8855 61.0566 25.9978C61.0566 26.1102 61.0264 26.2206 60.9693 26.3172C60.9122 26.4139 60.8303 26.4933 60.7321 26.5471L59.0997 27.4358L59.0803 27.4463L59.0697 27.4657L58.1806 29.0952L58.1803 29.0957C58.1269 29.1952 58.0477 29.2784 57.951 29.3364C57.8543 29.3944 57.7437 29.425 57.6312 29.425C57.5186 29.425 57.4081 29.3944 57.3114 29.3364C57.2147 29.2784 57.1354 29.1952 57.082 29.0957L57.0818 29.0952L56.1926 27.4657L56.1821 27.4464L56.1627 27.4358L54.5328 26.5471L57.0821 22.8999ZM51.1815 15.8989L52.0759 17.531L52.0864 17.5502L52.1057 17.5607L53.7303 18.4495L51.1815 15.8989ZM57.6322 18.374H57.6325C57.7974 18.374 57.9556 18.4396 58.0725 18.5565C58.1894 18.6733 58.2555 18.832 58.2561 18.9977L58.3311 18.9974H58.2561C58.2561 19.1635 58.1903 19.3227 58.0733 19.4401C57.9564 19.5575 57.7978 19.6233 57.6325 19.6233L57.6322 19.6233C57.5501 19.6236 57.4688 19.6077 57.3929 19.5764C57.317 19.5451 57.248 19.4991 57.1898 19.441C57.1317 19.3828 57.0855 19.3137 57.054 19.2375C57.0225 19.1615 57.0063 19.08 57.0062 18.9977C57.0066 18.9154 57.023 18.834 57.0547 18.7582C57.0863 18.6823 57.1325 18.6135 57.1907 18.5556C57.2488 18.4977 57.3177 18.4519 57.3935 18.4207C57.4692 18.3896 57.5503 18.3737 57.6322 18.374ZM50.6331 25.3705H50.6333C50.7986 25.3705 50.9572 25.4365 51.0742 25.5538C51.1911 25.6712 51.2569 25.8303 51.2569 25.9964C51.2563 26.162 51.1902 26.3206 51.0734 26.4375C50.9565 26.5543 50.7982 26.6199 50.6333 26.6199L50.6331 26.6199C50.5512 26.6202 50.4701 26.6043 50.3943 26.5731C50.3185 26.542 50.2496 26.4962 50.1915 26.4383C50.1334 26.3804 50.0872 26.3115 50.0555 26.2357C50.0239 26.1599 50.0074 26.0786 50.0071 25.9964C50.0071 25.914 50.0233 25.8324 50.0548 25.7563C50.0863 25.6802 50.1325 25.6111 50.1907 25.553C50.2488 25.4948 50.3179 25.4488 50.3938 25.4175C50.4697 25.3862 50.551 25.3702 50.6331 25.3705ZM53.9676 19.3181C53.9105 19.4147 53.8286 19.494 53.7304 19.5479V18.4495C53.8286 18.5034 53.9105 18.5828 53.9676 18.6794C54.0247 18.776 54.0548 18.8863 54.0548 18.9987C54.0548 19.1111 54.0247 19.2214 53.9676 19.3181Z" fill="white" stroke="black" stroke-width="0.15"/>
</g>
</svg>
