<svg width="111" height="100" viewBox="0 0 111 100" fill="none" xmlns="http://www.w3.org/2000/svg">
<g id="Group 1">
<g id="background-simple">
<path id="Vector" d="M101.868 25.2152C101.24 24.8006 100.621 24.3778 100.011 23.9469C93.4054 19.2985 62.4961 -1.81164 49.4652 0.125176C34.8339 2.29884 3.79399 50.3451 11.7028 64.5801C19.6117 78.8152 59.1537 103.538 69.6324 99.5756C80.1111 95.6134 108.187 52.1226 109.967 41.4468C111.485 32.3316 104.068 26.6739 101.868 25.2152Z" fill="#FF8D5C"/>
<path id="Vector_2" opacity="0.7" d="M101.868 25.2152C101.24 24.8006 100.621 24.3778 100.011 23.9469C93.4054 19.2985 62.4961 -1.81164 49.4652 0.125176C34.8339 2.29884 3.79399 50.3451 11.7028 64.5801C19.6117 78.8152 59.1537 103.538 69.6324 99.5756C80.1111 95.6134 108.187 52.1226 109.967 41.4468C111.485 32.3316 104.068 26.6739 101.868 25.2152Z" fill="white"/>
</g>
<path id="Vector_3" d="M24.3365 82.875H24.3363C23.3987 82.8768 22.4769 82.6327 21.6626 82.1668C20.8484 81.701 20.1701 81.0296 19.6951 80.2194C19.2202 79.4093 18.9652 78.4887 18.9556 77.5492C18.946 76.6097 19.1821 75.684 19.6403 74.8643L52.6495 15.8681C53.1167 15.0358 53.7965 14.3431 54.6191 13.8611C55.4417 13.3791 56.3774 13.125 57.3303 13.125C58.2832 13.125 59.219 13.3791 60.0416 13.8611C60.8642 14.3431 61.5439 15.0358 62.0111 15.8681L95.0203 74.8643C95.4778 75.6826 95.7139 76.6066 95.7051 77.5446C95.6963 78.4826 95.4429 79.402 94.9701 80.2116C94.4974 81.0211 93.8216 81.6928 93.0099 82.16C92.1981 82.6272 91.2787 82.8737 90.3426 82.875H24.3365Z" fill="#371B63" stroke="#371B63" stroke-width="0.25"/>
<path id="Vector_4" d="M27.8193 79.5H87.3362C89.6141 79.5 91.0704 76.923 89.9377 74.8304L60.1824 19.1053C59.9403 18.6229 59.5685 18.2172 59.1085 17.9337C58.6485 17.6502 58.1184 17.5 57.5777 17.5C57.037 17.5 56.507 17.6502 56.047 17.9337C55.587 18.2172 55.2152 18.6229 54.9731 19.1053L25.2178 74.8304C24.0975 76.923 25.5414 79.5 27.8193 79.5Z" fill="white" stroke="white" stroke-width="0.25" stroke-miterlimit="10"/>
<path id="Vector_5" d="M60.5048 58.6716L60.5047 58.6728C60.3743 60.2318 59.3069 61.375 58.0769 61.375H56.3669C55.1547 61.375 54.0941 60.2614 53.9389 58.7269L53.9388 58.7261L51.9799 40.5733L51.9798 40.5726C51.7681 38.7154 52.9452 37.125 54.408 37.125H59.7615C60.4759 37.125 61.1223 37.5118 61.5729 38.1343C62.0235 38.7568 62.2728 39.6091 62.1893 40.519L60.5048 58.6716Z" fill="#FF8D5C" stroke="#371B63" stroke-width="0.25"/>
<path id="Vector_6" d="M60.2053 67.75C60.2053 68.3681 60.022 68.9723 59.6787 69.4862C59.3353 70.0001 58.8472 70.4006 58.2762 70.6371C57.7052 70.8736 57.0769 70.9355 56.4707 70.815C55.8645 70.6944 55.3076 70.3967 54.8706 69.9597C54.4336 69.5227 54.136 68.9658 54.0154 68.3597C53.8948 67.7535 53.9567 67.1251 54.1932 66.5541C54.4297 65.9831 54.8303 65.495 55.3442 65.1517C55.8581 64.8083 56.4623 64.625 57.0803 64.625C57.9091 64.625 58.704 64.9542 59.29 65.5403C59.8761 66.1263 60.2053 66.9212 60.2053 67.75Z" fill="#FF8D5C" stroke="#371B63" stroke-width="0.25"/>
<g id="Clouds">
<path id="Vector_7" d="M48.8303 40.778C48.8308 39.5644 48.5905 38.3626 48.1232 37.2413C47.6559 36.1199 46.9707 35.101 46.1068 34.2427C45.2429 33.3844 44.2172 32.7035 43.0883 32.239C41.9594 31.7744 40.7494 31.5353 39.5274 31.5353C38.9948 31.5355 38.4632 31.5819 37.9386 31.6737C37.9451 28.1863 36.5563 24.8391 34.0779 22.3685C31.5995 19.898 28.2344 18.5064 24.7229 18.5C21.2114 18.4936 17.8412 19.8728 15.3536 22.3343C12.866 24.7958 11.4649 28.1378 11.4584 31.6253C11.0323 31.5673 10.6028 31.5373 10.1728 31.5353C7.74604 31.5251 5.41134 32.457 3.66673 34.1323C1.92212 35.8076 0.905721 38.0937 0.834351 40.5028C0.76298 42.9119 1.6423 45.2533 3.28471 47.0276C4.92712 48.8019 7.2026 49.8685 9.62573 50H40.0988C42.4627 49.8555 44.6822 48.821 46.3046 47.1075C47.9271 45.3939 48.8304 43.1302 48.8303 40.778Z" fill="white" stroke="#371B63" stroke-width="0.25" stroke-linecap="round" stroke-linejoin="round"/>
<path id="Vector_8" d="M22.011 51.8237V52.5387" stroke="#371B63" stroke-width="0.25" stroke-linecap="round" stroke-linejoin="round"/>
<path id="Vector_9" d="M22.011 47.8477V51.1051" stroke="#371B63" stroke-width="0.25" stroke-linecap="round" stroke-linejoin="round"/>
<path id="Vector_10" d="M34.5347 44.3931V47.1283" stroke="#371B63" stroke-width="0.25" stroke-linecap="round" stroke-linejoin="round"/>
<path id="Vector_11" d="M29.7749 66.4922V69.2275" stroke="#371B63" stroke-width="0.25" stroke-linecap="round" stroke-linejoin="round"/>
<path id="Vector_12" d="M35.7114 70.6577V76.8513" stroke="#371B63" stroke-width="0.25" stroke-linecap="round" stroke-linejoin="round"/>
<path id="Vector_13" d="M35.7114 68.5088V69.6816" stroke="#371B63" stroke-width="0.25" stroke-linecap="round" stroke-linejoin="round"/>
<path id="Vector_14" d="M21.6978 68.2476V70.4607" stroke="#371B63" stroke-width="0.25" stroke-linecap="round" stroke-linejoin="round"/>
<path id="Vector_15" d="M23.1316 78.478V79.0002" stroke="#371B63" stroke-width="0.25" stroke-linecap="round" stroke-linejoin="round"/>
<path id="Vector_16" d="M23.1316 69.6133V77.7629" stroke="#371B63" stroke-width="0.25" stroke-linecap="round" stroke-linejoin="round"/>
<path id="Vector_17" d="M104.915 83.0095C104.918 82.0907 104.719 81.1825 104.333 80.3489C103.946 79.5152 103.382 78.7764 102.679 78.1844C101.977 77.5924 101.153 77.1616 100.266 76.9224C99.3785 76.6832 98.4497 76.6414 97.5447 76.7999C97.4994 74.4533 96.5365 72.2179 94.8625 70.5729C93.1884 68.9278 90.9364 68.0042 88.5894 68C86.2424 67.9958 83.9871 68.9114 82.3072 70.5504C80.6273 72.1894 79.6564 74.4214 79.6027 76.7678C79.314 76.726 79.0228 76.7045 78.7311 76.7035C77.0931 76.7056 75.5201 77.345 74.3452 78.4863C73.1703 79.6276 72.4856 81.1814 72.436 82.8186C72.3864 84.4559 72.9758 86.0482 74.0796 87.2586C75.1833 88.4689 76.7146 89.2023 78.3495 89.3035H98.9987C100.6 89.2034 102.104 88.4968 103.203 87.3276C104.302 86.1583 104.914 84.6143 104.915 83.0095Z" fill="white" stroke="#371B63" stroke-width="0.25" stroke-linecap="round" stroke-linejoin="round"/>
<path id="Vector_18" d="M90.7947 19.0593C90.7947 18.1165 90.4202 17.2124 89.7536 16.5458C89.087 15.8791 88.1828 15.5046 87.2401 15.5046C87.0367 15.5036 86.8337 15.521 86.6336 15.5569C86.6336 14.2157 86.1008 12.9295 85.1524 11.9811C84.2041 11.0328 82.9179 10.5 81.5767 10.5C80.2356 10.5 78.9493 11.0328 78.001 11.9811C77.0526 12.9295 76.5199 14.2157 76.5199 15.5569C76.356 15.5359 76.191 15.5252 76.0258 15.5247C75.1058 15.5311 74.2241 15.894 73.5661 16.537C72.9081 17.18 72.525 18.0532 72.4974 18.9728C72.4699 19.8924 72.7999 20.7869 73.4183 21.4682C74.0366 22.1495 74.895 22.5645 75.8129 22.626H87.461C88.367 22.5696 89.2171 22.1687 89.837 21.5055C90.4569 20.8423 90.7996 19.9671 90.7947 19.0593Z" fill="white" stroke="#371B63" stroke-width="0.25" stroke-linecap="round" stroke-linejoin="round"/>
</g>
</g>
</svg>
