<svg width="101" height="100" viewBox="0 0 101 100" fill="none" xmlns="http://www.w3.org/2000/svg">
<g id="7117898_3255338 1" clip-path="url(#clip0_918_2254)">
<g id="Background_Simple">
<path id="Vector" d="M95.3089 17.6602L94.7071 16.6812C89.8412 8.76309 81.1425 3.88291 71.8542 4.19906C70.3802 4.24923 68.9107 4.42412 67.465 4.7299C58.7896 6.56376 51.2409 13.0418 48.1122 21.3386C46.2719 26.2179 45.7578 31.8361 42.2659 35.7089C37.7212 40.7494 30.0054 40.9078 23.2216 40.699C16.4381 40.4902 8.71699 40.6681 4.19444 45.7288C1.36196 48.8982 0.461706 53.4051 0.690132 57.6493C1.29497 68.8862 9.22429 78.9338 19.3087 83.9281C29.393 88.9223 41.2661 89.3694 52.3029 87.1726C67.7641 84.0948 82.4674 75.6431 91.3054 62.5889C100.143 49.5347 102.38 31.7497 95.3089 17.6602Z" fill="#5119B7" fill-opacity="0.2"/>
</g>
<g id="Hourglass">
<g id="Group">
<g id="Group_2">
<g id="Group_3">
<g id="Group_4">
<path id="Vector_2" d="M19.2787 23.3228C18.8122 30.3419 22.9748 37.4467 29.3256 40.4716C33.5593 42.4883 38.3991 42.7465 42.8821 44.1229C47.3651 45.4995 51.9192 48.6492 52.4925 53.3036C53.0761 58.0418 49.4199 62.0963 47.3812 66.4131C45.1605 71.1151 44.8372 76.6811 46.4984 81.6087C48.1596 86.5363 51.7866 90.7704 56.4007 93.1685L91.5757 73.9546C91.5757 73.9546 91.3222 58.8035 78.476 54.1688C65.6298 49.5341 61.283 51.7174 58.3627 45.6722C55.4427 39.6268 58.5172 35.464 59.6656 31.9718C60.814 28.4795 69.4766 17.0621 53.8076 4.46217L19.2787 23.3228Z" fill="#FAFAFA"/>
</g>
<g id="Group_5">
<g id="Group_6">
<g id="Vector_3">
<path d="M19.2789 23.3228C19.2789 23.3228 19.4813 23.208 19.8818 22.9871C20.2839 22.7661 20.8803 22.4382 21.6623 22.0084C23.2309 21.1486 25.5428 19.8815 28.5208 18.2491C34.4851 14.9856 43.1161 10.2628 53.7868 4.42382L53.8126 4.40973L53.8348 4.42819C54.9822 5.38624 56.1541 6.3773 57.2259 7.52113C58.3043 8.65356 59.3493 9.87634 60.2341 11.2518C61.1222 12.6216 61.8819 14.1222 62.3976 15.7429C62.902 17.3644 63.1691 19.0975 63.1276 20.8583C63.1097 21.739 63.0056 22.6229 62.8528 23.5044C62.6924 24.3852 62.459 25.2585 62.1795 26.1229C61.8986 26.9873 61.5626 27.8405 61.1907 28.6844C60.8211 29.5292 60.4087 30.3622 60.0262 31.2127C59.8341 31.6376 59.6866 32.077 59.5267 32.524C59.3621 32.9666 59.1831 33.4047 58.9999 33.8419C58.6339 34.7168 58.2613 35.5952 57.9523 36.5028C57.3127 38.3054 57.0193 40.2801 57.3266 42.2242C57.4881 43.19 57.7506 44.1509 58.1601 45.0576C58.2613 45.2845 58.3508 45.5175 58.462 45.7403C58.5771 45.9612 58.6844 46.1872 58.8144 46.4005C59.0568 46.8375 59.3454 47.2486 59.6612 47.6372C60.2984 48.4109 61.1135 49.0406 62.033 49.4701C62.9485 49.9103 63.9379 50.1977 64.9363 50.4488C66.9389 50.9403 68.9918 51.3321 71.036 51.8494C73.0831 52.356 75.1285 52.954 77.1623 53.6458C78.1756 53.9968 79.2018 54.3463 80.1796 54.8216C81.1685 55.2719 82.104 55.843 82.9972 56.475C84.7758 57.7534 86.3286 59.3736 87.5588 61.2255C88.8019 63.0705 89.7455 65.1272 90.4192 67.2764C90.7585 68.3508 91.0303 69.45 91.2359 70.5651C91.4413 71.6805 91.5916 72.8088 91.6366 73.9534L91.6382 73.9901L91.605 74.0083C91.3195 74.1642 91.0095 74.3335 90.6993 74.503C78.6915 81.061 67.1054 87.3887 56.4288 93.2195L56.4014 93.2345L56.3739 93.22C53.3237 91.6195 50.7498 89.2726 48.8931 86.526C47.019 83.7883 45.8779 80.6396 45.5321 77.4805C45.1675 74.3198 45.5582 71.1594 46.5541 68.2993C47.0452 66.8637 47.7385 65.5299 48.4637 64.2499C49.1896 62.9683 49.9527 61.7328 50.6228 60.4709C51.2876 59.21 51.8901 57.9247 52.2136 56.5781C52.5441 55.2374 52.5964 53.8462 52.3077 52.5391C52.0199 51.2302 51.3762 50.0444 50.5748 49.0345C49.7686 48.0222 48.7969 47.1793 47.7663 46.4769C46.7335 45.774 45.6381 45.209 44.5268 44.7546C43.4156 44.2966 42.2807 43.9714 41.1634 43.6896C38.9255 43.1323 36.747 42.7656 34.7023 42.2829C33.6797 42.0435 32.6898 41.7786 31.7424 41.4684C30.7974 41.1522 29.8944 40.7919 29.0554 40.3661C27.3714 39.5222 25.9435 38.4437 24.7642 37.294C23.5835 36.143 22.6417 34.9212 21.9211 33.7173C21.7244 33.426 21.5712 33.1185 21.411 32.8241C21.2542 32.5279 21.0883 32.2452 20.9665 31.9497C20.8355 31.6587 20.7078 31.375 20.5834 31.0986C20.4711 30.8174 20.375 30.5381 20.2746 30.2698C19.4958 28.1082 19.3017 26.3238 19.2614 25.1359C19.2444 24.8378 19.2295 24.5756 19.2445 24.3484C19.2516 24.1224 19.2573 23.9328 19.2618 23.78C19.2721 23.4761 19.2789 23.3228 19.2789 23.3228C19.2783 23.3561 19.2763 23.4888 19.2719 23.7838C19.2688 23.9361 19.2648 24.1251 19.26 24.3504C19.2471 24.5754 19.2632 24.8375 19.2819 25.1352C19.3288 26.3214 19.529 28.1018 20.3119 30.2567C20.4129 30.5241 20.5092 30.8025 20.6221 31.0827C20.7471 31.3581 20.875 31.6408 21.0066 31.9307C21.1288 32.2252 21.295 32.5069 21.4519 32.802C21.6123 33.0952 21.7659 33.4018 21.9626 33.6917C22.6838 34.8909 23.6252 36.1076 24.8042 37.2529C25.9815 38.397 27.406 39.4693 29.0846 40.3073C29.921 40.7302 30.8213 41.0882 31.7641 41.4021C32.7091 41.7105 33.6974 41.9735 34.7189 42.2112C36.7613 42.6908 38.9403 43.0549 41.1828 43.6109C42.3021 43.8919 43.4416 44.2173 44.5586 44.6764C45.6753 45.1319 46.7763 45.6983 47.8155 46.4041C48.8526 47.1097 49.8317 47.9572 50.6459 48.9777C51.4551 49.9957 52.1072 51.1938 52.3994 52.5182C52.6928 53.8407 52.6404 55.2484 52.3077 56.6012C51.9821 57.9602 51.3769 59.2526 50.7109 60.5179C50.0393 61.7841 49.2766 63.0207 48.5527 64.3005C47.8292 65.5792 47.1407 66.9061 46.653 68.3342C45.6642 71.1797 45.2767 74.3244 45.6409 77.4683C45.9863 80.6104 47.1221 83.7401 48.987 86.4624C50.8343 89.1933 53.3952 91.5263 56.4275 93.1165L56.3726 93.117C67.0482 87.2845 78.6334 80.9555 90.6405 74.3958C90.9507 74.2263 91.2605 74.0571 91.5461 73.901L91.5143 73.9557C91.4696 72.8248 91.3199 71.6967 91.1155 70.5877C90.911 69.4774 90.6403 68.3827 90.3026 67.3132C89.6321 65.1736 88.6933 63.1277 87.4577 61.2935C86.2351 59.4526 84.6927 57.8433 82.9266 56.5733C82.0395 55.9458 81.1105 55.3783 80.128 54.9307C79.1574 54.4587 78.1369 54.1109 77.1235 53.7597C75.093 53.0686 73.051 52.471 71.0072 51.9648C68.9654 51.4476 66.916 51.0559 64.9073 50.5624C63.9059 50.3103 62.9099 50.0212 61.9823 49.5749C61.0506 49.1398 60.2188 48.4973 59.5723 47.711C59.2517 47.3164 58.9594 46.8996 58.7147 46.4579C58.5833 46.2419 58.4751 46.0145 58.3592 45.7914C58.247 45.5664 58.1568 45.3316 58.0548 45.1028C57.6423 44.1886 57.3774 43.218 57.2146 42.242C56.9045 40.2769 57.2031 38.2795 57.8473 36.4676C58.1582 35.5552 58.5327 34.6743 58.8987 33.8004C59.0822 33.3636 59.2608 32.9268 59.4244 32.4869C59.5818 32.048 59.7336 31.5969 59.9271 31.1696C60.3118 30.3152 60.7236 29.4846 61.0928 28.642C61.4639 27.8007 61.7992 26.951 62.0793 26.0906C62.358 25.2301 62.5908 24.3617 62.7508 23.4859C62.9029 22.6096 63.0073 21.7312 63.0255 20.8559C63.068 19.1062 62.8037 17.3846 62.3035 15.7723C61.7919 14.1611 61.0375 12.6676 60.1544 11.3031C59.2747 9.93294 58.2342 8.71357 57.1599 7.58373C56.0925 6.44258 54.9239 5.45267 53.7798 4.49543L53.8278 4.49979C43.1549 10.3195 34.5221 15.0268 28.5567 18.2796C25.5717 19.9045 23.2543 21.1661 21.682 22.022C20.8958 22.4488 20.2959 22.7743 19.8918 22.9937C19.4886 23.2126 19.2789 23.3228 19.2789 23.3228Z" fill="#371B63"/>
<path d="M19.2789 23.3228C19.2789 23.3228 19.4813 23.208 19.8818 22.9871C20.2839 22.7661 20.8803 22.4382 21.6623 22.0084C23.2309 21.1486 25.5428 19.8815 28.5208 18.2491C34.4851 14.9856 43.1161 10.2628 53.7868 4.42382L53.8126 4.40973L53.8348 4.42819C54.9822 5.38624 56.1541 6.3773 57.2259 7.52113C58.3043 8.65356 59.3493 9.87634 60.2341 11.2518C61.1222 12.6216 61.8819 14.1222 62.3976 15.7429C62.902 17.3644 63.1691 19.0975 63.1276 20.8583C63.1097 21.739 63.0056 22.6229 62.8528 23.5044C62.6924 24.3852 62.459 25.2585 62.1795 26.1229C61.8986 26.9873 61.5626 27.8405 61.1907 28.6844C60.8211 29.5292 60.4087 30.3622 60.0262 31.2127C59.8341 31.6376 59.6866 32.077 59.5267 32.524C59.3621 32.9666 59.1831 33.4047 58.9999 33.8419C58.6339 34.7168 58.2613 35.5952 57.9523 36.5028C57.3127 38.3054 57.0193 40.2801 57.3266 42.2242C57.4881 43.19 57.7506 44.1509 58.1601 45.0576C58.2613 45.2845 58.3508 45.5175 58.462 45.7403C58.5771 45.9612 58.6844 46.1872 58.8144 46.4005C59.0568 46.8375 59.3454 47.2486 59.6612 47.6372C60.2984 48.4109 61.1135 49.0406 62.033 49.4701C62.9485 49.9103 63.9379 50.1977 64.9363 50.4488C66.9389 50.9403 68.9918 51.3321 71.036 51.8494C73.0831 52.356 75.1285 52.954 77.1623 53.6458C78.1756 53.9968 79.2018 54.3463 80.1796 54.8216C81.1685 55.2719 82.104 55.843 82.9972 56.475C84.7758 57.7534 86.3286 59.3736 87.5588 61.2255C88.8019 63.0705 89.7455 65.1272 90.4192 67.2763C90.7585 68.3508 91.0303 69.45 91.2359 70.5651C91.4413 71.6805 91.5916 72.8088 91.6367 73.9534L91.6382 73.9901L91.605 74.0083C91.3195 74.1642 91.0095 74.3335 90.6993 74.503C78.6915 81.061 67.1054 87.3887 56.4288 93.2195L56.4014 93.2345L56.3739 93.22C53.3237 91.6195 50.7498 89.2726 48.8931 86.526C47.019 83.7883 45.8779 80.6396 45.5321 77.4805C45.1675 74.3198 45.5582 71.1594 46.5541 68.2993C47.0452 66.8637 47.7385 65.5299 48.4637 64.2499C49.1896 62.9683 49.9527 61.7328 50.6228 60.4709C51.2876 59.21 51.8901 57.9247 52.2136 56.5781C52.5441 55.2374 52.5964 53.8462 52.3077 52.5391C52.0199 51.2302 51.3762 50.0444 50.5748 49.0345C49.7686 48.0222 48.7969 47.1793 47.7663 46.4769C46.7335 45.774 45.6381 45.209 44.5268 44.7546C43.4156 44.2966 42.2807 43.9714 41.1634 43.6896C38.9255 43.1323 36.747 42.7656 34.7023 42.2829C33.6797 42.0435 32.6898 41.7786 31.7424 41.4684C30.7974 41.1522 29.8944 40.7919 29.0554 40.3661C27.3714 39.5222 25.9435 38.4437 24.7642 37.294C23.5835 36.143 22.6417 34.9212 21.9211 33.7173C21.7244 33.426 21.5712 33.1185 21.411 32.8241C21.2542 32.5279 21.0883 32.2452 20.9665 31.9497C20.8355 31.6587 20.7078 31.375 20.5834 31.0986C20.4711 30.8174 20.375 30.5381 20.2746 30.2698C19.4958 28.1082 19.3017 26.3238 19.2614 25.1359C19.2444 24.8378 19.2295 24.5756 19.2445 24.3484C19.2516 24.1224 19.2573 23.9328 19.2618 23.78C19.2721 23.4761 19.2789 23.3228 19.2789 23.3228ZM19.2789 23.3228C19.2783 23.3561 19.2763 23.4888 19.2719 23.7838C19.2688 23.9361 19.2648 24.1251 19.26 24.3504C19.2471 24.5754 19.2632 24.8375 19.2819 25.1352C19.3288 26.3214 19.529 28.1018 20.3119 30.2567C20.4129 30.5241 20.5092 30.8025 20.6221 31.0827C20.7471 31.3581 20.875 31.6408 21.0066 31.9307C21.1288 32.2252 21.295 32.5069 21.4519 32.802C21.6123 33.0952 21.7659 33.4018 21.9626 33.6917C22.6838 34.8909 23.6252 36.1076 24.8042 37.2529C25.9815 38.397 27.406 39.4693 29.0846 40.3073C29.921 40.7302 30.8213 41.0882 31.7641 41.4021C32.7091 41.7105 33.6974 41.9735 34.7189 42.2112C36.7613 42.6908 38.9403 43.0549 41.1828 43.6109C42.3021 43.8919 43.4416 44.2173 44.5586 44.6764C45.6753 45.1319 46.7763 45.6983 47.8155 46.4041C48.8526 47.1097 49.8317 47.9572 50.6459 48.9777C51.4551 49.9957 52.1072 51.1938 52.3994 52.5182C52.6928 53.8407 52.6404 55.2484 52.3077 56.6012C51.9821 57.9602 51.3769 59.2526 50.7109 60.5179C50.0393 61.7841 49.2766 63.0207 48.5527 64.3005C47.8292 65.5792 47.1407 66.9061 46.653 68.3342C45.6642 71.1797 45.2767 74.3244 45.6409 77.4683C45.9863 80.6104 47.1221 83.7401 48.987 86.4624C50.8343 89.1933 53.3952 91.5263 56.4275 93.1165L56.3726 93.117C67.0482 87.2845 78.6334 80.9555 90.6405 74.3958C90.9507 74.2263 91.2605 74.0571 91.5461 73.9011L91.5143 73.9557C91.4696 72.8248 91.3199 71.6967 91.1155 70.5877C90.911 69.4774 90.6403 68.3827 90.3026 67.3132C89.6321 65.1736 88.6933 63.1277 87.4577 61.2935C86.2351 59.4526 84.6927 57.8433 82.9266 56.5733C82.0395 55.9458 81.1105 55.3783 80.128 54.9307C79.1574 54.4587 78.1369 54.1109 77.1235 53.7597C75.093 53.0686 73.051 52.471 71.0072 51.9648C68.9654 51.4476 66.916 51.0559 64.9073 50.5624C63.9059 50.3103 62.9099 50.0212 61.9823 49.5749C61.0506 49.1398 60.2188 48.4973 59.5723 47.711C59.2517 47.3164 58.9594 46.8996 58.7147 46.4579C58.5833 46.2419 58.4751 46.0145 58.3592 45.7914C58.247 45.5664 58.1568 45.3316 58.0548 45.1028C57.6423 44.1886 57.3774 43.218 57.2146 42.242C56.9045 40.2769 57.2031 38.2795 57.8473 36.4676C58.1582 35.5552 58.5327 34.6743 58.8987 33.8004C59.0822 33.3636 59.2608 32.9268 59.4244 32.4869C59.5818 32.048 59.7336 31.5969 59.9271 31.1696C60.3118 30.3152 60.7236 29.4846 61.0928 28.642C61.4639 27.8007 61.7992 26.951 62.0793 26.0906C62.358 25.2301 62.5908 24.3617 62.7508 23.4859C62.9029 22.6096 63.0073 21.7312 63.0255 20.8559C63.068 19.1062 62.8037 17.3846 62.3035 15.7723C61.7919 14.1611 61.0375 12.6676 60.1544 11.3031C59.2747 9.93294 58.2342 8.71357 57.1599 7.58373C56.0925 6.44258 54.9239 5.45267 53.7798 4.49543L53.8278 4.49979C43.1549 10.3195 34.5221 15.0267 28.5567 18.2796C25.5717 19.9045 23.2543 21.1661 21.682 22.022C20.8958 22.4488 20.2959 22.7743 19.8918 22.9937C19.4886 23.2126 19.2789 23.3228 19.2789 23.3228Z" stroke="#371B63" stroke-width="0.2"/>
</g>
</g>
</g>
</g>
<g id="Group_7">
<path id="Vector_4" d="M57.4666 19.2241C63.1126 17.2458 60.1124 26.4433 57.4666 32.5895C55.9347 36.1484 54.3012 39.9925 54.7525 43.8407C55.2645 48.2068 57.3726 52.4435 57.9605 56.5591C58.1709 57.22 56.8142 57.7606 56.4906 57.1471C55.2347 54.7658 56.1407 51.3534 54.4786 49.2411C52.1215 46.2456 49.0705 43.6748 45.4378 42.52C42.4726 41.5775 39.2815 41.6179 36.2605 40.8726C31.8499 39.7846 26.9331 37.9597 24.4669 34.1448C24.4669 34.1448 27.9748 27.4554 31.073 25.3793C34.4424 23.3398 39.146 20.8148 47.109 23.985C50.6111 25.3793 50.9179 21.519 57.4666 19.2241Z" fill="#FF8D5C"/>
</g>
<g id="Group_8">
<path id="Vector_5" d="M87.5697 69.1394C86.7701 67.4362 85.0063 66.5543 84.7123 66.5954C83.8135 66.6056 84.7776 69.1707 84.1244 69.788C83.4711 70.4053 82.6545 70.67 81.0963 69.1394C77.3629 67.4362 75.5845 69.5274 73.8352 69.788C72.1475 70.0394 69.191 66.6162 67.4849 66.5954C65.7789 66.5746 65.9774 69.2207 64.7219 70.376C62.5568 72.3682 59.7458 67.7065 57.6665 69.788C56.7421 70.7131 56.8665 72.958 55.6086 73.3157C54.3508 73.6735 50.7266 70.0006 49.6033 70.67C48.7231 71.1945 48.5533 72.7278 48.5533 73.9037L48.8472 76.2555C47.6878 72.5111 47.9652 75.3736 47.9652 75.82C47.9176 75.9792 47.9852 76.3834 47.9652 76.5495C47.7563 77.9936 50.0239 84.5821 50.9434 85.7038C51.973 86.9596 53.3344 87.8968 54.714 88.7535C56.339 89.7626 58.0729 90.7042 59.9723 90.9313C62.3156 91.2115 63.9839 89.2234 66.1375 88.2585C71.1609 86.0079 76.4838 83.4372 81.0963 80.4329C83.5326 78.8459 86.0679 77.8191 87.2341 75.1556C88.0548 73.2817 88.0743 71.122 87.5697 69.1394Z" fill="#FF8D5C"/>
</g>
<g id="Group_9" opacity="0.24">
<g id="Group_10">
<path id="Vector_6" d="M77.5274 71.7335C77.3852 72.1197 77.4433 72.5013 77.8373 72.5995C78.2312 72.6976 78.7054 72.7233 78.9701 72.9376C79.3857 73.2742 79.1598 73.9488 79.0375 74.5363C78.8187 75.5874 78.988 76.5576 79.6249 77.2341C80.2619 77.9105 81.3826 78.277 82.7548 78.1602C83.3617 78.1085 84.0885 77.9284 84.6203 77.501C85.1211 77.0985 85.3044 76.5809 85.2365 76.1946C85.1686 75.8084 84.8942 75.5223 84.6418 75.2324C83.4701 73.8871 82.6881 72.2915 82.3304 70.5168C82.2707 70.22 82.1878 69.8892 81.7961 69.8418C81.5461 69.8114 81.2262 69.9077 80.9242 70.005C79.7394 70.3874 78.7047 71.2469 77.5274 71.7335Z" fill="#371B63"/>
</g>
</g>
<g id="Group_11">
<path id="Vector_7" d="M93.038 75.6271C93.0238 75.6467 93.0091 75.6665 92.9943 75.6864L58.0835 94.4651C58.0835 94.4651 57.9169 94.4535 57.6528 94.4099C56.2382 94.1761 55.9246 92.2799 57.1883 91.6027L91.1022 73.4318C92.5021 72.6818 93.973 74.3433 93.038 75.6271Z" fill="#371B63"/>
</g>
<g id="Group_12">
<path id="Vector_8" d="M54.2331 4.48504C54.2188 4.50461 54.2042 4.5244 54.1893 4.5443L19.2786 23.323C19.2786 23.323 19.112 23.3114 18.8478 23.2678C17.4333 23.034 17.1197 21.1378 18.3834 20.4606L52.2972 2.28972C53.6972 1.53973 55.1681 3.20119 54.2331 4.48504Z" fill="#371B63"/>
</g>
<g id="Group_13" opacity="0.24">
<g id="Group_14">
<path id="Vector_9" d="M55.9144 20.7967C56.0576 20.8926 55.9551 21.3251 55.6981 22.0403C55.4398 22.7567 55.0414 23.7636 54.5219 25.0191C53.9937 26.2712 53.3517 27.7839 52.3672 29.4059C51.8734 30.2169 51.2768 31.0341 50.5664 31.8216C50.2057 32.2111 49.8231 32.5988 49.394 32.9578C48.9714 33.3218 48.5089 33.6629 48.0081 33.967C47.0156 34.5855 45.8916 35.0047 44.785 35.1954C43.6819 35.3801 42.6433 35.3587 41.7032 35.2816C40.7585 35.2006 39.9127 35.0733 39.1119 34.9466C38.3128 34.8177 37.572 34.6772 36.8992 34.5321C34.2069 33.9471 32.6099 33.3077 32.6725 32.9817C32.7364 32.6434 34.4344 32.6774 37.1272 32.815C37.8 32.8492 38.5362 32.8865 39.326 32.9265C40.1136 32.9636 40.9663 33.0137 41.8151 33.0271C42.6659 33.0393 43.5268 33.0029 44.3488 32.8353C45.1618 32.6624 45.9613 32.3546 46.7298 31.8772C48.2702 30.9308 49.5028 29.5325 50.4839 28.1619C51.4651 26.7751 52.2574 25.3797 52.9826 24.2244C53.7027 23.0633 54.3563 22.1389 54.8788 21.5521C55.4019 20.9638 55.7766 20.7044 55.9144 20.7967Z" fill="#371B63"/>
</g>
</g>
<g id="Group_15">
<path id="Vector_10" d="M55.6953 64.3608C56.0037 64.0178 56.6699 64.1527 56.8206 64.5886C56.9714 65.0245 56.5306 65.5421 56.0762 65.4629C55.6218 65.3836 55.3823 64.7474 55.6718 64.3884" fill="#FF8D5C"/>
</g>
<g id="Group_16">
<g id="Group_17">
<path id="Vector_11" d="M33.9895 40.2478C33.9882 40.2517 33.9225 40.2321 33.7991 40.191C33.6654 40.145 33.486 40.0834 33.2602 40.0057C33.0283 39.9196 32.7374 39.8325 32.4136 39.695C32.087 39.5593 31.7174 39.4056 31.3101 39.2363C30.9124 39.0416 30.471 38.839 30.0082 38.6C29.7806 38.4727 29.5455 38.3412 29.3033 38.2058C29.1828 38.1368 29.0576 38.072 28.9363 37.9965C28.8162 37.919 28.6948 37.8404 28.5717 37.7608C27.5752 37.1439 26.551 36.3437 25.6045 35.3753C24.6574 34.4064 23.8884 33.3571 23.3121 32.3344C23.1707 32.0775 23.0476 31.8188 22.9202 31.5719C22.8595 31.447 22.7914 31.3277 22.7393 31.2034C22.6876 31.0789 22.6368 30.9563 22.5868 30.8359C22.4886 30.5943 22.3863 30.3639 22.3021 30.1371C22.2259 29.9078 22.1527 29.6874 22.0826 29.4767C21.9314 29.0595 21.8486 28.6661 21.7576 28.3264C21.7157 28.1555 21.67 27.9982 21.6404 27.8504C21.6131 27.7032 21.5881 27.5681 21.5652 27.4453C21.5234 27.2103 21.4899 27.0234 21.465 26.8842C21.4437 26.7557 21.4342 26.688 21.4384 26.6873C21.4426 26.6866 21.4601 26.7529 21.4894 26.8797C21.5197 27.0176 21.5605 27.2027 21.6118 27.4354C21.6377 27.5574 21.6663 27.6913 21.6973 27.8373C21.7302 27.9839 21.779 28.14 21.8238 28.3092C21.9208 28.6462 22.0089 29.0362 22.1647 29.4495C22.2366 29.6581 22.312 29.8766 22.3903 30.1037C22.4764 30.3282 22.5803 30.5562 22.6798 30.7956C22.7304 30.9148 22.782 31.0362 22.8342 31.1593C22.887 31.2824 22.9554 31.4003 23.0165 31.5239C23.1446 31.7683 23.2681 32.0243 23.4099 32.2785C23.9875 33.2903 24.7525 34.3282 25.6916 35.2891C26.6304 36.2496 27.6446 37.0468 28.6323 37.6652C28.7541 37.745 28.8746 37.8239 28.9932 37.9017C29.1133 37.9773 29.2377 38.0425 29.3569 38.1122C29.5969 38.2488 29.8299 38.3815 30.0555 38.5099C30.5142 38.7516 30.9516 38.9578 31.3455 39.157C31.7491 39.3321 32.1152 39.4906 32.4388 39.6308C32.7593 39.7739 33.0474 39.8673 33.2764 39.9602C33.4986 40.0467 33.6752 40.1159 33.8068 40.167C33.9282 40.2164 33.9909 40.2438 33.9895 40.2478Z" fill="#371B63"/>
</g>
</g>
<g id="Group_18">
<g id="Group_19">
<path id="Vector_12" d="M48.7797 71.9806C48.7776 71.9807 48.7782 71.9504 48.7812 71.8916C48.7854 71.8267 48.791 71.7403 48.798 71.6305C48.8066 71.5133 48.8172 71.3717 48.8295 71.2058C48.836 71.1216 48.843 71.0309 48.8504 70.9347C48.864 70.8388 48.8859 70.7376 48.9052 70.6301C48.9457 70.4144 48.9908 70.1752 49.0399 69.9142C49.1053 69.6562 49.1905 69.3795 49.2749 69.0802C49.4599 68.4871 49.7128 67.8237 50.0405 67.1139C50.6825 65.6851 51.6452 64.0879 52.6513 62.2881C53.1444 61.3834 53.663 60.4308 54.0768 59.3898C54.4943 58.3532 54.8325 57.2362 54.956 56.0566C55.1751 53.6859 54.5516 51.4185 53.6122 49.6007C52.6711 47.7659 51.4063 46.365 50.2513 45.3282C49.0884 44.2899 48.0261 43.5962 47.2826 43.1432C46.9103 42.9159 46.6153 42.7491 46.4144 42.638C46.3185 42.584 46.2432 42.5415 46.1865 42.5097C46.1356 42.4802 46.1099 42.4642 46.1108 42.4624C46.1117 42.4606 46.1393 42.4728 46.1923 42.4988C46.2504 42.5281 46.3276 42.5669 46.4259 42.6164C46.6311 42.7206 46.9301 42.881 47.307 43.1025C48.0597 43.5438 49.1329 44.2286 50.309 45.2637C51.477 46.2971 52.7578 47.7014 53.7126 49.5491C53.9535 50.0082 54.1712 50.4941 54.359 51.0033C54.5515 51.5107 54.7127 52.0428 54.8356 52.5939C55.0916 53.6935 55.1833 54.8739 55.078 56.0685C54.9531 57.2641 54.6099 58.3922 54.188 59.4354C53.7694 60.4833 53.2469 61.4381 52.7501 62.3433C51.7367 64.1435 50.7685 65.7322 50.1193 67.1507C49.7878 67.8556 49.5305 68.5134 49.3404 69.1015C49.2535 69.3982 49.1653 69.6728 49.097 69.9285C49.0442 70.1875 48.9961 70.4247 48.9525 70.6388C48.9316 70.7456 48.9078 70.846 48.8927 70.9413C48.8833 71.037 48.8745 71.1268 48.8662 71.2107C48.8494 71.3758 48.835 71.5166 48.8233 71.6331C48.8112 71.7424 48.8017 71.8285 48.7943 71.8931C48.7864 71.9507 48.7817 71.9809 48.7797 71.9806Z" fill="#371B63"/>
</g>
</g>
<g id="Group_20">
<g id="Group_21">
<path id="Vector_13" d="M48.8523 76.6762C48.8565 76.6765 48.8588 76.7179 48.8594 76.7966C48.8585 76.8891 48.8573 77.0022 48.856 77.1396C48.8509 77.2882 48.8479 77.4702 48.8598 77.6813C48.8694 77.8923 48.8673 78.1327 48.8986 78.397C48.9108 78.5297 48.9234 78.6681 48.9366 78.812C48.9508 78.9562 48.979 79.1045 49.0004 79.259C49.0387 79.569 49.1146 79.8939 49.1863 80.2371C49.3522 80.9186 49.5828 81.6561 49.9004 82.4009C50.2262 83.1427 50.6063 83.8159 50.9895 84.403C51.1908 84.6902 51.3756 84.9682 51.5753 85.2083C51.6733 85.3297 51.7621 85.452 51.8575 85.5609C51.9533 85.6691 52.0457 85.773 52.1339 85.8727C52.305 86.0765 52.4819 86.2395 52.629 86.3909C52.7747 86.5439 52.9093 86.6663 53.0211 86.7644C53.1223 86.8574 53.2053 86.9339 53.2736 86.9966C53.3305 87.0507 53.3591 87.0809 53.3566 87.0842C53.3538 87.0876 53.32 87.0639 53.2581 87.0158C53.1859 86.9577 53.0972 86.8866 52.9901 86.8004C52.8728 86.7074 52.733 86.5898 52.5818 86.4405C52.4291 86.293 52.2469 86.1331 52.0705 85.9317C51.9795 85.8329 51.8847 85.7299 51.7861 85.623C51.6878 85.5148 51.5965 85.3931 51.4961 85.2722C51.2913 85.0327 51.1015 84.7548 50.8958 84.4665C50.5037 83.8773 50.1168 83.1989 49.7879 82.4501C49.4671 81.6981 49.2374 80.9518 49.0762 80.2627C49.0069 79.9155 48.9341 79.587 48.8997 79.2738C48.8802 79.1178 48.854 78.9678 48.8423 78.8223C48.8318 78.6771 48.8215 78.5375 48.8118 78.4035C48.7858 78.1371 48.7941 77.8946 48.791 77.6824C48.7857 77.4701 48.7956 77.2876 48.8082 77.1384C48.8186 77.0011 48.8276 76.888 48.8348 76.7956C48.8421 76.7168 48.8479 76.6759 48.8523 76.6762Z" fill="#371B63"/>
</g>
</g>
</g>
<g id="Group_22">
<g id="Group_23">
<path id="Vector_14" d="M77.0802 67.6973C77.0821 67.6984 77.0734 67.7163 77.055 67.7507C77.0323 67.791 77.0046 67.8404 76.9702 67.9016C76.8882 68.0415 76.7759 68.2333 76.6338 68.476C76.5595 68.6013 76.4775 68.7393 76.388 68.8898C76.2935 69.0382 76.1798 69.1922 76.0635 69.3613C75.8244 69.6953 75.5729 70.0915 75.2353 70.4847C75.0721 70.6858 74.9014 70.8962 74.7237 71.1155C74.544 71.3335 74.3346 71.5403 74.13 71.7654C73.7279 72.2233 73.243 72.6578 72.7447 73.1269C71.7151 74.0281 70.508 74.9356 69.1453 75.7376C67.7728 76.5237 66.3857 77.1222 65.0926 77.5699C64.4381 77.7704 63.8204 77.976 63.2232 78.0983C62.9262 78.1645 62.6425 78.2436 62.3643 78.2916C62.0857 78.3374 61.8184 78.3813 61.5627 78.4235C61.0542 78.5217 60.5853 78.5439 60.1767 78.5859C59.972 78.6031 59.782 78.6252 59.6064 78.6338C59.4314 78.6368 59.2707 78.6394 59.1251 78.6421C58.8437 78.6451 58.6217 78.6477 58.4594 78.6495C58.3895 78.6491 58.3327 78.6485 58.2865 78.6483C58.2476 78.6473 58.2276 78.6459 58.2277 78.6437C58.2276 78.6416 58.2476 78.639 58.2867 78.6359C58.3328 78.633 58.3895 78.6293 58.4594 78.6249C58.621 78.6175 58.8427 78.6074 59.1232 78.5946C59.2683 78.5888 59.4283 78.5826 59.6027 78.5755C59.7776 78.5636 59.9667 78.5379 60.1705 78.5175C60.5771 78.4691 61.0434 78.4413 61.5491 78.3377C61.8031 78.2935 62.069 78.2469 62.3457 78.1986C62.6223 78.1483 62.9041 78.067 63.199 77.9992C63.7925 77.8733 64.406 77.665 65.0561 77.4628C66.3406 77.0117 67.7184 76.4133 69.0833 75.6315C70.4385 74.8339 71.6407 73.9342 72.6692 73.0422C73.167 72.5779 73.6521 72.1483 74.0554 71.6955C74.2606 71.473 74.471 71.2685 74.6517 71.0533C74.8308 70.8367 75.0027 70.6289 75.1673 70.4302C75.5078 70.0425 75.7633 69.6512 76.0069 69.322C76.1255 69.1551 76.2416 69.0035 76.3387 68.8575C76.4312 68.7094 76.5159 68.5737 76.5928 68.4505C76.743 68.2133 76.8619 68.0256 76.9482 67.8889C76.9867 67.8304 77.0182 67.7829 77.0434 67.7442C77.0661 67.7122 77.0783 67.6962 77.0802 67.6973Z" fill="#371B63"/>
</g>
</g>
<g id="Group_24">
<g id="Group_25">
<path id="Vector_15" d="M55.3725 22.8396C55.3743 22.8405 55.367 22.8625 55.3508 22.9045C55.3315 22.9526 55.307 23.0137 55.2763 23.0899C55.2049 23.26 55.1055 23.497 54.9791 23.7984C54.7182 24.4123 54.3421 25.3014 53.8457 26.3869C53.3457 27.4699 52.7242 28.7526 51.8843 30.0934C51.4513 30.7538 50.9826 31.4431 50.4037 32.0836C49.8281 32.7244 49.1671 33.3358 48.3988 33.8378C46.8459 34.8278 45.0941 35.2541 43.5157 35.3209C42.7236 35.3489 41.9718 35.3061 41.272 35.2387C40.5738 35.1584 39.9258 35.0656 39.3386 34.9581C38.1633 34.7487 37.2199 34.5435 36.5673 34.406C36.248 34.3371 35.9969 34.2827 35.8165 34.2438C35.7365 34.2253 35.6726 34.2104 35.6219 34.1986C35.5782 34.1877 35.5559 34.1813 35.5564 34.1792C35.5568 34.1771 35.5799 34.1795 35.6243 34.1863C35.6757 34.195 35.7404 34.206 35.8215 34.2196C36.0028 34.2532 36.2555 34.2998 36.5769 34.3593C37.2324 34.4825 38.1784 34.6748 39.3534 34.8729C39.9405 34.9748 40.587 35.0619 41.2825 35.1376C41.9791 35.2003 42.7262 35.2389 43.5109 35.208C45.0735 35.1356 46.8017 34.7101 48.3325 33.7346C49.0893 33.24 49.7432 32.6371 50.3142 32.0036C50.8887 31.3707 51.3564 30.6875 51.7894 30.0324C52.63 28.7023 53.2582 27.4268 53.7674 26.3501C54.2732 25.271 54.6613 24.3871 54.9356 23.779C55.0709 23.4817 55.1773 23.2477 55.254 23.0799C55.289 23.0058 55.3173 22.9462 55.3397 22.8994C55.3595 22.8591 55.3706 22.8388 55.3725 22.8396Z" fill="#371B63"/>
</g>
</g>
<g id="Group_26" opacity="0.24">
<g id="Group_27">
<path id="Vector_16" d="M61.565 78.4232C62.1304 77.1338 63.6047 76.5664 64.9528 76.16C66.3006 75.7536 67.7447 75.5018 68.8749 74.6621C69.7266 74.0294 70.3247 73.1134 71.1272 72.4191C71.9296 71.7249 73.1134 71.2674 74.0455 71.7744C70.7525 75.2634 66.2978 77.6367 61.565 78.4232Z" fill="#371B63"/>
</g>
</g>
</g>
</g>
<line id="Line 8" x1="7.73783" y1="20.7384" x2="13.2316" y2="20.4768" stroke="black" stroke-width="0.5" stroke-linecap="round"/>
<line id="Line 11" x1="9.65099" y1="14.2571" x2="14.8004" y2="16.1893" stroke="black" stroke-width="0.5" stroke-linecap="round"/>
<line id="Line 9" x1="7.97572" y1="26.2762" x2="13.1245" y2="24.3423" stroke="black" stroke-width="0.5" stroke-linecap="round"/>
<line id="Line 10" x1="12.503" y1="31.5156" x2="16.4254" y2="27.66" stroke="black" stroke-width="0.5" stroke-linecap="round"/>
<path id="Vector_17" d="M77 44.25C77 44.8928 76.8094 45.5211 76.4523 46.0556C76.0952 46.5901 75.5876 47.0066 74.9937 47.2526C74.3999 47.4986 73.7464 47.563 73.116 47.4376C72.4855 47.3121 71.9064 47.0026 71.4519 46.5481C70.9974 46.0936 70.6879 45.5145 70.5625 44.884C70.437 44.2536 70.5014 43.6001 70.7474 43.0063C70.9934 42.4124 71.4099 41.9048 71.9444 41.5477C72.4789 41.1906 73.1072 41 73.75 41C74.612 41 75.4386 41.3424 76.0481 41.9519C76.6576 42.5614 77 43.388 77 44.25Z" fill="white"/>
<path id="Vector_18" d="M81.5 39.5C81.5 39.7967 81.412 40.0867 81.2472 40.3334C81.0824 40.58 80.8481 40.7723 80.574 40.8858C80.2999 40.9993 79.9983 41.0291 79.7074 40.9712C79.4164 40.9133 79.1491 40.7704 78.9393 40.5607C78.7296 40.3509 78.5867 40.0836 78.5288 39.7926C78.4709 39.5017 78.5006 39.2001 78.6142 38.926C78.7277 38.6519 78.92 38.4176 79.1666 38.2528C79.4133 38.088 79.7033 38 80 38C80.3978 38 80.7794 38.158 81.0607 38.4393C81.342 38.7206 81.5 39.1022 81.5 39.5Z" fill="white"/>
<path id="Vector_19" d="M44 69C44 69.2967 43.912 69.5867 43.7472 69.8334C43.5824 70.08 43.3481 70.2723 43.074 70.3858C42.7999 70.4993 42.4983 70.5291 42.2074 70.4712C41.9164 70.4133 41.6491 70.2704 41.4393 70.0607C41.2296 69.8509 41.0867 69.5836 41.0288 69.2926C40.9709 69.0017 41.0006 68.7001 41.1142 68.426C41.2277 68.1519 41.42 67.9176 41.6666 67.7528C41.9133 67.588 42.2033 67.5 42.5 67.5C42.8978 67.5 43.2794 67.658 43.5607 67.9393C43.842 68.2206 44 68.6022 44 69Z" fill="white"/>
</g>
<defs>
<clipPath id="clip0_918_2254">
<rect width="100" height="100" fill="white" transform="translate(0.5)"/>
</clipPath>
</defs>
</svg>
