<svg width="24" height="24" viewBox="0 0 24 24" fill="none" xmlns="http://www.w3.org/2000/svg">
<g id="Charminar">
<path id="Vector" d="M7.23404 17.5455C6.9617 17.5455 6.7234 17.8 6.7234 18.0909V18.8182C6.7234 18.9273 6.79149 19 6.89362 19H7.57447C7.6766 19 7.74468 18.9273 7.74468 18.8182V18.0909C7.74468 17.8 7.50638 17.5455 7.23404 17.5455ZM7.40426 18.6364H7.06383V18.0909C7.06383 17.9818 7.13191 17.9091 7.23404 17.9091C7.33617 17.9091 7.40426 17.9818 7.40426 18.0909V18.6364ZM7.23404 15.7273C6.9617 15.7273 6.7234 15.9818 6.7234 16.2727V17C6.7234 17.1091 6.79149 17.1818 6.89362 17.1818H7.57447C7.6766 17.1818 7.74468 17.1091 7.74468 17V16.2727C7.74468 15.9818 7.50638 15.7273 7.23404 15.7273ZM7.40426 16.8182H7.06383V16.2727C7.06383 16.1636 7.13191 16.0909 7.23404 16.0909C7.33617 16.0909 7.40426 16.1636 7.40426 16.2727V16.8182ZM4.85106 14.2727C4.95319 14.2727 5.02128 14.2 5.02128 14.0909V13.3636C5.02128 13.0727 4.78298 12.8182 4.51064 12.8182C4.2383 12.8182 4 13.0727 4 13.3636V14.0909C4 14.2 4.06809 14.2727 4.17021 14.2727H4.85106ZM4.34043 13.3636C4.34043 13.2545 4.40851 13.1818 4.51064 13.1818C4.61277 13.1818 4.68085 13.2545 4.68085 13.3636V13.9091H4.34043V13.3636ZM4.17021 12.4545H4.85106C4.95319 12.4545 5.02128 12.3818 5.02128 12.2727V11.5455C5.02128 11.2545 4.78298 11 4.51064 11C4.2383 11 4 11.2545 4 11.5455V12.2727C4 12.3818 4.06809 12.4545 4.17021 12.4545ZM4.34043 11.5455C4.34043 11.4364 4.40851 11.3636 4.51064 11.3636C4.61277 11.3636 4.68085 11.4364 4.68085 11.5455V12.0909H4.34043V11.5455ZM5.53191 14.2727H6.21277C6.31489 14.2727 6.38298 14.2 6.38298 14.0909V13.3636C6.38298 13.0727 6.14468 12.8182 5.87234 12.8182C5.6 12.8182 5.3617 13.0727 5.3617 13.3636V14.0909C5.3617 14.2 5.42979 14.2727 5.53191 14.2727ZM5.70213 13.3636C5.70213 13.2545 5.77021 13.1818 5.87234 13.1818C5.97447 13.1818 6.04255 13.2545 6.04255 13.3636V13.9091H5.70213V13.3636ZM5.53191 12.4545H6.21277C6.31489 12.4545 6.38298 12.3818 6.38298 12.2727V11.5455C6.38298 11.2545 6.14468 11 5.87234 11C5.6 11 5.3617 11.2545 5.3617 11.5455V12.2727C5.3617 12.3818 5.42979 12.4545 5.53191 12.4545ZM5.70213 11.5455C5.70213 11.4364 5.77021 11.3636 5.87234 11.3636C5.97447 11.3636 6.04255 11.4364 6.04255 11.5455V12.0909H5.70213V11.5455ZM18.1277 12.8182C17.8553 12.8182 17.617 13.0727 17.617 13.3636V14.0909C17.617 14.2 17.6851 14.2727 17.7872 14.2727H18.4681C18.5702 14.2727 18.6383 14.2 18.6383 14.0909V13.3636C18.6383 13.0727 18.4 12.8182 18.1277 12.8182ZM18.2979 13.9091H17.9574V13.3636C17.9574 13.2545 18.0255 13.1818 18.1277 13.1818C18.2298 13.1818 18.2979 13.2545 18.2979 13.3636V13.9091ZM18.1277 11C17.8553 11 17.617 11.2545 17.617 11.5455V12.2727C17.617 12.3818 17.6851 12.4545 17.7872 12.4545H18.4681C18.5702 12.4545 18.6383 12.3818 18.6383 12.2727V11.5455C18.6383 11.2545 18.4 11 18.1277 11ZM18.2979 12.0909H17.9574V11.5455C17.9574 11.4364 18.0255 11.3636 18.1277 11.3636C18.2298 11.3636 18.2979 11.4364 18.2979 11.5455V12.0909ZM19.4894 12.8182C19.217 12.8182 18.9787 13.0727 18.9787 13.3636V14.0909C18.9787 14.2 19.0468 14.2727 19.1489 14.2727H19.8298C19.9319 14.2727 20 14.2 20 14.0909V13.3636C20 13.0727 19.7617 12.8182 19.4894 12.8182ZM19.6596 13.9091H19.3191V13.3636C19.3191 13.2545 19.3872 13.1818 19.4894 13.1818C19.5915 13.1818 19.6596 13.2545 19.6596 13.3636V13.9091ZM18.9787 11.5455V12.2727C18.9787 12.3818 19.0468 12.4545 19.1489 12.4545H19.8298C19.9319 12.4545 20 12.3818 20 12.2727V11.5455C20 11.2545 19.7617 11 19.4894 11C19.217 11 18.9787 11.2545 18.9787 11.5455ZM19.6596 11.5455V12.0909H19.3191V11.5455C19.3191 11.4364 19.3872 11.3636 19.4894 11.3636C19.5915 11.3636 19.6596 11.4364 19.6596 11.5455Z" fill="#371B63" fill-opacity="0.6"/>
<path id="Vector_2" d="M20.8235 15.0938C20.9294 15.0938 21 15.025 21 14.9219V10.7969C21 10.6938 20.9294 10.625 20.8235 10.625H19.9412V8.21875H20.4706C20.5765 8.21875 20.6471 8.15 20.6471 8.04688V6.67188C20.6471 6.56875 20.5765 6.5 20.4706 6.5H19.9412V5.29688H20.1176C20.2235 5.29688 20.2941 5.22813 20.2941 5.125V4.09375C20.2941 3.99062 20.2235 3.92188 20.1176 3.92188H19.9412V2.7875C19.9412 2.40938 19.7647 2.06562 19.4118 1.85938L19.2353 1.75625V1.17188C19.2353 1.06875 19.1647 1 19.0588 1C18.9529 1 18.8824 1.06875 18.8824 1.17188V1.75625L18.7059 1.85938C18.3882 2.06562 18.1765 2.40938 18.1765 2.7875V3.92188H18C17.8941 3.92188 17.8235 3.99062 17.8235 4.09375V5.125C17.8235 5.22813 17.8941 5.29688 18 5.29688H18.1765V6.5H17.6471C17.5412 6.5 17.4706 6.56875 17.4706 6.67188V8.04688C17.4706 8.15 17.5412 8.21875 17.6471 8.21875H18.1765V8.5625H5.82353V8.21875H6.35294C6.45882 8.21875 6.52941 8.15 6.52941 8.04688V6.67188C6.52941 6.56875 6.45882 6.5 6.35294 6.5H5.82353V5.29688H6C6.10588 5.29688 6.17647 5.22813 6.17647 5.125V4.09375C6.17647 3.99062 6.10588 3.92188 6 3.92188H5.82353V2.7875C5.82353 2.40938 5.64706 2.06562 5.29412 1.85938L5.11765 1.75625V1.17188C5.11765 1.06875 5.04706 1 4.94118 1C4.83529 1 4.76471 1.06875 4.76471 1.17188V1.75625L4.58824 1.85938C4.27059 2.06562 4.05882 2.40938 4.05882 2.7875V3.92188H3.88235C3.77647 3.92188 3.70588 3.99062 3.70588 4.09375V5.125C3.70588 5.22813 3.77647 5.29688 3.88235 5.29688H4.05882V6.5H3.52941C3.42353 6.5 3.35294 6.56875 3.35294 6.67188V8.04688C3.35294 8.15 3.42353 8.21875 3.52941 8.21875H4.05882V10.625H3.17647C3.07059 10.625 3 10.6938 3 10.7969V14.9219C3 15.025 3.07059 15.0938 3.17647 15.0938H3.70588V22.6562H3.17647C3.07059 22.6562 3 22.725 3 22.8281C3 22.9312 3.07059 23 3.17647 23H20.8235C20.9294 23 21 22.9312 21 22.8281C21 22.725 20.9294 22.6562 20.8235 22.6562H20.2941V15.0938H20.8235ZM20.6471 14.75H17.4706V10.9688H20.6471V14.75ZM15.8824 14.75H15.3529V13.2031C15.3529 12.6875 15.7412 12.4469 15.8824 12.3438C16.0235 12.4125 16.4118 12.6531 16.4118 13.2031V14.75H15.8824ZM15.9529 12H15.8471C15.8118 12 15 12.3094 15 13.2031V14.75H14.6471V13.2031C14.6471 12.3094 13.8706 12.0344 13.8353 12H13.7294C13.6941 12 12.8824 12.3094 12.8824 13.2031V14.75H11.1176V13.2031C11.1176 12.3094 10.3412 12.0344 10.3059 12H10.2C10.1647 12 9.35294 12.3094 9.35294 13.2031V14.75H9V13.2031C9 12.3094 8.22353 12.0344 8.18824 12H8.08235C8.04706 12 7.23529 12.3094 7.23529 13.2031V14.75H6.88235V10.9688H7.23529V11.1406C7.23529 11.2437 7.30588 11.3125 7.41176 11.3125C7.51765 11.3125 7.58824 11.2437 7.58824 11.1406V10.9688H7.94118V11.1406C7.94118 11.2437 8.01177 11.3125 8.11765 11.3125C8.22353 11.3125 8.29412 11.2437 8.29412 11.1406V10.9688H8.64706V11.1406C8.64706 11.2437 8.71765 11.3125 8.82353 11.3125C8.92941 11.3125 9 11.2437 9 11.1406V10.9688H9.35294V11.1406C9.35294 11.2437 9.42353 11.3125 9.52941 11.3125C9.63529 11.3125 9.70588 11.2437 9.70588 11.1406V10.9688H10.0588V11.1406C10.0588 11.2437 10.1294 11.3125 10.2353 11.3125C10.3412 11.3125 10.4118 11.2437 10.4118 11.1406V10.9688H10.7647V11.1406C10.7647 11.2437 10.8353 11.3125 10.9412 11.3125C11.0471 11.3125 11.1176 11.2437 11.1176 11.1406V10.9688H11.4706V11.1406C11.4706 11.2437 11.5412 11.3125 11.6471 11.3125C11.7529 11.3125 11.8235 11.2437 11.8235 11.1406V10.9688H12.1765V11.1406C12.1765 11.2437 12.2471 11.3125 12.3529 11.3125C12.4588 11.3125 12.5294 11.2437 12.5294 11.1406V10.9688H12.8824V11.1406C12.8824 11.2437 12.9529 11.3125 13.0588 11.3125C13.1647 11.3125 13.2353 11.2437 13.2353 11.1406V10.9688H13.5882V11.1406C13.5882 11.2437 13.6588 11.3125 13.7647 11.3125C13.8706 11.3125 13.9412 11.2437 13.9412 11.1406V10.9688H14.2941V11.1406C14.2941 11.2437 14.3647 11.3125 14.4706 11.3125C14.5765 11.3125 14.6471 11.2437 14.6471 11.1406V10.9688H15V11.1406C15 11.2437 15.0706 11.3125 15.1765 11.3125C15.2824 11.3125 15.3529 11.2437 15.3529 11.1406V10.9688H15.7059V11.1406C15.7059 11.2437 15.7765 11.3125 15.8824 11.3125C15.9882 11.3125 16.0588 11.2437 16.0588 11.1406V10.9688H16.4118V11.1406C16.4118 11.2437 16.4824 11.3125 16.5882 11.3125C16.6941 11.3125 16.7647 11.2437 16.7647 11.1406V10.9688H17.1176V14.75H16.7647V13.2031C16.7647 12.3094 15.9882 12.0344 15.9529 12ZM13.2353 14.75V13.2031C13.2353 12.6875 13.6235 12.4469 13.7647 12.3438C13.9059 12.4125 14.2941 12.6531 14.2941 13.2031V14.75H13.2353ZM9.70588 14.75V13.2031C9.70588 12.6875 10.0941 12.4469 10.2353 12.3438C10.3765 12.4125 10.7647 12.6531 10.7647 13.2031V14.75H9.70588ZM8.11765 14.75H7.58824V13.2031C7.58824 12.6875 7.97647 12.4469 8.11765 12.3438C8.25882 12.4125 8.64706 12.6531 8.64706 13.2031V14.75H8.11765ZM5.82353 9.59375H18.1765V10.625H17.4706V10.4531C17.4706 10.1781 17.2235 9.9375 16.9412 9.9375C16.6588 9.9375 16.4118 10.1781 16.4118 10.4531V10.625H16.0588V10.4531C16.0588 10.1781 15.8118 9.9375 15.5294 9.9375C15.2471 9.9375 15 10.1781 15 10.4531V10.625H14.6471V10.4531C14.6471 10.1781 14.4 9.9375 14.1176 9.9375C13.8353 9.9375 13.5882 10.1781 13.5882 10.4531V10.625H13.2353V10.4531C13.2353 10.1781 12.9882 9.9375 12.7059 9.9375C12.4235 9.9375 12.1765 10.1781 12.1765 10.4531V10.625H11.8235V10.4531C11.8235 10.1781 11.5765 9.9375 11.2941 9.9375C11.0118 9.9375 10.7647 10.1781 10.7647 10.4531V10.625H10.4118V10.4531C10.4118 10.1781 10.1647 9.9375 9.88235 9.9375C9.6 9.9375 9.35294 10.1781 9.35294 10.4531V10.625H9V10.4531C9 10.1781 8.75294 9.9375 8.47059 9.9375C8.18824 9.9375 7.94118 10.1781 7.94118 10.4531V10.625H7.58824V10.4531C7.58824 10.1781 7.34118 9.9375 7.05882 9.9375C6.77647 9.9375 6.52941 10.1781 6.52941 10.4531V10.625H5.82353V9.59375ZM17.1176 10.625H16.7647V10.4531C16.7647 10.35 16.8353 10.2812 16.9412 10.2812C17.0471 10.2812 17.1176 10.35 17.1176 10.4531V10.625ZM15.7059 10.625H15.3529V10.4531C15.3529 10.35 15.4235 10.2812 15.5294 10.2812C15.6353 10.2812 15.7059 10.35 15.7059 10.4531V10.625ZM14.2941 10.625H13.9412V10.4531C13.9412 10.35 14.0118 10.2812 14.1176 10.2812C14.2235 10.2812 14.2941 10.35 14.2941 10.4531V10.625ZM12.8824 10.625H12.5294V10.4531C12.5294 10.35 12.6 10.2812 12.7059 10.2812C12.8118 10.2812 12.8824 10.35 12.8824 10.4531V10.625ZM11.4706 10.625H11.1176V10.4531C11.1176 10.35 11.1882 10.2812 11.2941 10.2812C11.4 10.2812 11.4706 10.35 11.4706 10.4531V10.625ZM10.0588 10.625H9.70588V10.4531C9.70588 10.35 9.77647 10.2812 9.88235 10.2812C9.98824 10.2812 10.0588 10.35 10.0588 10.4531V10.625ZM8.64706 10.625H8.29412V10.4531C8.29412 10.35 8.36471 10.2812 8.47059 10.2812C8.57647 10.2812 8.64706 10.35 8.64706 10.4531V10.625ZM7.23529 10.625H6.88235V10.4531C6.88235 10.35 6.95294 10.2812 7.05882 10.2812C7.16471 10.2812 7.23529 10.35 7.23529 10.4531V10.625ZM19.9412 4.95312H19.5882V4.78125C19.5882 4.67812 19.5176 4.60938 19.4118 4.60938C19.3059 4.60938 19.2353 4.67812 19.2353 4.78125V4.95312H18.8824V4.78125C18.8824 4.67812 18.8118 4.60938 18.7059 4.60938C18.6 4.60938 18.5294 4.67812 18.5294 4.78125V4.95312H18.1765V4.26562H19.9412V4.95312ZM18.8824 2.16875L19.0588 2.06563L19.2353 2.16875C19.4471 2.30625 19.5529 2.5125 19.5882 2.71875H18.5294C18.5647 2.47812 18.6706 2.27187 18.8824 2.16875ZM18.5294 3.0625H19.5882V3.92188H19.2353V3.57812C19.2353 3.475 19.1647 3.40625 19.0588 3.40625C18.9529 3.40625 18.8824 3.475 18.8824 3.57812V3.92188H18.5294V3.0625ZM18.5294 5.29688H19.5882V6.5H18.5294V5.29688ZM17.8235 7.875V6.84375H20.2941V7.875H19.9412V7.35938C19.9412 7.25625 19.8706 7.1875 19.7647 7.1875C19.6588 7.1875 19.5882 7.25625 19.5882 7.35938V7.875H19.2353V7.35938C19.2353 7.25625 19.1647 7.1875 19.0588 7.1875C18.9529 7.1875 18.8824 7.25625 18.8824 7.35938V7.875H18.5294V7.35938C18.5294 7.25625 18.4588 7.1875 18.3529 7.1875C18.2471 7.1875 18.1765 7.25625 18.1765 7.35938V7.875H17.8235ZM19.5882 8.21875V10.625H18.5294V8.21875H19.5882ZM18.1765 8.90625V9.25H5.82353V8.90625H18.1765ZM5.82353 4.95312H5.47059V4.78125C5.47059 4.67812 5.4 4.60938 5.29412 4.60938C5.18824 4.60938 5.11765 4.67812 5.11765 4.78125V4.95312H4.76471V4.78125C4.76471 4.67812 4.69412 4.60938 4.58824 4.60938C4.48235 4.60938 4.41176 4.67812 4.41176 4.78125V4.95312H4.05882V4.26562H5.82353V4.95312ZM4.76471 2.16875L4.94118 2.06563L5.11765 2.16875C5.32941 2.30625 5.43529 2.5125 5.47059 2.71875H4.41176C4.44706 2.47812 4.55294 2.27187 4.76471 2.16875ZM4.41176 3.0625H5.47059V3.92188H5.11765V3.57812C5.11765 3.475 5.04706 3.40625 4.94118 3.40625C4.83529 3.40625 4.76471 3.475 4.76471 3.57812V3.92188H4.41176V3.0625ZM4.41176 5.29688H5.47059V6.5H4.41176V5.29688ZM3.70588 7.875V6.84375H6.17647V7.875H5.82353V7.35938C5.82353 7.25625 5.75294 7.1875 5.64706 7.1875C5.54118 7.1875 5.47059 7.25625 5.47059 7.35938V7.875H5.11765V7.35938C5.11765 7.25625 5.04706 7.1875 4.94118 7.1875C4.83529 7.1875 4.76471 7.25625 4.76471 7.35938V7.875H4.41176V7.35938C4.41176 7.25625 4.34118 7.1875 4.23529 7.1875C4.12941 7.1875 4.05882 7.25625 4.05882 7.35938V7.875H3.70588ZM4.41176 8.21875H5.47059V10.625H4.41176V8.21875ZM3.35294 10.9688H6.52941V14.75H3.35294V10.9688ZM4.05882 15.0938H5.82353V22.6562H4.05882V15.0938ZM6.17647 15.0938H6.52941V15.2656C6.52941 15.3687 6.6 15.4375 6.70588 15.4375C6.81176 15.4375 6.88235 15.3687 6.88235 15.2656V15.0938H7.23529V15.2656C7.23529 15.3687 7.30588 15.4375 7.41176 15.4375C7.51765 15.4375 7.58824 15.3687 7.58824 15.2656V15.0938H7.94118V22.6562H6.17647V15.0938ZM8.29412 15.0938H8.64706V15.2656C8.64706 15.3687 8.71765 15.4375 8.82353 15.4375C8.92941 15.4375 9 15.3687 9 15.2656V15.0938H9.35294V15.2656C9.35294 15.3687 9.42353 15.4375 9.52941 15.4375C9.63529 15.4375 9.70588 15.3687 9.70588 15.2656V15.0938H10.0588V15.2656C10.0588 15.3687 10.1294 15.4375 10.2353 15.4375C10.3412 15.4375 10.4118 15.3687 10.4118 15.2656V15.0938H10.7647V15.2656C10.7647 15.3687 10.8353 15.4375 10.9412 15.4375C11.0471 15.4375 11.1176 15.3687 11.1176 15.2656V15.0938H11.4706V15.2656C11.4706 15.3687 11.5412 15.4375 11.6471 15.4375C11.7529 15.4375 11.8235 15.3687 11.8235 15.2656V15.0938H12.1765V15.2656C12.1765 15.3687 12.2471 15.4375 12.3529 15.4375C12.4588 15.4375 12.5294 15.3687 12.5294 15.2656V15.0938H12.8824V15.2656C12.8824 15.3687 12.9529 15.4375 13.0588 15.4375C13.1647 15.4375 13.2353 15.3687 13.2353 15.2656V15.0938H13.5882V15.2656C13.5882 15.3687 13.6588 15.4375 13.7647 15.4375C13.8706 15.4375 13.9412 15.3687 13.9412 15.2656V15.0938H14.2941V15.2656C14.2941 15.3687 14.3647 15.4375 14.4706 15.4375C14.5765 15.4375 14.6471 15.3687 14.6471 15.2656V15.0938H15V15.2656C15 15.3687 15.0706 15.4375 15.1765 15.4375C15.2824 15.4375 15.3529 15.3687 15.3529 15.2656V15.0938H15.7059V22.6562H15V19.2531C15 18.0844 14.3294 17.0187 13.1647 16.4L12.0706 15.8156C12 15.7812 11.9647 15.7812 11.8941 15.8156L10.8 16.4C9.67059 17.0187 8.96471 18.0844 8.96471 19.2531V22.6562H8.25882V15.0938H8.29412ZM14.6471 22.6562H9.35294V19.2531C9.35294 18.2219 9.95294 17.2594 10.9765 16.7094L12 16.1594L12.9882 16.7094C14.0118 17.2594 14.6471 18.2219 14.6471 19.2531V22.6562ZM16.0588 15.0938H16.4118V15.2656C16.4118 15.3687 16.4824 15.4375 16.5882 15.4375C16.6941 15.4375 16.7647 15.3687 16.7647 15.2656V15.0938H17.1176V15.2656C17.1176 15.3687 17.1882 15.4375 17.2941 15.4375C17.4 15.4375 17.4706 15.3687 17.4706 15.2656V15.0938H17.8235V22.6562H16.0588V15.0938ZM19.9412 22.6562H18.1765V15.0938H19.9412V22.6562Z" fill="#371B63" fill-opacity="0.6"/>
<path id="Vector_3" d="M9.41935 16.931C9.67742 16.931 9.90323 16.6655 9.90323 16.3621C9.90323 16.0586 9.67742 15.7931 9.41935 15.7931C9.16129 15.7931 8.93548 16.0586 8.93548 16.3621C8.93548 16.6655 9.16129 16.931 9.41935 16.931ZM9.41935 16.1724C9.51613 16.1724 9.58065 16.2483 9.58065 16.3621C9.58065 16.4759 9.51613 16.5517 9.41935 16.5517C9.32258 16.5517 9.25806 16.4759 9.25806 16.3621C9.25806 16.2483 9.32258 16.1724 9.41935 16.1724ZM14.5806 16.931C14.8387 16.931 15.0645 16.6655 15.0645 16.3621C15.0645 16.0586 14.8387 15.7931 14.5806 15.7931C14.3226 15.7931 14.0968 16.0586 14.0968 16.3621C14.0968 16.6655 14.3226 16.931 14.5806 16.931ZM14.5806 16.1724C14.6774 16.1724 14.7419 16.2483 14.7419 16.3621C14.7419 16.4759 14.6774 16.5517 14.5806 16.5517C14.4839 16.5517 14.4194 16.4759 14.4194 16.3621C14.4194 16.2483 14.4839 16.1724 14.5806 16.1724ZM12 12C11.7419 12 11.5161 12.2655 11.5161 12.569C11.5161 12.8724 11.7419 13.1379 12 13.1379C12.2581 13.1379 12.4839 12.8724 12.4839 12.569C12.4839 12.2655 12.2581 12 12 12ZM12 12.7586C11.9032 12.7586 11.8387 12.6828 11.8387 12.569C11.8387 12.4552 11.9032 12.3793 12 12.3793C12.0968 12.3793 12.1613 12.4552 12.1613 12.569C12.1613 12.6828 12.0968 12.7586 12 12.7586ZM7.48387 19.5862C7.22581 19.5862 7 19.8517 7 20.1552V20.9138C7 21.0276 7.06452 21.1034 7.16129 21.1034H7.80645C7.90323 21.1034 7.96774 21.0276 7.96774 20.9138V20.1552C7.96774 19.8517 7.74194 19.5862 7.48387 19.5862ZM7.64516 20.7241H7.32258V20.1552C7.32258 20.0414 7.3871 19.9655 7.48387 19.9655C7.58065 19.9655 7.64516 20.0414 7.64516 20.1552V20.7241ZM7.48387 21.4828C7.22581 21.4828 7 21.7483 7 22.0517V22.8103C7 22.9241 7.06452 23 7.16129 23H7.80645C7.90323 23 7.96774 22.9241 7.96774 22.8103V22.0517C7.96774 21.7483 7.74194 21.4828 7.48387 21.4828ZM7.64516 22.6207H7.32258V22.0517C7.32258 21.9379 7.3871 21.8621 7.48387 21.8621C7.58065 21.8621 7.64516 21.9379 7.64516 22.0517V22.6207ZM16.5161 15.7931C16.2581 15.7931 16.0323 16.0586 16.0323 16.3621V17.1207C16.0323 17.2345 16.0968 17.3103 16.1935 17.3103H16.8387C16.9355 17.3103 17 17.2345 17 17.1207V16.3621C17 16.0586 16.7742 15.7931 16.5161 15.7931ZM16.6774 16.931H16.3548V16.3621C16.3548 16.2483 16.4194 16.1724 16.5161 16.1724C16.6129 16.1724 16.6774 16.2483 16.6774 16.3621V16.931ZM16.5161 17.6897C16.2581 17.6897 16.0323 17.9552 16.0323 18.2586V19.0172C16.0323 19.131 16.0968 19.2069 16.1935 19.2069H16.8387C16.9355 19.2069 17 19.131 17 19.0172V18.2586C17 17.9552 16.7742 17.6897 16.5161 17.6897ZM16.6774 18.8276H16.3548V18.2586C16.3548 18.1448 16.4194 18.069 16.5161 18.069C16.6129 18.069 16.6774 18.1448 16.6774 18.2586V18.8276ZM16.5161 21.4828C16.2581 21.4828 16.0323 21.7483 16.0323 22.0517V22.8103C16.0323 22.9241 16.0968 23 16.1935 23H16.8387C16.9355 23 17 22.9241 17 22.8103V22.0517C17 21.7483 16.7742 21.4828 16.5161 21.4828ZM16.6774 22.6207H16.3548V22.0517C16.3548 21.9379 16.4194 21.8621 16.5161 21.8621C16.6129 21.8621 16.6774 21.9379 16.6774 22.0517V22.6207ZM16.5161 19.5862C16.2581 19.5862 16.0323 19.8517 16.0323 20.1552V20.9138C16.0323 21.0276 16.0968 21.1034 16.1935 21.1034H16.8387C16.9355 21.1034 17 21.0276 17 20.9138V20.1552C17 19.8517 16.7742 19.5862 16.5161 19.5862ZM16.6774 20.7241H16.3548V20.1552C16.3548 20.0414 16.4194 19.9655 16.5161 19.9655C16.6129 19.9655 16.6774 20.0414 16.6774 20.1552V20.7241Z" fill="#371B63" fill-opacity="0.6"/>
</g>
</svg>
