<svg width="101" height="100" viewBox="0 0 101 100" fill="none" xmlns="http://www.w3.org/2000/svg">
<g id="check circle">
<path id="Vector" d="M92.1667 49.9997C92.1667 73.0113 73.5117 91.6664 50.5 91.6664C27.4881 91.6664 8.83331 73.0113 8.83331 49.9997C8.83331 26.9878 27.4881 8.33301 50.5 8.33301C73.5117 8.33301 92.1667 26.9878 92.1667 49.9997Z" fill="#5119B7"/>
<path id="Vector_2" d="M67.2929 37.3733C68.5133 38.5937 68.5133 40.5723 67.2929 41.7926L46.4596 62.6259C45.2392 63.8463 43.2608 63.8463 42.0403 62.6259L33.707 54.2926C32.4866 53.0722 32.4866 51.0938 33.707 49.8734C34.9273 48.653 36.906 48.653 38.1264 49.8734L44.25 55.9967L53.5617 46.6851L62.8738 37.3733C64.0942 36.1529 66.0725 36.1529 67.2929 37.3733Z" fill="white"/>
</g>
</svg>
