<svg width="28" height="30" viewBox="0 0 28 30" fill="none" xmlns="http://www.w3.org/2000/svg">
<g id="check circle">
<g id="Vector" filter="url(#filter0_d_395_19046)">
<path d="M24 12C24 17.5228 19.5228 22 14 22C8.47715 22 4 17.5228 4 12C4 6.47715 8.47715 2 14 2C19.5228 2 24 6.47715 24 12Z" fill="black"/>
</g>
<path id="Vector_2" d="M18.0303 8.96967C18.3232 9.26256 18.3232 9.73744 18.0303 10.0303L13.0303 15.0303C12.7374 15.3232 12.2626 15.3232 11.9697 15.0303L9.96967 13.0303C9.67678 12.7374 9.67678 12.2626 9.96967 11.9697C10.2626 11.6768 10.7374 11.6768 11.0303 11.9697L12.5 13.4393L14.7348 11.2045L16.9697 8.96967C17.2626 8.67678 17.7374 8.67678 18.0303 8.96967Z" fill="white"/>
</g>
<defs>
<filter id="filter0_d_395_19046" x="0" y="2" width="28" height="28" filterUnits="userSpaceOnUse" color-interpolation-filters="sRGB">
<feFlood flood-opacity="0" result="BackgroundImageFix"/>
<feColorMatrix in="SourceAlpha" type="matrix" values="0 0 0 0 0 0 0 0 0 0 0 0 0 0 0 0 0 0 127 0" result="hardAlpha"/>
<feOffset dy="4"/>
<feGaussianBlur stdDeviation="2"/>
<feComposite in2="hardAlpha" operator="out"/>
<feColorMatrix type="matrix" values="0 0 0 0 0 0 0 0 0 0 0 0 0 0 0 0 0 0 0.25 0"/>
<feBlend mode="normal" in2="BackgroundImageFix" result="effect1_dropShadow_395_19046"/>
<feBlend mode="normal" in="SourceGraphic" in2="effect1_dropShadow_395_19046" result="shape"/>
</filter>
</defs>
</svg>
