<svg width="21" height="20" viewBox="0 0 21 20" fill="none" xmlns="http://www.w3.org/2000/svg">
<g id="start icon">
<g id="primary-shape">
<path d="M18.2814 8.88187C16.3694 5.46098 14.393 2.238 12.1226 6.96581C12.0319 7.14339 11.9483 7.36991 11.8628 7.60162C11.6558 8.16298 11.4375 8.7548 11.0785 8.7548V8.7488C10.7196 8.7488 10.5013 8.15702 10.2943 7.59568C10.2088 7.36395 10.1252 7.1374 10.0345 6.95981C7.76405 2.232 5.78762 5.45498 3.8756 8.87586L3.73869 9.12103C3.64468 9.28923 3.55535 9.44908 3.47521 9.59405L3.48974 9.58468L0.5 14.8536C1.70379 15.5987 3.26264 15.5705 4.5166 14.9679C5.11307 14.721 5.59806 14.2933 6.04262 13.7283C6.27839 13.4288 6.76096 12.6 7.49042 11.2418C7.62743 11.5081 7.76145 11.7844 7.89619 12.0621C8.68505 13.6884 9.49834 15.3649 11.0785 15.3949V15.4009C12.6587 15.3709 13.472 13.6943 14.2609 12.0681C15.2645 9.99924 16.2285 8.01187 18.6818 9.59998C18.5995 9.45109 18.5076 9.28655 18.4107 9.11329L18.4102 9.11232L18.2814 8.88187Z" fill="black"/>
<path d="M20.5 13.3726C20.5 14.4928 19.6119 15.4009 18.5165 15.4009C17.4211 15.4009 16.5331 14.4928 16.5331 13.3726C16.5331 12.2524 17.4211 11.3443 18.5165 11.3443C19.6119 11.3443 20.5 12.2524 20.5 13.3726Z" fill="black"/>
</g>
</g>
</svg>
