<svg width="21" height="20" viewBox="0 0 21 20" fill="none" xmlns="http://www.w3.org/2000/svg">
<g id="start icon">
<path id="Vector" d="M10.5 10C10.5 8.73615 10.9481 7.65643 11.8442 6.76087C12.7403 5.86532 13.82 5.41726 15.0833 5.41671C16.3467 5.41615 17.4267 5.86421 18.3233 6.76087C19.22 7.65754 19.6678 8.73726 19.6667 10H10.5ZM5.91668 14.5834C4.65279 14.5834 3.57307 14.1356 2.67751 13.24C1.78195 12.3445 1.3339 11.2645 1.33334 10H10.5C10.5 11.2639 10.0522 12.3439 9.15668 13.24C8.26112 14.1362 7.18112 14.5839 5.91668 14.5834ZM10.5 10C9.23612 10 8.1564 9.55226 7.26084 8.65671C6.36529 7.76115 5.91723 6.68115 5.91668 5.41671C5.91612 4.15226 6.36418 3.07254 7.26084 2.17754C8.15751 1.28254 9.23723 0.834485 10.5 0.833374V10ZM10.5 19.1667V10C11.7639 10 12.8439 10.4481 13.74 11.3442C14.6361 12.2403 15.0839 13.32 15.0833 14.5834C15.0828 15.8467 14.635 16.9267 13.74 17.8234C12.845 18.72 11.765 19.1678 10.5 19.1667Z" fill="#FF8D5C"/>
</g>
</svg>
