<svg width="221" height="189" viewBox="0 0 221 189" fill="none" xmlns="http://www.w3.org/2000/svg">
<g id="events/cuate">
<path id="Vector" d="M211.458 30.0783L210.114 27.8931C199.253 10.2195 179.838 -0.673332 159.105 0.0323374C155.815 0.144319 152.535 0.534692 149.309 1.21721C129.945 5.31047 113.095 19.7698 106.112 38.2886C102.004 49.1796 100.857 61.7196 93.0627 70.3641C82.9187 81.6147 65.6967 81.9682 50.5548 81.5021C35.4136 81.0361 18.1797 81.4333 8.08517 92.729C1.76292 99.8032 -0.246489 109.863 0.26337 119.336C1.6134 144.417 19.3121 166.844 41.8209 177.992C64.3298 189.139 90.8312 190.137 115.466 185.234C149.976 178.364 182.795 159.499 202.522 130.362C222.248 101.224 227.241 61.5269 211.458 30.0783Z" fill="#FFE8DE"/>
<g id="Calendar">
<path id="Vector_2" d="M53.9227 179.117V89.0762H173.695V179.117H53.9227Z" fill="white" stroke="#371B63" stroke-width="0.5"/>
<path id="Vector_3" d="M53.4227 89.0764L53.4227 179.117H47.5778L47.5778 89.0764H53.4227Z" fill="#DCD1F1" stroke="#371B63" stroke-width="0.5"/>
<path id="Vector_4" d="M53.9227 98.3438V89.0762H173.695V98.3438H53.9227Z" fill="#FF8D5C" stroke="#371B63" stroke-width="0.5"/>
<path id="Vector_5" d="M78.4113 108.315H66.4962V120.231H78.4113V108.315Z" fill="#FF8D5C"/>
<path id="Vector_6" opacity="0.8" d="M78.4113 108.315H66.4962V120.231H78.4113V108.315Z" fill="#DCD1F1"/>
<path id="Vector_7" d="M92.1891 108.315H80.274V120.231H92.1891V108.315Z" fill="#DCD1F1"/>
<path id="Vector_8" d="M105.982 108.315H94.067V120.231H105.982V108.315Z" fill="#DCD1F1"/>
<path id="Vector_9" d="M119.765 108.315H107.85V120.231H119.765V108.315Z" fill="#DCD1F1"/>
<path id="Vector_10" d="M133.551 108.315H121.636V120.231H133.551V108.315Z" fill="#DCD1F1"/>
<path id="Vector_11" d="M147.333 108.315H135.418V120.231H147.333V108.315Z" fill="#DCD1F1"/>
<path id="Vector_12" d="M161.118 108.315H149.203V120.231H161.118V108.315Z" fill="#DCD1F1"/>
<path id="Vector_13" d="M78.4113 121.79H66.4962V133.705H78.4113V121.79Z" fill="#FF8D5C"/>
<path id="Vector_14" opacity="0.8" d="M78.4113 121.79H66.4962V133.705H78.4113V121.79Z" fill="#DCD1F1"/>
<path id="Vector_15" d="M92.1969 121.79H80.2819V133.705H92.1969V121.79Z" fill="#DCD1F1"/>
<path id="Vector_16" d="M105.98 121.79H94.0645V133.705H105.98V121.79Z" fill="#DCD1F1"/>
<path id="Vector_17" d="M119.765 121.79H107.85V133.705H119.765V121.79Z" fill="#DCD1F1"/>
<path id="Vector_18" d="M133.551 121.79H121.636V133.705H133.551V121.79Z" fill="#DCD1F1"/>
<path id="Vector_19" d="M147.336 121.79H135.421V133.705H147.336V121.79Z" fill="#DCD1F1"/>
<path id="Vector_20" d="M161.118 121.79H149.203V133.705H161.118V121.79Z" fill="#DCD1F1"/>
<path id="Vector_21" d="M78.4113 135.265H66.4962V147.18H78.4113V135.265Z" fill="#FF8D5C"/>
<path id="Vector_22" opacity="0.8" d="M78.4113 135.265H66.4962V147.18H78.4113V135.265Z" fill="#DCD1F1"/>
<path id="Vector_23" d="M92.1969 135.265H80.2819V147.18H92.1969V135.265Z" fill="#DCD1F1"/>
<path id="Vector_24" d="M105.982 135.265H94.067V147.18H105.982V135.265Z" fill="#DCD1F1"/>
<path id="Vector_25" d="M119.765 135.265H107.85V147.18H119.765V135.265Z" fill="#DCD1F1"/>
<path id="Vector_26" d="M133.551 135.265H121.636V147.18H133.551V135.265Z" fill="#DCD1F1"/>
<path id="Vector_27" d="M147.333 135.265H135.418V147.18H147.333V135.265Z" fill="#DCD1F1"/>
<path id="Vector_28" d="M161.118 135.265H149.203V147.18H161.118V135.265Z" fill="#DCD1F1"/>
<path id="Vector_29" d="M78.4113 148.739H66.4962V160.654H78.4113V148.739Z" fill="#FF8D5C"/>
<path id="Vector_30" opacity="0.8" d="M78.4113 148.739H66.4962V160.654H78.4113V148.739Z" fill="#DCD1F1"/>
<path id="Vector_31" d="M92.1969 148.739H80.2819V160.654H92.1969V148.739Z" fill="#DCD1F1"/>
<path id="Vector_32" d="M105.98 148.739H94.0645V160.654H105.98V148.739Z" fill="#DCD1F1"/>
<path id="Vector_33" d="M119.765 148.739H107.85V160.654H119.765V148.739Z" fill="#DCD1F1"/>
<path id="Vector_34" d="M133.551 148.739H121.636V160.654H133.551V148.739Z" fill="#DCD1F1"/>
<path id="Vector_35" d="M147.336 148.739H135.421V160.654H147.336V148.739Z" fill="#DCD1F1"/>
<path id="Vector_36" d="M161.118 148.739H149.203V160.654H161.118V148.739Z" fill="#DCD1F1"/>
<path id="Vector_37" d="M78.4113 162.215H66.4962V174.13H78.4113V162.215Z" fill="#FF8D5C"/>
<path id="Vector_38" opacity="0.8" d="M78.4113 162.215H66.4962V174.13H78.4113V162.215Z" fill="#DCD1F1"/>
<path id="Vector_39" d="M92.1969 162.218H80.2819V174.133H92.1969V162.218Z" fill="#DCD1F1"/>
<path id="Vector_40" d="M105.98 162.215H94.0645V174.13H105.98V162.215Z" fill="#DCD1F1"/>
<path id="Vector_41" d="M119.765 162.215H107.85V174.13H119.765V162.215Z" fill="#DCD1F1"/>
<path id="Vector_42" d="M133.551 162.215H121.636V174.13H133.551V162.215Z" fill="#DCD1F1"/>
<path id="Vector_43" d="M147.333 162.215H135.418V174.13H147.333V162.215Z" fill="#DCD1F1"/>
<path id="Vector_44" d="M161.118 162.215H149.203V174.13H161.118V162.215Z" fill="#DCD1F1"/>
<path id="Vector_45" d="M71.0403 105.347C70.9842 105.287 70.9148 105.24 70.8376 105.211C70.7475 105.174 70.6505 105.156 70.5528 105.157C70.4314 105.147 70.3101 105.179 70.209 105.247C70.1737 105.276 70.1456 105.313 70.1269 105.355C70.1083 105.397 70.0995 105.443 70.1013 105.488C70.0985 105.535 70.1082 105.581 70.1295 105.622C70.1514 105.659 70.1823 105.69 70.2193 105.712C70.2676 105.74 70.3193 105.761 70.3733 105.776L70.5939 105.832C70.6809 105.848 70.7666 105.871 70.8505 105.899C70.9199 105.921 70.9856 105.953 71.0455 105.994C71.0974 106.028 71.1397 106.075 71.1686 106.13C71.1982 106.192 71.2123 106.261 71.2097 106.33C71.2113 106.404 71.1955 106.478 71.1635 106.546C71.1311 106.605 71.0855 106.656 71.0301 106.694C70.9691 106.737 70.9002 106.768 70.8274 106.784C70.7434 106.804 70.6572 106.814 70.5708 106.812C70.3087 106.818 70.0538 106.727 69.855 106.556L69.9422 106.412C69.9764 106.448 70.0143 106.479 70.0551 106.507C70.1528 106.572 70.2628 106.617 70.3784 106.638C70.4434 106.651 70.5096 106.658 70.5759 106.658C70.6913 106.665 70.8061 106.638 70.9069 106.581C70.9462 106.557 70.9781 106.522 70.9994 106.481C71.0206 106.44 71.0303 106.394 71.0275 106.348C71.0281 106.3 71.0166 106.252 70.9941 106.209C70.9698 106.168 70.9342 106.134 70.8915 106.112C70.8385 106.081 70.7815 106.056 70.7222 106.04C70.6555 106.02 70.5785 105.999 70.4887 105.979C70.3989 105.958 70.3142 105.935 70.2321 105.912C70.1694 105.891 70.1098 105.862 70.0551 105.825C70.009 105.791 69.9713 105.747 69.9448 105.696C69.9196 105.639 69.9073 105.577 69.9089 105.514C69.9077 105.438 69.9235 105.363 69.955 105.293C69.9847 105.23 70.0308 105.175 70.0885 105.134C70.148 105.089 70.216 105.056 70.2886 105.037C70.4774 104.983 70.6782 104.99 70.8633 105.055C70.9576 105.09 71.0445 105.142 71.1199 105.209L71.0403 105.347Z" fill="#371B63"/>
<path id="Vector_46" d="M72.243 106.652C72.3401 106.655 72.4363 106.633 72.5226 106.588C72.5944 106.547 72.6552 106.489 72.6997 106.419C72.7463 106.347 72.7785 106.267 72.7946 106.183C72.8107 106.094 72.8193 106.004 72.8202 105.913V105.013H72.9947V105.913C72.9953 106.028 72.9824 106.143 72.9562 106.254C72.9322 106.358 72.8877 106.456 72.8254 106.542C72.7653 106.625 72.686 106.691 72.5945 106.737C72.4833 106.786 72.3631 106.811 72.2417 106.811C72.1202 106.811 72.0001 106.786 71.8889 106.737C71.7966 106.69 71.7172 106.621 71.658 106.537C71.5972 106.45 71.5544 106.353 71.5323 106.249C71.5065 106.141 71.4936 106.03 71.4938 105.918V105.018H71.6657V105.918C71.666 106.011 71.6755 106.103 71.6939 106.193C71.7111 106.277 71.7433 106.357 71.7888 106.429C71.8334 106.497 71.8942 106.554 71.9659 106.593C72.0514 106.637 72.147 106.657 72.243 106.652Z" fill="#371B63"/>
<path id="Vector_47" d="M73.5948 105.341V106.796H73.4177V105.013H73.5537L74.7339 106.498V105.015H74.911V106.796H74.757L73.5948 105.341Z" fill="#371B63"/>
<path id="Vector_48" d="M85.0278 106.797V105.327L84.3762 106.458H84.2735L83.6219 105.327V106.789H83.4474V105.006H83.627L84.3249 106.227L85.0253 105.006H85.2023V106.789L85.0278 106.797Z" fill="#371B63"/>
<path id="Vector_49" d="M86.3699 106.81C86.2516 106.811 86.1347 106.785 86.0286 106.733C85.9299 106.684 85.8425 106.615 85.7721 106.53C85.6973 106.445 85.639 106.347 85.6001 106.24C85.5595 106.134 85.5386 106.021 85.5386 105.907C85.539 105.79 85.5608 105.674 85.6027 105.565C85.6444 105.459 85.7043 105.361 85.7798 105.276C85.8523 105.194 85.9392 105.126 86.0363 105.075C86.1397 105.026 86.2528 105.001 86.3673 105.001C86.4857 105 86.6026 105.028 86.7085 105.081C86.8064 105.133 86.8935 105.204 86.9651 105.288C87.0376 105.375 87.0949 105.473 87.1344 105.578C87.1751 105.684 87.1959 105.796 87.196 105.909C87.1961 106.141 87.1102 106.365 86.9548 106.538C86.8824 106.62 86.7954 106.688 86.6983 106.738C86.5954 106.786 86.4833 106.81 86.3699 106.81ZM85.7079 105.907C85.7072 106.002 85.7237 106.097 85.7567 106.186C85.7865 106.274 85.8327 106.355 85.8926 106.425C85.9492 106.495 86.0201 106.552 86.1005 106.592C86.184 106.634 86.2764 106.655 86.3699 106.653C86.4646 106.654 86.5581 106.631 86.6418 106.587C86.7221 106.544 86.7935 106.487 86.8522 106.417C86.9673 106.271 87.0297 106.09 87.0292 105.904C87.03 105.809 87.0134 105.714 86.9805 105.624C86.9486 105.538 86.9027 105.457 86.8445 105.386C86.7864 105.317 86.7148 105.261 86.6341 105.222C86.5504 105.18 86.4582 105.159 86.3647 105.159C86.2713 105.159 86.1791 105.18 86.0953 105.222C86.0153 105.264 85.9447 105.321 85.8875 105.391C85.8292 105.462 85.784 105.543 85.7541 105.63C85.723 105.719 85.7074 105.812 85.7079 105.907Z" fill="#371B63"/>
<path id="Vector_50" d="M87.7143 105.341V106.796H87.5372V105.013H87.6732L88.8534 106.498V105.015H89.0305V106.796H88.8765L87.7143 105.341Z" fill="#371B63"/>
<path id="Vector_51" d="M99.0342 105.169H98.3979V106.796H98.2209V105.169H97.5872V105.013H99.0342V105.169Z" fill="#371B63"/>
<path id="Vector_52" d="M100.022 106.652C100.12 106.655 100.217 106.633 100.304 106.588C100.376 106.547 100.437 106.489 100.481 106.419C100.526 106.346 100.557 106.266 100.574 106.183C100.592 106.094 100.601 106.004 100.602 105.913V105.013H100.776V105.913C100.777 106.028 100.764 106.143 100.735 106.254C100.712 106.358 100.668 106.456 100.607 106.542C100.546 106.625 100.466 106.692 100.373 106.737C100.265 106.788 100.145 106.813 100.025 106.809C99.9019 106.813 99.7802 106.786 99.6704 106.732C99.5774 106.685 99.4973 106.616 99.437 106.532C99.3772 106.445 99.3345 106.347 99.3113 106.244C99.2864 106.136 99.2743 106.025 99.2753 105.913V105.013H99.4395V105.913C99.4399 106.005 99.4494 106.097 99.4678 106.188C99.4838 106.272 99.5161 106.352 99.5627 106.424C99.6073 106.492 99.6681 106.549 99.7397 106.588C99.8257 106.636 99.9237 106.658 100.022 106.652Z" fill="#371B63"/>
<path id="Vector_53" d="M102.395 106.642V106.796H101.197V105.013H102.372V105.169H101.372V105.813H102.244V105.959H101.372V106.642H102.395Z" fill="#371B63"/>
<path id="Vector_54" d="M111.724 105.026H111.891L112.148 105.659L112.404 105.026H112.571L112.261 105.795L112.602 106.601L113.248 105.021H113.438L112.684 106.804H112.525L112.15 105.924L111.773 106.804H111.619L110.867 105.021H111.055L111.704 106.601L112.043 105.795L111.724 105.026Z" fill="#371B63"/>
<path id="Vector_55" d="M114.88 106.642V106.796H113.682V105.013H114.857V105.169H113.859V105.813H114.731V105.959H113.859V106.642H114.88Z" fill="#371B63"/>
<path id="Vector_56" d="M115.214 106.796V105.013H115.817C115.945 105.01 116.073 105.034 116.191 105.085C116.289 105.129 116.376 105.194 116.448 105.275C116.519 105.357 116.573 105.453 116.607 105.557C116.643 105.669 116.662 105.786 116.661 105.903C116.663 106.028 116.643 106.152 116.602 106.27C116.565 106.375 116.506 106.471 116.43 106.552C116.354 106.631 116.262 106.692 116.16 106.732C116.048 106.777 115.927 106.798 115.806 106.796H115.214ZM116.496 105.903C116.498 105.803 116.482 105.703 116.45 105.608C116.422 105.523 116.377 105.444 116.319 105.375C116.26 105.309 116.188 105.258 116.106 105.223C116.015 105.186 115.916 105.168 115.817 105.169H115.388V106.642H115.817C115.918 106.644 116.018 106.624 116.112 106.586C116.193 106.55 116.265 106.497 116.322 106.429C116.381 106.361 116.425 106.282 116.453 106.196C116.482 106.101 116.497 106.002 116.496 105.903Z" fill="#371B63"/>
<path id="Vector_57" d="M126.441 105.169H125.805V106.796H125.628V105.169H124.994V105.013H126.441V105.169Z" fill="#371B63"/>
<path id="Vector_58" d="M128.114 105.013V106.796H127.939V105.962H126.893V106.796H126.716V105.013H126.893V105.808H127.95V105.013H128.114Z" fill="#371B63"/>
<path id="Vector_59" d="M129.284 106.652C129.381 106.655 129.477 106.633 129.564 106.588C129.636 106.547 129.698 106.489 129.743 106.419C129.788 106.346 129.819 106.266 129.835 106.183C129.853 106.094 129.862 106.004 129.861 105.913V105.013H130.038V105.913C130.039 106.028 130.025 106.143 129.997 106.254C129.974 106.358 129.93 106.456 129.869 106.542C129.808 106.625 129.728 106.691 129.635 106.737C129.526 106.788 129.407 106.813 129.286 106.809C129.164 106.813 129.042 106.786 128.932 106.732C128.839 106.685 128.759 106.616 128.699 106.532C128.639 106.445 128.596 106.347 128.573 106.244C128.547 106.136 128.535 106.025 128.535 105.913V105.013H128.709V105.913C128.708 106.006 128.718 106.098 128.737 106.188C128.754 106.271 128.785 106.351 128.83 106.424C128.879 106.498 128.947 106.558 129.027 106.598C129.106 106.638 129.195 106.657 129.284 106.652Z" fill="#371B63"/>
<path id="Vector_60" d="M139.72 106.796V105.013H140.89V105.169H139.897V105.839H140.747V105.983H139.908V106.809L139.72 106.796Z" fill="#371B63"/>
<path id="Vector_61" d="M141.209 106.796V105.013H141.964C142.036 105.013 142.108 105.029 142.174 105.061C142.237 105.094 142.293 105.137 142.341 105.19C142.436 105.295 142.489 105.432 142.49 105.575C142.489 105.638 142.48 105.701 142.461 105.762C142.443 105.818 142.416 105.872 142.382 105.921C142.348 105.969 142.305 106.01 142.256 106.042C142.207 106.076 142.151 106.098 142.092 106.108L142.531 106.796H142.33L141.912 106.139H141.384V106.796H141.209ZM141.384 105.983H141.966C142.016 105.984 142.065 105.972 142.11 105.949C142.152 105.926 142.189 105.895 142.218 105.857C142.248 105.817 142.273 105.773 142.289 105.726C142.306 105.677 142.314 105.626 142.315 105.575C142.315 105.521 142.305 105.468 142.284 105.418C142.25 105.324 142.181 105.247 142.092 105.203C142.049 105.18 142.001 105.169 141.953 105.169H141.384V105.983Z" fill="#371B63"/>
<path id="Vector_62" d="M142.849 106.796V105.013H143.026V106.796H142.849Z" fill="#371B63"/>
<path id="Vector_63" d="M154.189 105.346C154.133 105.286 154.063 105.239 153.986 105.211C153.896 105.173 153.799 105.155 153.701 105.157C153.579 105.147 153.457 105.179 153.355 105.246C153.32 105.276 153.292 105.313 153.273 105.354C153.254 105.396 153.245 105.442 153.247 105.488C153.246 105.532 153.256 105.576 153.277 105.615C153.297 105.654 153.328 105.687 153.365 105.711C153.415 105.738 153.467 105.76 153.522 105.775L153.742 105.831C153.829 105.848 153.915 105.87 153.999 105.898C154.068 105.92 154.132 105.952 154.191 105.993C154.243 106.028 154.286 106.074 154.317 106.129C154.347 106.191 154.361 106.26 154.358 106.329C154.36 106.404 154.344 106.477 154.312 106.545C154.28 106.604 154.234 106.655 154.179 106.693C154.117 106.737 154.047 106.767 153.973 106.783C153.889 106.804 153.803 106.813 153.717 106.812C153.454 106.817 153.198 106.726 152.998 106.555L153.088 106.411C153.122 106.447 153.16 106.479 153.201 106.506C153.299 106.572 153.409 106.616 153.524 106.637C153.588 106.65 153.654 106.657 153.719 106.658C153.835 106.664 153.951 106.638 154.053 106.581C154.092 106.556 154.124 106.522 154.145 106.48C154.166 106.439 154.176 106.393 154.173 106.347C154.175 106.298 154.162 106.25 154.137 106.209C154.114 106.167 154.079 106.134 154.037 106.111C153.984 106.08 153.927 106.056 153.868 106.039C153.801 106.019 153.724 105.998 153.635 105.978C153.545 105.957 153.46 105.934 153.378 105.911C153.315 105.89 153.256 105.861 153.201 105.824C153.155 105.79 153.117 105.746 153.091 105.695C153.065 105.638 153.053 105.576 153.055 105.513C153.054 105.437 153.069 105.362 153.101 105.293C153.131 105.229 153.175 105.175 153.232 105.134C153.293 105.088 153.361 105.055 153.434 105.036C153.518 105.012 153.604 104.999 153.691 105C153.799 104.998 153.906 105.017 154.007 105.054C154.101 105.089 154.188 105.141 154.263 105.208L154.189 105.346Z" fill="#371B63"/>
<path id="Vector_64" d="M155.192 105.013H155.341L156.082 106.796H155.885L155.654 106.239H154.859L154.63 106.796H154.44L155.192 105.013ZM155.628 106.095L155.269 105.215L154.902 106.095H155.628Z" fill="#371B63"/>
<path id="Vector_65" d="M157.425 105.169H156.788V106.796H156.614V105.169H155.978V105.013H157.425V105.169Z" fill="#371B63"/>
<path id="Vector_66" d="M90.0617 110.672H82.4031V111.267H90.0617V110.672Z" fill="#5119B7"/>
<path id="Vector_67" d="M86.7365 111.979H82.4031V112.574H86.7365V111.979Z" fill="#5119B7"/>
<path id="Vector_68" d="M103.73 164.545H96.0709V165.14H103.73V164.545Z" fill="#5119B7"/>
<path id="Vector_69" d="M100.404 165.849H96.0709V166.444H100.404V165.849Z" fill="#5119B7"/>
<path id="Vector_70" d="M131.239 150.832H123.58V151.427H131.239V150.832Z" fill="#5119B7"/>
<path id="Vector_71" d="M127.59 153.442H123.58V154.038H127.59V153.442Z" fill="#5119B7"/>
<path id="Vector_72" d="M129.102 152.136H123.58V152.731H129.102V152.136Z" fill="#5119B7"/>
<path id="Vector_73" d="M99.8858 140.104H95.8756V140.699H99.8858V140.104Z" fill="#5119B7"/>
<path id="Vector_74" d="M101.397 138.802H95.8756V139.397H101.397V138.802Z" fill="#5119B7"/>
<path id="Vector_75" d="M105.541 138.182L105.51 138.118C105.574 138.254 105.538 138.18 105.541 138.182Z" fill="#371B63"/>
<path id="Vector_76" d="M106.038 139.573L106.03 139.547L106.082 139.76L106.038 139.573Z" fill="#371B63"/>
<path id="Vector_77" d="M106.18 140.944C106.192 140.695 106.182 140.446 106.149 140.2V140.159C106.145 140.122 106.138 140.086 106.129 140.051C106.173 140.346 106.19 140.645 106.18 140.944Z" fill="#371B63"/>
<path id="Vector_78" d="M106.077 141.669C106.09 141.625 106.056 141.825 106.108 141.502V141.533C106.095 141.561 106.09 141.602 106.077 141.669Z" fill="#371B63"/>
<path id="Vector_79" d="M106.11 141.532C106.092 141.624 106.136 141.388 106.11 141.532V141.532Z" fill="#371B63"/>
<path id="Vector_80" d="M105.951 142.18C105.971 142.121 105.988 142.06 106 141.998C105.989 142.046 105.973 142.092 105.954 142.137C105.897 142.321 105.913 142.285 105.951 142.18Z" fill="#371B63"/>
<path id="Vector_81" d="M105.908 142.355L105.936 142.263C105.923 142.292 105.914 142.323 105.908 142.355Z" fill="#371B63"/>
<path id="Vector_82" d="M105.995 142.062L105.936 142.262C105.95 142.233 105.959 142.201 105.962 142.169C105.962 142.187 105.969 142.146 105.995 142.062Z" fill="#371B63"/>
<path id="Vector_83" d="M106.026 141.946C106.051 141.843 106.087 141.71 106.046 141.897C106.07 141.813 106.085 141.727 106.092 141.641C106.09 141.666 106.069 141.759 106.026 141.946Z" fill="#371B63"/>
<path id="Vector_84" d="M106.19 141.015V140.871V140.748C106.195 140.81 106.185 141.025 106.19 141.015Z" fill="#371B63"/>
<path id="Vector_85" d="M105.443 143.239C105.443 143.252 105.484 143.19 105.497 143.18L105.564 143.06C105.525 143.119 105.453 143.234 105.443 143.239Z" fill="#371B63"/>
<path id="Vector_86" d="M105.498 143.18C105.464 143.242 105.426 143.302 105.385 143.359C105.498 143.208 105.503 143.172 105.498 143.18Z" fill="#371B63"/>
<path id="Vector_87" d="M105.91 142.393L106.008 142.06C105.967 142.19 105.936 142.316 105.887 142.455L105.91 142.393Z" fill="#371B63"/>
<path id="Vector_88" d="M104.945 143.86L105.02 143.768L104.884 143.929L104.945 143.86Z" fill="#371B63"/>
<path id="Vector_89" d="M104.571 144.221C104.63 144.157 104.471 144.288 104.535 144.221L104.247 144.463C104.33 144.391 104.435 144.324 104.571 144.221Z" fill="#371B63"/>
<path id="Vector_90" d="M104.094 144.581C104.145 144.546 104.193 144.508 104.24 144.468C104.194 144.506 104.143 144.54 104.094 144.581Z" fill="#371B63"/>
<path id="Vector_91" d="M105.168 143.643C105.126 143.678 105.088 143.718 105.053 143.761L105.114 143.707L105.168 143.643Z" fill="#371B63"/>
<path id="Vector_92" d="M105.117 143.703C105.081 143.749 105.041 143.793 104.999 143.834C105.041 143.793 105.08 143.749 105.117 143.703Z" fill="#371B63"/>
<path id="Vector_93" d="M105.679 142.893C105.633 143.008 105.5 143.229 105.636 143.021C105.674 142.939 105.597 143.064 105.679 142.893Z" fill="#371B63"/>
<path id="Vector_94" d="M105.259 143.555C105.305 143.499 105.346 143.437 105.392 143.375C105.392 143.375 105.359 143.409 105.392 143.357C105.341 143.424 105.305 143.491 105.259 143.555Z" fill="#371B63"/>
<path id="Vector_95" d="M105.192 143.642L105.259 143.555L105.205 143.619L105.192 143.642Z" fill="#371B63"/>
<path id="Vector_96" d="M104.409 144.368C104.335 144.427 104.255 144.497 104.153 144.563C104.263 144.497 104.363 144.412 104.466 144.338C104.479 144.325 104.517 144.284 104.409 144.368Z" fill="#371B63"/>
<path id="Vector_97" d="M103.132 145.124L103.148 145.119L103.15 145.114L103.132 145.124Z" fill="#371B63"/>
<path id="Vector_98" d="M104.486 144.325C104.541 144.284 104.593 144.237 104.64 144.187C104.585 144.239 104.528 144.289 104.468 144.335C104.468 144.335 104.463 144.346 104.486 144.325Z" fill="#371B63"/>
<path id="Vector_99" d="M103.822 144.757C103.871 144.734 103.92 144.708 103.965 144.678L103.822 144.757Z" fill="#371B63"/>
<path id="Vector_100" d="M104.728 144.099C104.715 144.105 104.719 144.105 104.728 144.099V144.099Z" fill="#371B63"/>
<path id="Vector_101" d="M104.73 144.099L104.641 144.189L104.759 144.081L104.73 144.099Z" fill="#371B63"/>
<path id="Vector_102" d="M102.839 145.351C102.982 145.27 103.131 145.201 103.286 145.146C103.478 145.043 103.329 145.064 103.15 145.12C103.15 145.12 103.15 145.12 102.947 145.223C103.024 145.21 103.404 145.046 103.239 145.133C103.126 145.193 103.005 145.24 102.88 145.271C102.942 145.256 102.857 145.297 102.765 145.343C102.672 145.389 102.572 145.425 102.608 145.431C102.69 145.4 102.77 145.369 102.849 145.33C102.855 145.333 102.775 145.374 102.839 145.351Z" fill="#371B63"/>
<path id="Vector_103" d="M103.529 144.941L103.609 144.895C103.516 144.944 103.419 144.985 103.319 145.018C103.26 145.045 103.204 145.078 103.152 145.115C103.285 145.051 103.424 144.992 103.555 144.925L103.529 144.941Z" fill="#371B63"/>
<path id="Vector_104" d="M103.96 144.692C103.911 144.748 103.722 144.856 103.847 144.805C103.946 144.744 104.04 144.676 104.129 144.602C103.77 144.841 104.227 144.53 103.963 144.692L104.155 144.563L103.965 144.679C103.965 144.679 103.965 144.679 103.952 144.694C103.847 144.761 103.935 144.694 103.965 144.679C103.85 144.764 103.709 144.825 103.598 144.9C103.686 144.851 103.801 144.802 103.96 144.692Z" fill="#371B63"/>
<path id="Vector_105" d="M105.537 143.231C105.513 143.276 105.515 143.266 105.537 143.231V143.231Z" fill="#371B63"/>
<path id="Vector_106" d="M105.436 143.377C105.451 143.349 105.469 143.32 105.52 143.241C105.549 143.187 105.623 143.051 105.52 143.215L105.505 143.241C105.437 143.343 105.362 143.441 105.282 143.533C105.336 143.484 105.388 143.432 105.436 143.377Z" fill="#371B63"/>
<path id="Vector_107" d="M104.758 144.125C104.668 144.205 104.586 144.292 104.502 144.366C104.552 144.332 104.601 144.295 104.648 144.256C104.781 144.122 104.743 144.148 104.758 144.125Z" fill="#371B63"/>
<path id="Vector_108" d="M103.09 145.133L103.126 145.1L102.944 145.197L103.09 145.133Z" fill="#371B63"/>
<path id="Vector_109" d="M102.657 145.302L102.667 145.284L102.554 145.33L102.657 145.302Z" fill="#371B63"/>
<path id="Vector_110" d="M104.676 137.541H104.653C104.683 137.558 104.695 137.566 104.676 137.541Z" fill="#371B63"/>
<path id="Vector_111" d="M93.7489 141.548C93.7746 141.397 93.8105 141.232 93.7823 141.25L93.7566 141.294C93.7598 141.379 93.7572 141.464 93.7489 141.548Z" fill="#371B63"/>
<path id="Vector_112" d="M98.6544 136.33H98.6082L98.5107 136.379L98.6544 136.33Z" fill="#371B63"/>
<path id="Vector_113" d="M105.81 142.311L105.787 142.444C105.854 142.252 105.818 142.331 105.81 142.311Z" fill="#371B63"/>
<path id="Vector_114" d="M97.9467 145.826C97.8158 145.809 97.7158 145.775 97.626 145.76C97.7278 145.802 97.8366 145.824 97.9467 145.826Z" fill="#371B63"/>
<path id="Vector_115" d="M104.76 138.095C104.804 138.139 104.827 138.157 104.83 138.152C104.784 138.106 104.755 138.08 104.76 138.095Z" fill="#371B63"/>
<path id="Vector_116" d="M97.2561 145.679L97.3228 145.704C97.4152 145.72 97.5127 145.733 97.6256 145.758C97.5042 145.724 97.3808 145.697 97.2561 145.679Z" fill="#371B63"/>
<path id="Vector_117" d="M94.0721 141.108V141.076C94.0704 141.087 94.0704 141.098 94.0721 141.108Z" fill="#371B63"/>
<path id="Vector_118" d="M100.835 145.732C100.85 145.732 100.93 145.715 100.835 145.732V145.732Z" fill="#371B63"/>
<path id="Vector_119" d="M101.322 145.727C101.302 145.727 101.287 145.727 101.287 145.741C101.298 145.735 101.309 145.73 101.322 145.727Z" fill="#371B63"/>
<path id="Vector_120" d="M100.961 145.712L101.048 145.699C101.048 145.699 101.048 145.694 100.961 145.712Z" fill="#371B63"/>
<path id="Vector_121" d="M100.7 145.754L100.859 145.733H100.836L100.7 145.754Z" fill="#371B63"/>
<path id="Vector_122" d="M99.7373 145.548H99.7168C99.6167 145.566 99.6604 145.561 99.7373 145.548Z" fill="#371B63"/>
<path id="Vector_123" d="M94.341 138.68C94.2954 138.793 94.235 138.9 94.1614 138.998L94.2948 138.939C94.3076 138.864 94.3076 138.772 94.341 138.68Z" fill="#371B63"/>
<path id="Vector_124" d="M105.959 139.886L105.92 139.63C106.046 139.925 106.056 140.161 106.051 139.907C105.968 139.749 105.906 139.581 105.867 139.407C105.79 139.15 105.674 138.932 105.63 138.932C105.615 138.876 105.592 138.824 105.571 138.77L105.623 138.863C105.51 138.545 105.461 138.668 105.248 138.298C105.166 138.173 105.117 138.08 105.184 138.157C105.117 138.067 105.044 137.981 104.966 137.901C104.904 137.824 104.933 137.831 104.992 137.901L104.827 137.706L104.648 137.526C104.589 137.48 104.453 137.385 104.391 137.341C104.304 137.246 104.445 137.377 104.43 137.341C104.353 137.287 104.281 137.226 104.201 137.177C104.127 137.087 104.325 137.21 104.458 137.346C104.317 137.108 104.278 137.198 103.84 136.833C103.919 136.875 103.995 136.922 104.068 136.974C104.007 136.896 103.932 136.829 103.847 136.777C103.755 136.71 103.65 136.638 103.519 136.554C103.583 136.595 103.999 136.938 103.727 136.792C103.629 136.72 103.521 136.662 103.406 136.62C103.421 136.592 103.278 136.518 103.09 136.443L103.119 136.41C103.015 136.369 102.906 136.344 102.795 136.336C102.677 136.305 102.569 136.244 102.482 136.159C102.108 136.051 102.739 136.279 102.282 136.159C102.142 136.11 101.998 136.075 101.851 136.056C101.69 136.03 101.527 136.016 101.364 136.012C101.143 135.971 101.405 135.989 101.328 135.969L101.128 135.981C101.079 135.981 101.094 135.969 101.102 135.964C100.935 135.964 101.087 136.005 100.825 136.005C100.756 136.043 100.286 135.922 99.9654 136.005C99.8859 136.005 100.001 135.976 99.9783 135.961C99.73 135.989 99.485 136.041 99.247 136.117C99.1418 136.117 99.0392 136.117 98.9366 136.138C99.1649 136.125 98.8853 136.218 98.6467 136.302H98.8442L98.4568 136.405C98.4081 136.405 98.444 136.387 98.503 136.356L98.4337 136.382C98.2926 136.402 98.3567 136.356 98.4517 136.31H98.6005C98.6929 136.264 98.7775 136.218 98.7519 136.197C98.7262 136.176 98.68 136.22 98.6261 136.235C98.6492 136.223 98.6646 136.212 98.6518 136.21C98.6115 136.22 98.572 136.234 98.5338 136.251L98.4337 136.223L98.4158 136.246L97.9026 136.353C97.5511 136.507 97.2586 136.674 96.7198 136.933C96.843 136.844 96.7198 136.869 96.7198 136.828C96.8288 136.802 96.9333 136.761 97.0303 136.705C97.1612 136.633 97.2997 136.575 97.4434 136.533C97.2869 136.579 97.3125 136.551 97.351 136.533C97.1755 136.605 97.0042 136.686 96.8379 136.777C96.8379 136.743 96.7147 136.792 96.5813 136.851C96.7121 136.867 96.2221 137.069 96.0451 137.218C96.0245 137.218 96.0451 137.149 96.3016 137.023C96.004 137.126 96.0014 137.295 95.7243 137.418C95.7782 137.377 95.8141 137.364 95.8295 137.339C95.7038 137.436 95.3934 137.667 95.4524 137.595L95.5063 137.554C95.3938 137.632 95.2875 137.717 95.1881 137.811C95.0718 137.91 94.9621 138.018 94.8597 138.132C94.7175 138.264 94.6033 138.424 94.5236 138.601C94.5144 138.562 94.5144 138.522 94.5236 138.483C94.4052 138.731 94.3065 138.989 94.2285 139.253C94.2285 139.171 93.9874 139.35 94.1567 139.014C94.0642 139.142 93.99 139.282 93.9361 139.43C93.9745 139.366 94.0797 139.296 94.0361 139.386C93.926 139.528 93.833 139.682 93.759 139.845C93.8129 139.745 93.8232 139.884 93.7744 140.046C93.7744 140.017 93.7026 140.046 93.7128 139.974C93.6974 140.122 93.6718 140.266 93.6641 140.412C93.6641 140.302 93.6102 140.379 93.5717 140.471C93.5923 140.428 93.4948 140.841 93.4999 140.959L93.5358 140.777C93.4768 141.267 93.582 141.267 93.5999 141.741C93.5794 141.685 93.4999 141.603 93.5127 141.852C93.5332 141.906 93.5846 142.026 93.659 142.178C93.7334 142.329 93.8103 142.514 93.8796 142.709C93.8796 142.734 93.8796 142.763 93.8796 142.791L94.013 143.078C93.8008 142.779 93.6372 142.448 93.5281 142.098C93.5278 142.208 93.5398 142.317 93.564 142.424C93.564 142.527 93.5076 142.283 93.4948 142.201C93.5274 142.416 93.5754 142.629 93.6384 142.837C93.6641 142.796 93.8488 143.286 93.877 143.248C93.7707 143.039 93.6798 142.823 93.6051 142.601C93.6205 142.583 93.6744 142.673 93.7411 142.819C93.8078 142.965 93.9027 143.163 93.9976 143.363C94.0361 143.471 93.8976 143.317 93.8899 143.33C93.8822 143.342 93.9617 143.448 94.013 143.54C94.0643 143.632 94.1233 143.717 94.1285 143.738C94.09 143.686 94.0464 143.637 94.0105 143.584C94.131 143.809 94.267 143.915 94.421 144.174C94.4774 144.261 94.5852 144.446 94.616 144.443C94.5313 144.287 94.616 144.187 94.716 144.238L94.8931 144.469C94.9854 144.579 95.0932 144.689 95.1291 144.738C95.2343 144.877 94.8725 144.628 94.9752 144.738C95.0188 144.758 95.0601 144.783 95.0983 144.813C95.1753 144.89 95.0367 144.813 95.2292 144.954C95.2856 144.954 95.6166 145.244 95.3395 144.995C95.5319 145.126 95.5345 145.146 95.768 145.285C95.7372 145.254 95.8013 145.267 95.8962 145.303C95.9912 145.339 96.1272 145.377 96.2298 145.423C96.2144 145.423 96.2554 145.459 96.276 145.477C96.4864 145.575 96.6583 145.634 96.8225 145.703C96.9867 145.772 97.1534 145.811 97.369 145.857C97.4074 145.872 97.6255 145.921 97.5203 145.918C97.6064 145.922 97.692 145.932 97.7769 145.947C98.0335 146.018 97.4793 145.9 97.6691 145.97C97.6897 145.97 98.0232 145.99 98.2156 145.995C98.0059 145.959 97.7943 145.933 97.5819 145.918C97.5819 145.898 97.6717 145.89 97.8128 145.898C97.9539 145.906 98.1515 145.898 98.3773 145.913C98.7365 145.913 98.5312 145.944 98.5954 145.939C98.8002 145.952 99.0058 145.943 99.2086 145.911C99.3827 145.885 99.5585 145.873 99.7345 145.875C99.9603 145.875 99.7473 145.924 99.7987 145.936C99.5062 145.972 99.3445 145.936 99.1444 145.954H99.401C99.2681 145.969 99.1344 145.976 99.0007 145.975C99.5607 145.976 100.12 145.942 100.676 145.875C100.768 145.857 100.933 145.818 100.851 145.823L100.686 145.852C100.532 145.852 100.992 145.78 100.784 145.803C100.999 145.749 101.243 145.703 101.554 145.639L101.615 145.652C101.518 145.661 101.422 145.68 101.328 145.708C101.533 145.676 101.737 145.63 101.936 145.569C101.864 145.582 101.792 145.598 101.718 145.605L102.454 145.367C102.328 145.382 102.398 145.395 102.198 145.421C102.372 145.421 101.515 145.6 101.79 145.567C101.584 145.567 101.446 145.634 101.182 145.649C101.182 145.649 101.277 145.649 101.048 145.682L100.999 145.698C101.04 145.695 101.08 145.695 101.12 145.698C100.922 145.748 100.722 145.786 100.52 145.813C100.384 145.813 100.576 145.798 100.502 145.798L100.317 145.834C100.296 145.818 99.95 145.834 100.271 145.795C100.173 145.808 100.076 145.811 99.9808 145.818C99.8064 145.818 99.5729 145.834 99.4266 145.841C99.2804 145.849 99.0803 145.875 99.1983 145.857C99.0472 145.869 98.8957 145.873 98.7442 145.87H98.4029C98.2875 145.87 98.172 145.852 98.0514 145.841C97.8062 145.82 97.5638 145.773 97.3279 145.703C97.147 145.663 96.9688 145.611 96.7942 145.549L96.7532 145.513C96.6634 145.48 96.53 145.428 96.412 145.374C96.3304 145.326 96.2445 145.284 96.1554 145.251C96.0707 145.187 95.8808 145.061 95.6705 144.936L95.3728 144.718C95.2918 144.655 95.2147 144.587 95.1419 144.515L95.1137 144.528C95.0237 144.451 94.938 144.37 94.8571 144.284C94.7647 144.194 94.679 144.097 94.6006 143.994V144.025C94.388 143.753 94.2152 143.453 94.0874 143.132C94.1237 143.187 94.153 143.247 94.1747 143.309C94.0207 142.87 93.7795 142.398 93.7693 141.965C93.7544 141.88 93.7476 141.794 93.7488 141.708V141.734V141.69C93.7488 141.644 93.7488 141.595 93.7488 141.544C93.7438 141.585 93.7438 141.626 93.7488 141.667C93.7359 141.588 93.7488 141.462 93.7334 141.341L93.7642 141.29V141.264C93.7642 141.146 93.7642 141.167 93.7257 141.228C93.7257 141.167 93.7257 141.113 93.7257 141.067C93.7821 140.977 93.7385 140.746 93.8232 140.628C93.8001 140.538 93.9514 140.033 93.9284 139.953C93.9284 139.953 93.954 139.92 93.9284 139.981C93.9864 139.862 94.0345 139.739 94.072 139.612L94.1336 139.576L94.2234 139.289C94.3286 139.14 94.3902 139.089 94.3183 139.253C94.4229 139.036 94.5412 138.826 94.6724 138.624V138.655C94.7435 138.535 94.8297 138.425 94.929 138.327C94.9906 138.28 95.0778 138.185 95.2035 138.083C95.3449 137.955 95.4931 137.835 95.6474 137.724C95.9884 137.464 96.3608 137.248 96.7558 137.082C96.589 137.082 97.0944 136.974 97.0996 136.91C97.1483 136.91 97.2484 136.879 97.1406 136.941C97.283 136.876 97.4306 136.823 97.5819 136.782C97.704 136.746 97.8232 136.7 97.9385 136.646C97.9847 136.646 97.8641 136.692 97.9052 136.692C97.9552 136.67 98.0078 136.655 98.0617 136.646C98.1027 136.646 98.0129 136.674 97.9539 136.7C98.3362 136.595 98.3619 136.528 98.3773 136.469C98.5291 136.462 98.6782 136.425 98.816 136.361C98.8878 136.361 99.0059 136.361 98.7647 136.415C98.9007 136.377 99.6062 136.3 99.6165 136.259C99.694 136.26 99.7714 136.253 99.8474 136.238C100.158 136.21 100.186 136.22 100.494 136.21H100.407C100.53 136.151 100.663 136.192 100.92 136.21C101.202 136.238 101.261 136.253 101.323 136.253C101.456 136.259 101.588 136.283 101.715 136.323L101.69 136.284C101.72 136.256 101.844 136.284 101.995 136.333C102.154 136.394 102.317 136.446 102.482 136.489C102.449 136.47 102.413 136.453 102.377 136.438C102.588 136.519 102.786 136.629 102.967 136.764C103.001 136.785 102.908 136.749 102.86 136.731C103.26 136.954 102.934 136.71 103.244 136.851C103.291 136.9 103.147 136.851 103.347 136.974C103.645 137.103 103.922 137.276 104.168 137.488C104.127 137.429 104.086 137.37 104.214 137.464C104.412 137.613 104.64 137.978 104.817 138.103C104.835 138.132 104.838 138.142 104.835 138.147C104.897 138.219 104.992 138.337 105.076 138.45C105.138 138.543 105.205 138.633 105.276 138.719C105.336 138.928 105.422 139.129 105.533 139.317C105.641 139.573 105.715 139.802 105.666 139.812C105.693 139.904 105.715 139.997 105.731 140.092C105.75 140.185 105.765 140.279 105.774 140.374V140.359C105.79 140.541 105.802 140.661 105.81 140.759C105.818 140.856 105.831 140.913 105.841 140.982C105.851 141.051 105.825 141.005 105.82 140.997C105.815 141.105 105.803 141.212 105.784 141.318C105.772 141.405 105.766 141.477 105.754 141.541C105.733 141.677 105.723 141.798 105.677 142.024L105.633 142.06C105.582 142.218 105.513 142.369 105.428 142.511C105.362 142.623 105.291 142.732 105.215 142.837C105.144 142.953 105.068 143.065 104.986 143.173C104.986 143.173 104.987 143.155 105.015 143.122C104.673 143.62 103.929 144.012 103.801 144.207L103.642 144.325L103.473 144.428C103.932 144.197 103.427 144.502 103.622 144.428C103.445 144.528 103.142 144.641 103.365 144.523L103.403 144.507C103.432 144.464 103.288 144.533 103.147 144.607C103.048 144.665 102.939 144.704 102.826 144.723C101.903 145.087 100.926 145.3 99.9346 145.351L100.045 145.38L99.7166 145.405C99.6293 145.405 99.5985 145.385 99.8346 145.367C99.7001 145.369 99.5662 145.384 99.4343 145.41C98.9725 145.41 99.6139 145.367 99.4728 145.367H99.2804H99.324C99.1752 145.395 99.0236 145.404 98.8725 145.395C98.6929 145.377 98.7801 145.367 98.7108 145.362C98.675 145.357 98.6388 145.357 98.603 145.362C98.4671 145.349 98.326 145.362 98.19 145.326C98.2439 145.341 98.2977 145.359 98.3516 145.369C98.1669 145.369 97.9668 145.315 98.1515 145.369C98.0155 145.323 97.6384 145.277 97.2689 145.179C97.1001 145.144 96.9345 145.095 96.7737 145.033L96.4889 144.933C96.2301 144.84 95.985 144.712 95.7603 144.553C95.8218 144.602 95.8475 144.651 95.6243 144.494C95.6525 144.494 95.6422 144.479 95.6089 144.451C95.5566 144.41 95.5077 144.366 95.4626 144.317C95.3443 144.212 95.2369 144.095 95.1419 143.968C95.242 144.138 94.6698 143.366 94.8289 143.627C94.716 143.43 94.8289 143.607 94.7596 143.453C94.4335 142.926 94.2423 142.327 94.2029 141.708C94.2029 141.708 94.2029 141.811 94.1798 141.67V141.493L94.1978 141.318C94.187 141.198 94.187 141.077 94.1978 140.956C94.1849 141.041 94.1978 140.99 94.1978 140.956C94.2751 140.294 94.4957 139.657 94.8443 139.089L95.1291 138.673L95.4755 138.303C95.5894 138.18 95.7158 138.068 95.8526 137.97C95.9806 137.862 96.1152 137.761 96.2554 137.67C96.0964 137.759 96.2016 137.698 96.3196 137.626C96.2426 137.672 96.3196 137.626 96.3042 137.626L96.7865 137.341C96.8712 137.282 97.3356 137.098 97.3869 137.069L97.2253 137.141C97.4408 137.046 96.9174 137.267 96.9482 137.249C96.7951 137.318 96.6468 137.396 96.5043 137.485C96.3159 137.578 96.1386 137.693 95.9758 137.826C95.8988 137.883 96.0399 137.772 95.9963 137.803C95.9116 137.875 95.8064 137.957 95.6114 138.106L95.632 138.088C95.1831 138.478 94.813 138.95 94.5416 139.479L94.5646 139.45L94.4287 139.707C94.3543 139.884 94.6468 139.284 94.58 139.45C94.4158 139.622 94.1541 140.556 94.131 140.707C94.0849 140.964 94.1593 140.636 94.1131 140.89C94.1047 140.912 94.0987 140.935 94.0951 140.959V141.023C94.0947 141.109 94.0843 141.196 94.0643 141.28V141.115C94.0643 141.226 94.0464 141.372 94.0438 141.521C94.0412 141.67 94.0695 141.777 94.072 141.816L94.0566 141.559C94.0746 141.736 94.0874 141.924 94.1131 142.113C94.1387 142.303 94.1952 142.496 94.2465 142.683C94.2978 142.87 94.3825 143.053 94.462 143.224C94.5416 143.396 94.6416 143.553 94.7366 143.697C94.7263 143.682 94.7185 143.665 94.7135 143.648C94.8968 143.93 95.1139 144.188 95.36 144.417L95.3421 144.405C95.3882 144.438 95.4344 144.489 95.496 144.53L95.6859 144.659C95.5601 144.584 95.9014 144.833 95.7372 144.733C95.8446 144.814 95.9641 144.878 96.0912 144.923C96.1374 144.938 96.1605 144.941 96.335 145.008L96.4068 145.061C96.5451 145.092 96.6813 145.132 96.8148 145.179C96.589 145.115 96.979 145.264 96.725 145.192C96.9423 145.287 97.1708 145.353 97.4049 145.39C97.5845 145.431 97.723 145.446 97.8564 145.492C97.9975 145.492 97.8693 145.464 97.7256 145.441C97.6491 145.437 97.5738 145.42 97.5024 145.392C97.4408 145.369 97.5024 145.374 97.5947 145.392C97.6871 145.41 97.8256 145.418 97.918 145.436C98.1771 145.513 98.4438 145.561 98.7134 145.58H98.6133C98.7955 145.605 98.9674 145.58 99.1906 145.605C99.3137 145.575 99.478 145.605 99.5139 145.567H99.07C99.3266 145.552 99.5549 145.526 99.968 145.508C99.9346 145.508 99.8141 145.536 99.7294 145.549C99.85 145.549 99.9603 145.523 100.086 145.526C99.8212 145.575 99.5524 145.6 99.283 145.6C99.4138 145.618 99.7961 145.567 99.6576 145.6C99.8474 145.528 100.135 145.58 100.455 145.498L100.438 145.526C100.489 145.513 100.594 145.487 100.694 145.475L100.527 145.531C100.784 145.459 101.04 145.492 101.297 145.413C100.784 145.521 101.174 145.413 100.951 145.431C101.118 145.385 101.29 145.356 101.464 145.346C101.662 145.343 101.858 145.304 102.044 145.233C101.949 145.267 101.679 145.326 101.826 145.269C101.972 145.213 102.144 145.19 102.231 145.179C102.698 145.031 102.149 145.179 102.344 145.097C102.516 145.085 102.564 145.005 102.759 144.918L102.772 144.943C103.285 144.748 102.893 144.851 103.35 144.646L103.178 144.777L103.406 144.648L103.373 144.702C103.616 144.548 103.704 144.525 103.942 144.374C103.876 144.392 103.942 144.31 104.15 144.176C104.299 144.092 104.096 144.261 104.371 144.043C104.309 144.135 104.219 144.204 104.114 144.24C104.114 144.256 104.058 144.297 104.05 144.312C104.14 144.264 104.225 144.209 104.307 144.148L104.514 143.968C104.479 143.998 104.442 144.025 104.404 144.051C104.527 143.93 104.661 143.815 104.771 143.691C104.833 143.64 104.799 143.691 104.756 143.743C104.83 143.671 104.866 143.604 104.969 143.486C104.969 143.53 104.984 143.54 104.843 143.709L105.158 143.327C105.194 143.327 105.335 143.145 105.305 143.201C105.398 143.068 105.483 142.929 105.561 142.786C105.643 142.627 105.72 142.45 105.792 142.273C105.801 142.228 105.813 142.184 105.828 142.142C105.96 141.815 106.031 141.467 106.038 141.115L106.092 140.887C106.092 140.569 106.044 141.195 106.015 140.669C105.985 140.3 106.046 140.528 106.049 140.397C106.013 140.212 105.918 139.904 105.861 139.566C105.915 139.707 105.931 139.784 105.959 139.886ZM103.742 136.808C103.828 136.845 103.908 136.893 103.981 136.951C103.891 136.928 103.809 136.882 103.742 136.818V136.808ZM98.0976 136.389C98.171 136.361 98.2478 136.343 98.326 136.336C98.2524 136.362 98.1769 136.384 98.1002 136.4L98.0976 136.389ZM99.7551 145.865C99.5857 145.865 99.6447 145.865 99.7551 145.865V145.865ZM100.091 145.849C100.125 145.849 100.122 145.849 100.109 145.849C100.048 145.86 99.9863 145.866 99.9244 145.867C99.9808 145.868 100.037 145.86 100.091 145.844V145.849ZM98.6723 145.387H98.739C98.5902 145.39 98.6313 145.387 98.6698 145.382L98.6723 145.387Z" fill="#371B63"/>
<path id="Vector_125" d="M98.7263 136.204C98.737 136.2 98.7486 136.2 98.7593 136.204C98.7871 136.204 98.7871 136.199 98.7263 136.204Z" fill="#371B63"/>
<path id="Vector_126" d="M95.0778 144.857C95.0434 144.826 95.0124 144.791 94.9855 144.754C94.9855 144.754 94.9957 144.782 95.0778 144.857Z" fill="#371B63"/>
<path id="Vector_127" d="M101.836 145.53C101.769 145.551 101.7 145.566 101.63 145.582C101.73 145.558 101.769 145.558 101.82 145.548C101.813 145.543 101.771 145.548 101.836 145.53Z" fill="#371B63"/>
<path id="Vector_128" d="M103.619 144.981L103.704 144.93C103.576 144.994 103.499 145.048 103.619 144.981Z" fill="#371B63"/>
<path id="Vector_129" d="M102.046 145.54C102.146 145.529 102.245 145.504 102.339 145.466H102.313C102.349 145.44 102.197 145.491 102.046 145.54Z" fill="#371B63"/>
<path id="Vector_130" d="M102.373 145.454L102.503 145.41C102.519 145.395 102.45 145.426 102.373 145.454Z" fill="#371B63"/>
<path id="Vector_131" d="M100.515 145.788C100.587 145.788 100.556 145.762 100.597 145.765C100.638 145.767 100.127 145.844 100.515 145.788Z" fill="#371B63"/>
<path id="Vector_132" d="M102.177 145.56L102.121 145.555L102.041 145.593L102.177 145.56Z" fill="#371B63"/>
<path id="Vector_133" d="M101.007 145.804L101.248 145.771C101.248 145.771 101.274 145.771 101.31 145.753C101.164 145.776 101 145.799 101.007 145.804Z" fill="#371B63"/>
<path id="Vector_134" d="M101.31 145.754C101.387 145.739 101.459 145.721 101.5 145.708L101.31 145.754Z" fill="#371B63"/>
<path id="Vector_135" d="M101.859 145.652L101.79 145.665L101.623 145.701L101.859 145.652Z" fill="#371B63"/>
<path id="Vector_136" d="M98.4136 145.967C98.3238 145.967 98.2366 145.967 98.1571 145.949C98.1289 145.949 98.2007 145.97 98.2982 145.975C98.3957 145.98 98.4547 145.975 98.4136 145.967Z" fill="#371B63"/>
<path id="Vector_137" d="M99.2136 146.036C99.1746 146.036 99.1359 146.03 99.0981 146.021V146.051L99.2136 146.036Z" fill="#371B63"/>
<path id="Vector_138" d="M98.4387 146.041C98.413 146.056 98.0512 146.041 98.3899 146.062C98.413 146.054 98.685 146.054 98.4387 146.041Z" fill="#371B63"/>
<path id="Vector_139" d="M94.8364 144.504L94.8826 144.553L94.916 144.506L94.8364 144.504Z" fill="#371B63"/>
<path id="Vector_140" d="M93.4308 141.308C93.418 141.634 93.4616 141.385 93.4565 141.677C93.4565 141.716 93.4565 141.654 93.4565 141.595C93.4565 141.536 93.4565 141.477 93.4693 141.516C93.4642 141.323 93.4719 141.218 93.4308 141.308Z" fill="#371B63"/>
<path id="Vector_141" d="M97.1099 137.203L97.2946 137.121L97.174 137.172L97.1099 137.203Z" fill="#371B63"/>
<path id="Vector_142" d="M97.464 137.045L97.5076 137.027L97.6179 136.979L97.464 137.045Z" fill="#371B63"/>
<path id="Vector_143" d="M103.273 136.461H103.255C103.304 136.495 103.356 136.525 103.409 136.553C103.365 136.52 103.32 136.489 103.273 136.461Z" fill="#371B63"/>
<path id="Vector_144" d="M105.366 138.35L105.341 138.309L105.356 138.406L105.366 138.35Z" fill="#371B63"/>
<path id="Vector_145" d="M106.136 140.602C106.136 140.502 106.11 140.389 106.102 140.289C106.136 140.502 106.092 140.63 106.136 140.602Z" fill="#371B63"/>
<path id="Vector_146" d="M47.5752 98.3438V89.0762H53.4202V98.3438H47.5752Z" fill="#FF8D5C" stroke="#371B63" stroke-width="0.5"/>
<path id="Vector_147" opacity="0.1" d="M65.2107 92.9955C65.2107 93.3258 65.1127 93.6487 64.9292 93.9234C64.7456 94.1981 64.4848 94.4122 64.1796 94.5386C63.8744 94.665 63.5385 94.6981 63.2145 94.6336C62.8905 94.5692 62.5929 94.4101 62.3593 94.1765C62.1257 93.9429 61.9667 93.6453 61.9022 93.3213C61.8378 92.9973 61.8708 92.6615 61.9973 92.3563C62.1237 92.0511 62.3378 91.7902 62.6124 91.6067C62.8871 91.4232 63.21 91.3252 63.5404 91.3252C63.7598 91.3249 63.9772 91.3678 64.18 91.4516C64.3828 91.5355 64.567 91.6585 64.7222 91.8137C64.8774 91.9688 65.0004 92.1531 65.0842 92.3559C65.168 92.5587 65.211 92.776 65.2107 92.9955Z" fill="#371B63"/>
<path id="Vector_148" d="M64.5461 92.9953C64.5461 93.1952 64.4868 93.3906 64.3757 93.5569C64.2646 93.7231 64.1067 93.8527 63.922 93.9292C63.7373 94.0057 63.5341 94.0257 63.338 93.9867C63.1419 93.9477 62.9617 93.8514 62.8204 93.7101C62.679 93.5687 62.5827 93.3886 62.5437 93.1925C62.5047 92.9964 62.5247 92.7931 62.6012 92.6084C62.6778 92.4237 62.8073 92.2658 62.9736 92.1547C63.1398 92.0437 63.3352 91.9844 63.5352 91.9844C63.668 91.984 63.7996 92.01 63.9224 92.0606C64.0452 92.1113 64.1568 92.1858 64.2507 92.2797C64.3447 92.3736 64.4191 92.4852 64.4698 92.608C64.5205 92.7308 64.5464 92.8624 64.5461 92.9953Z" fill="#371B63"/>
<path id="Vector_149" opacity="0.1" d="M72.2561 94.6657C73.1785 94.6657 73.9264 93.9179 73.9264 92.9955C73.9264 92.073 73.1785 91.3252 72.2561 91.3252C71.3336 91.3252 70.5858 92.073 70.5858 92.9955C70.5858 93.9179 71.3336 94.6657 72.2561 94.6657Z" fill="#371B63"/>
<path id="Vector_150" d="M73.2691 92.9953C73.2691 93.1952 73.2098 93.3906 73.0987 93.5569C72.9876 93.7231 72.8298 93.8527 72.645 93.9292C72.4603 94.0057 72.2571 94.0257 72.061 93.9867C71.8649 93.9477 71.6848 93.8514 71.5434 93.7101C71.402 93.5687 71.3057 93.3886 71.2667 93.1925C71.2277 92.9964 71.2478 92.7931 71.3243 92.6084C71.4008 92.4237 71.5303 92.2658 71.6966 92.1547C71.8628 92.0437 72.0583 91.9844 72.2582 91.9844C72.391 91.984 72.5226 92.01 72.6454 92.0606C72.7682 92.1113 72.8798 92.1858 72.9738 92.2797C73.0677 92.3736 73.1421 92.4852 73.1928 92.608C73.2435 92.7308 73.2694 92.8624 73.2691 92.9953Z" fill="#371B63"/>
<path id="Vector_151" opacity="0.1" d="M82.6418 92.9955C82.6418 93.3258 82.5438 93.6487 82.3603 93.9234C82.1768 94.1981 81.9159 94.4122 81.6107 94.5386C81.3055 94.665 80.9697 94.6981 80.6457 94.6336C80.3217 94.5692 80.0241 94.4101 79.7905 94.1765C79.5569 93.9429 79.3978 93.6453 79.3334 93.3213C79.2689 92.9973 79.302 92.6615 79.4284 92.3563C79.5548 92.0511 79.7689 91.7902 80.0436 91.6067C80.3183 91.4232 80.6412 91.3252 80.9715 91.3252C81.4145 91.3252 81.8394 91.5012 82.1526 91.8144C82.4658 92.1276 82.6418 92.5525 82.6418 92.9955Z" fill="#371B63"/>
<path id="Vector_152" d="M81.9928 92.9954C81.9928 93.1946 81.9339 93.3895 81.8235 93.5554C81.7131 93.7212 81.5561 93.8508 81.3723 93.9277C81.1885 94.0047 80.986 94.0256 80.7903 93.9878C80.5947 93.95 80.4145 93.8553 80.2726 93.7154C80.1306 93.5756 80.0331 93.3969 79.9924 93.2019C79.9517 93.0068 79.9695 92.804 80.0437 92.6191C80.1178 92.4341 80.245 92.2752 80.4092 92.1623C80.5734 92.0494 80.7673 91.9875 80.9666 91.9845C81.1006 91.9825 81.2337 92.0071 81.3581 92.057C81.4826 92.1069 81.5958 92.181 81.6913 92.2751C81.7868 92.3691 81.8627 92.4813 81.9144 92.6049C81.9662 92.7286 81.9929 92.8613 81.9928 92.9954Z" fill="#371B63"/>
<path id="Vector_153" opacity="0.1" d="M91.3806 92.9955C91.3806 93.3258 91.2826 93.6487 91.0991 93.9234C90.9155 94.1981 90.6547 94.4122 90.3495 94.5386C90.0443 94.665 89.7085 94.6981 89.3845 94.6336C89.0605 94.5692 88.7628 94.4101 88.5292 94.1765C88.2957 93.9429 88.1366 93.6453 88.0721 93.3213C88.0077 92.9973 88.0408 92.6615 88.1672 92.3563C88.2936 92.0511 88.5077 91.7902 88.7824 91.6067C89.057 91.4232 89.38 91.3252 89.7103 91.3252C89.9297 91.3249 90.1471 91.3678 90.3499 91.4516C90.5527 91.5355 90.7369 91.6585 90.8921 91.8137C91.0473 91.9688 91.1703 92.1531 91.2541 92.3559C91.3379 92.5587 91.3809 92.776 91.3806 92.9955Z" fill="#371B63"/>
<path id="Vector_154" d="M90.7161 92.9953C90.7161 93.1952 90.6568 93.3906 90.5457 93.5569C90.4347 93.7231 90.2768 93.8527 90.0921 93.9292C89.9074 94.0057 89.7041 94.0257 89.508 93.9867C89.3119 93.9477 89.1318 93.8514 88.9904 93.7101C88.849 93.5687 88.7528 93.3886 88.7138 93.1925C88.6748 92.9964 88.6948 92.7931 88.7713 92.6084C88.8478 92.4237 88.9774 92.2658 89.1436 92.1547C89.3098 92.0437 89.5053 91.9844 89.7052 91.9844C89.8381 91.984 89.9697 92.01 90.0925 92.0606C90.2153 92.1113 90.3268 92.1858 90.4208 92.2797C90.5147 92.3736 90.5892 92.4852 90.6398 92.608C90.6905 92.7308 90.7164 92.8624 90.7161 92.9953Z" fill="#371B63"/>
<path id="Vector_155" opacity="0.1" d="M98.4569 94.6657C99.3794 94.6657 100.127 93.9179 100.127 92.9955C100.127 92.073 99.3794 91.3252 98.4569 91.3252C97.5344 91.3252 96.7866 92.073 96.7866 92.9955C96.7866 93.9179 97.5344 94.6657 98.4569 94.6657Z" fill="#371B63"/>
<path id="Vector_156" d="M99.4681 92.9953C99.4681 93.1952 99.4088 93.3906 99.2977 93.5569C99.1866 93.7231 99.0287 93.8527 98.844 93.9292C98.6593 94.0057 98.4561 94.0257 98.26 93.9867C98.0639 93.9477 97.8837 93.8514 97.7424 93.7101C97.601 93.5687 97.5047 93.3886 97.4657 93.1925C97.4267 92.9964 97.4467 92.7931 97.5232 92.6084C97.5998 92.4237 97.7293 92.2658 97.8956 92.1547C98.0618 92.0437 98.2572 91.9844 98.4572 91.9844C98.7253 91.9844 98.9824 92.0909 99.172 92.2805C99.3616 92.47 99.4681 92.7272 99.4681 92.9953Z" fill="#371B63"/>
<path id="Vector_157" opacity="0.1" d="M107.152 94.6657C108.074 94.6657 108.822 93.9179 108.822 92.9955C108.822 92.073 108.074 91.3252 107.152 91.3252C106.229 91.3252 105.482 92.073 105.482 92.9955C105.482 93.9179 106.229 94.6657 107.152 94.6657Z" fill="#371B63"/>
<path id="Vector_158" d="M108.163 92.9953C108.163 93.1952 108.104 93.3906 107.993 93.5569C107.881 93.7231 107.724 93.8527 107.539 93.9292C107.354 94.0057 107.151 94.0257 106.955 93.9867C106.759 93.9477 106.579 93.8514 106.437 93.7101C106.296 93.5687 106.2 93.3886 106.161 93.1925C106.122 92.9964 106.142 92.7931 106.218 92.6084C106.295 92.4237 106.424 92.2658 106.59 92.1547C106.757 92.0437 106.952 91.9844 107.152 91.9844C107.285 91.984 107.416 92.01 107.539 92.0606C107.662 92.1113 107.774 92.1858 107.868 92.2797C107.961 92.3736 108.036 92.4852 108.087 92.608C108.137 92.7308 108.163 92.8624 108.163 92.9953Z" fill="#371B63"/>
<path id="Vector_159" opacity="0.1" d="M115.876 94.6657C116.798 94.6657 117.546 93.9179 117.546 92.9955C117.546 92.073 116.798 91.3252 115.876 91.3252C114.953 91.3252 114.205 92.073 114.205 92.9955C114.205 93.9179 114.953 94.6657 115.876 94.6657Z" fill="#371B63"/>
<path id="Vector_160" d="M116.887 92.9953C116.887 93.1952 116.827 93.3906 116.716 93.5569C116.605 93.7231 116.447 93.8527 116.263 93.9292C116.078 94.0057 115.875 94.0257 115.679 93.9867C115.482 93.9477 115.302 93.8514 115.161 93.7101C115.02 93.5687 114.923 93.3886 114.884 93.1925C114.845 92.9964 114.865 92.7931 114.942 92.6084C115.018 92.4237 115.148 92.2658 115.314 92.1547C115.48 92.0437 115.676 91.9844 115.876 91.9844C116.144 91.9844 116.401 92.0909 116.591 92.2805C116.78 92.47 116.887 92.7272 116.887 92.9953Z" fill="#371B63"/>
<path id="Vector_161" opacity="0.1" d="M124.627 94.6657C125.549 94.6657 126.297 93.9179 126.297 92.9955C126.297 92.073 125.549 91.3252 124.627 91.3252C123.704 91.3252 122.957 92.073 122.957 92.9955C122.957 93.9179 123.704 94.6657 124.627 94.6657Z" fill="#371B63"/>
<path id="Vector_162" d="M125.638 92.9953C125.638 93.1952 125.579 93.3906 125.468 93.5569C125.357 93.7231 125.199 93.8527 125.014 93.9292C124.829 94.0057 124.626 94.0257 124.43 93.9867C124.234 93.9477 124.054 93.8514 123.912 93.7101C123.771 93.5687 123.675 93.3886 123.636 93.1925C123.597 92.9964 123.617 92.7931 123.693 92.6084C123.77 92.4237 123.899 92.2658 124.065 92.1547C124.232 92.0437 124.427 91.9844 124.627 91.9844C124.895 91.9844 125.152 92.0909 125.342 92.2805C125.531 92.47 125.638 92.7272 125.638 92.9953Z" fill="#371B63"/>
<path id="Vector_163" opacity="0.1" d="M134.997 92.9955C134.997 93.3258 134.899 93.6487 134.716 93.9234C134.532 94.1981 134.272 94.4122 133.966 94.5386C133.661 94.665 133.325 94.6981 133.001 94.6336C132.677 94.5692 132.38 94.4101 132.146 94.1765C131.912 93.9429 131.753 93.6453 131.689 93.3213C131.625 92.9973 131.658 92.6615 131.784 92.3563C131.91 92.0511 132.124 91.7902 132.399 91.6067C132.674 91.4232 132.997 91.3252 133.327 91.3252C133.77 91.3252 134.195 91.5012 134.508 91.8144C134.821 92.1276 134.997 92.5525 134.997 92.9955Z" fill="#371B63"/>
<path id="Vector_164" d="M134.333 92.9953C134.333 93.1952 134.274 93.3906 134.163 93.5569C134.051 93.7231 133.894 93.8527 133.709 93.9292C133.524 94.0057 133.321 94.0257 133.125 93.9867C132.929 93.9477 132.749 93.8514 132.607 93.7101C132.466 93.5687 132.37 93.3886 132.331 93.1925C132.292 92.9964 132.312 92.7931 132.388 92.6084C132.465 92.4237 132.594 92.2658 132.76 92.1547C132.927 92.0437 133.122 91.9844 133.322 91.9844C133.59 91.9844 133.847 92.0909 134.037 92.2805C134.226 92.47 134.333 92.7272 134.333 92.9953Z" fill="#371B63"/>
<path id="Vector_165" opacity="0.1" d="M143.734 92.9955C143.734 93.3258 143.636 93.6487 143.452 93.9234C143.269 94.1981 143.008 94.4122 142.703 94.5386C142.397 94.665 142.061 94.6981 141.737 94.6336C141.413 94.5692 141.116 94.4101 140.882 94.1765C140.649 93.9429 140.49 93.6453 140.425 93.3213C140.361 92.9973 140.394 92.6615 140.52 92.3563C140.647 92.0511 140.861 91.7902 141.135 91.6067C141.41 91.4232 141.733 91.3252 142.063 91.3252C142.283 91.3249 142.5 91.3678 142.703 91.4516C142.906 91.5355 143.09 91.6585 143.245 91.8137C143.4 91.9688 143.523 92.1531 143.607 92.3559C143.691 92.5587 143.734 92.776 143.734 92.9955Z" fill="#371B63"/>
<path id="Vector_166" d="M143.074 92.9953C143.074 93.1952 143.015 93.3906 142.904 93.5569C142.793 93.7231 142.635 93.8527 142.45 93.9292C142.266 94.0057 142.062 94.0257 141.866 93.9867C141.67 93.9477 141.49 93.8514 141.349 93.7101C141.207 93.5687 141.111 93.3886 141.072 93.1925C141.033 92.9964 141.053 92.7931 141.129 92.6084C141.206 92.4237 141.336 92.2658 141.502 92.1547C141.668 92.0437 141.863 91.9844 142.063 91.9844C142.196 91.984 142.328 92.01 142.451 92.0606C142.573 92.1113 142.685 92.1858 142.779 92.2797C142.873 92.3736 142.947 92.4852 142.998 92.608C143.049 92.7308 143.075 92.8624 143.074 92.9953Z" fill="#371B63"/>
<path id="Vector_167" opacity="0.1" d="M152.434 92.9955C152.434 93.3258 152.336 93.6487 152.152 93.9234C151.969 94.1981 151.708 94.4122 151.403 94.5386C151.098 94.665 150.762 94.6981 150.438 94.6336C150.114 94.5692 149.816 94.4101 149.582 94.1765C149.349 93.9429 149.19 93.6453 149.125 93.3213C149.061 92.9973 149.094 92.6615 149.22 92.3563C149.347 92.0511 149.561 91.7902 149.836 91.6067C150.11 91.4232 150.433 91.3252 150.764 91.3252C150.983 91.3249 151.2 91.3678 151.403 91.4516C151.606 91.5355 151.79 91.6585 151.945 91.8137C152.1 91.9688 152.224 92.1531 152.307 92.3559C152.391 92.5587 152.434 92.776 152.434 92.9955Z" fill="#371B63"/>
<path id="Vector_168" d="M151.78 92.9954C151.78 93.1947 151.721 93.3895 151.61 93.5554C151.5 93.7213 151.343 93.8508 151.159 93.9278C150.975 94.0047 150.773 94.0256 150.577 93.9879C150.382 93.9501 150.201 93.8553 150.059 93.7155C149.917 93.5756 149.82 93.397 149.779 93.2019C149.739 93.0068 149.756 92.8041 149.831 92.6191C149.905 92.4342 150.032 92.2752 150.196 92.1623C150.36 92.0494 150.554 91.9876 150.753 91.9845C150.888 91.9821 151.021 92.0065 151.145 92.0563C151.27 92.1061 151.383 92.1802 151.479 92.2743C151.575 92.3685 151.65 92.4807 151.702 92.6046C151.754 92.7284 151.78 92.8613 151.78 92.9954Z" fill="#371B63"/>
<path id="Vector_169" opacity="0.1" d="M161.17 92.9955C161.17 93.3258 161.072 93.6487 160.889 93.9234C160.705 94.1981 160.444 94.4122 160.139 94.5386C159.834 94.665 159.498 94.6981 159.174 94.6336C158.85 94.5692 158.552 94.4101 158.319 94.1765C158.085 93.9429 157.926 93.6453 157.862 93.3213C157.797 92.9973 157.83 92.6615 157.957 92.3563C158.083 92.0511 158.297 91.7902 158.572 91.6067C158.846 91.4232 159.169 91.3252 159.5 91.3252C159.719 91.3249 159.937 91.3678 160.139 91.4516C160.342 91.5355 160.526 91.6585 160.682 91.8137C160.837 91.9688 160.96 92.1531 161.044 92.3559C161.127 92.5587 161.17 92.776 161.17 92.9955Z" fill="#371B63"/>
<path id="Vector_170" d="M160.503 92.9953C160.503 93.1952 160.443 93.3906 160.332 93.5569C160.221 93.7231 160.063 93.8527 159.879 93.9292C159.694 94.0057 159.491 94.0257 159.295 93.9867C159.099 93.9477 158.918 93.8514 158.777 93.7101C158.636 93.5687 158.539 93.3886 158.5 93.1925C158.461 92.9964 158.481 92.7931 158.558 92.6084C158.634 92.4237 158.764 92.2658 158.93 92.1547C159.096 92.0437 159.292 91.9844 159.492 91.9844C159.625 91.984 159.756 92.01 159.879 92.0606C160.002 92.1113 160.113 92.1858 160.207 92.2797C160.301 92.3736 160.376 92.4852 160.426 92.608C160.477 92.7308 160.503 92.8624 160.503 92.9953Z" fill="#371B63"/>
<path id="Vector_171" opacity="0.1" d="M168.218 94.6657C169.141 94.6657 169.889 93.9179 169.889 92.9955C169.889 92.073 169.141 91.3252 168.218 91.3252C167.296 91.3252 166.548 92.073 166.548 92.9955C166.548 93.9179 167.296 94.6657 168.218 94.6657Z" fill="#371B63"/>
<path id="Vector_172" d="M169.227 92.9953C169.227 93.1952 169.167 93.3906 169.056 93.5569C168.945 93.7231 168.787 93.8527 168.603 93.9292C168.418 94.0057 168.215 94.0257 168.019 93.9867C167.822 93.9477 167.642 93.8514 167.501 93.7101C167.36 93.5687 167.263 93.3886 167.224 93.1925C167.185 92.9964 167.205 92.7931 167.282 92.6084C167.358 92.4237 167.488 92.2658 167.654 92.1547C167.82 92.0437 168.016 91.9844 168.216 91.9844C168.349 91.984 168.48 92.01 168.603 92.0606C168.726 92.1113 168.837 92.1858 168.931 92.2797C169.025 92.3736 169.1 92.4852 169.15 92.608C169.201 92.7308 169.227 92.8624 169.227 92.9953Z" fill="#371B63"/>
<path id="Vector_173" d="M64.3614 89.4651C64.3614 90.299 64.2691 93.0135 64.2691 93.0135C64.2691 93.9577 62.8092 93.9551 62.8092 93.0135V88.8725C62.8092 86.784 61.8984 86.0322 60.9953 86.0322C59.8663 86.0322 59.1993 87.3921 59.1993 88.8237H57.7317C57.7317 85.573 59.2865 84.3184 60.8849 84.3184C63.3146 84.3184 64.3614 85.9399 64.3614 89.4651Z" fill="#371B63"/>
<path id="Vector_174" d="M73.0847 89.4651C73.0847 90.299 72.9923 93.0135 72.9923 93.0135C72.9923 93.9577 71.535 93.9551 71.535 93.0135C71.535 92.0719 71.535 90.4042 71.535 88.8725C71.535 86.784 70.6268 86.0322 69.7211 86.0322C68.5922 86.0322 67.9251 87.3921 67.9251 88.8237H66.4575C66.4575 85.573 68.0123 84.3184 69.6108 84.3184C72.0379 84.3184 73.0847 85.9399 73.0847 89.4651Z" fill="#371B63"/>
<path id="Vector_175" d="M81.811 89.4651C81.811 90.299 81.7187 93.0135 81.7187 93.0135C81.7187 93.9577 80.2588 93.9551 80.2588 93.0135V88.8725C80.2588 86.784 79.348 86.0322 78.4423 86.0322C77.3134 86.0322 76.6463 87.3921 76.6463 88.8237H75.1787C75.1787 85.573 76.7335 84.3184 78.3319 84.3184C80.7617 84.3184 81.811 85.9399 81.811 89.4651Z" fill="#371B63"/>
<path id="Vector_176" d="M90.5339 89.4651C90.5339 90.299 90.4416 93.0135 90.4416 93.0135C90.4416 93.9577 88.9817 93.9551 88.9817 93.0135V88.8725C88.9817 86.784 88.0709 86.0322 87.1677 86.0322C86.0388 86.0322 85.3718 87.3921 85.3718 88.8237H83.9042C83.9042 85.573 85.459 84.3184 87.0574 84.3184C89.4871 84.3184 90.5339 85.9399 90.5339 89.4651Z" fill="#371B63"/>
<path id="Vector_177" d="M99.2572 89.4651C99.2572 90.299 99.1648 93.0135 99.1648 93.0135C99.1648 93.9577 97.7049 93.9551 97.7049 93.0135V88.8725C97.7049 86.784 96.7967 86.0322 95.891 86.0322C94.7621 86.0322 94.095 87.3921 94.095 88.8237H92.6274C92.6274 85.573 94.1822 84.3184 95.7807 84.3184C98.2104 84.3184 99.2572 85.9399 99.2572 89.4651Z" fill="#371B63"/>
<path id="Vector_178" d="M107.983 89.4651C107.983 90.299 107.888 93.0135 107.888 93.0135C107.888 93.9577 106.431 93.9551 106.431 93.0135V88.8725C106.431 86.784 105.52 86.0322 104.615 86.0322C103.486 86.0322 102.819 87.3921 102.819 88.8237H101.351C101.351 85.573 102.903 84.3184 104.504 84.3184C106.934 84.3184 107.983 85.9399 107.983 89.4651Z" fill="#371B63"/>
<path id="Vector_179" d="M116.707 89.4651C116.707 90.299 116.614 93.0135 116.614 93.0135C116.614 93.9577 115.154 93.9551 115.154 93.0135V88.8725C115.154 86.784 114.243 86.0322 113.338 86.0322C112.209 86.0322 111.542 87.3921 111.542 88.8237H110.074C110.074 85.573 111.629 84.3184 113.227 84.3184C115.66 84.3184 116.707 85.9399 116.707 89.4651Z" fill="#371B63"/>
<path id="Vector_180" d="M125.43 89.4651C125.43 90.299 125.337 93.0135 125.337 93.0135C125.337 93.9577 123.878 93.9551 123.878 93.0135V88.8725C123.878 86.784 122.969 86.0322 122.064 86.0322C120.935 86.0322 120.268 87.3921 120.268 88.8237H118.8C118.8 85.573 120.355 84.3184 121.953 84.3184C124.383 84.3184 125.43 85.9399 125.43 89.4651Z" fill="#371B63"/>
<path id="Vector_181" d="M134.156 89.4651C134.156 90.299 134.061 93.0135 134.061 93.0135C134.061 93.9577 132.604 93.9551 132.604 93.0135C132.604 92.0719 132.604 90.4042 132.604 88.8725C132.604 86.784 131.696 86.0322 130.79 86.0322C129.661 86.0322 128.994 87.3921 128.994 88.8237H127.524C127.524 85.573 129.079 84.3184 130.68 84.3184C133.107 84.3184 134.156 85.9399 134.156 89.4651Z" fill="#371B63"/>
<path id="Vector_182" d="M142.879 89.4651C142.879 90.299 142.787 93.0135 142.787 93.0135C142.787 93.9577 141.327 93.9551 141.327 93.0135V88.8725C141.327 86.784 140.416 86.0322 139.511 86.0322C138.382 86.0322 137.715 87.3921 137.715 88.8237H136.247C136.247 85.573 137.802 84.3184 139.4 84.3184C141.832 84.3184 142.879 85.9399 142.879 89.4651Z" fill="#371B63"/>
<path id="Vector_183" d="M151.602 89.4651C151.602 90.299 151.51 93.0135 151.51 93.0135C151.51 93.9577 150.05 93.9551 150.05 93.0135V88.8725C150.05 86.784 149.142 86.0322 148.236 86.0322C147.107 86.0322 146.44 87.3921 146.44 88.8237H144.973C144.973 85.573 146.527 84.3184 148.126 84.3184C150.556 84.3184 151.602 85.9399 151.602 89.4651Z" fill="#371B63"/>
<path id="Vector_184" d="M160.329 89.4651C160.329 90.299 160.234 93.0135 160.234 93.0135C160.234 93.9577 158.776 93.9551 158.776 93.0135C158.776 92.0719 158.776 90.4042 158.776 88.8725C158.776 86.784 157.868 86.0322 156.963 86.0322C155.834 86.0322 155.167 87.3921 155.167 88.8237H153.696C153.696 85.573 155.251 84.3184 156.85 84.3184C159.279 84.3184 160.329 85.9399 160.329 89.4651Z" fill="#371B63"/>
<path id="Vector_185" d="M169.052 89.4651C169.052 90.299 168.96 93.0135 168.96 93.0135C168.96 93.9577 167.5 93.9551 167.5 93.0135V88.8725C167.5 86.784 166.589 86.0322 165.683 86.0322C164.554 86.0322 163.887 87.3921 163.887 88.8237H162.42C162.42 85.573 163.974 84.3184 165.573 84.3184C168.005 84.3184 169.052 85.9399 169.052 89.4651Z" fill="#371B63"/>
</g>
<g id="Notes">
<path id="Vector_186" d="M122.153 133.137H109.997C109.643 132.377 109.438 131.555 109.396 130.718V120.978H121.552V130.843C121.552 131.828 122.153 133.137 122.153 133.137Z" fill="#371B63"/>
<path id="Vector_187" d="M111.484 123.853C112.912 123.734 114.343 123.706 115.773 123.7C117.204 123.694 118.632 123.734 120.062 123.853C118.632 123.971 117.204 123.996 115.773 124.002C114.343 124.008 112.912 123.968 111.484 123.853Z" fill="#DCD1F1"/>
<path id="Vector_188" d="M111.484 125.454C112.769 125.336 114.056 125.311 115.343 125.304C116.631 125.298 117.915 125.336 119.199 125.454C117.915 125.572 116.627 125.6 115.343 125.604C114.059 125.607 112.769 125.572 111.484 125.454Z" fill="#DCD1F1"/>
<path id="Vector_189" d="M111.484 127.058C112.61 126.943 113.735 126.915 114.857 126.909C115.979 126.903 117.107 126.94 118.233 127.058C117.107 127.177 115.982 127.205 114.857 127.211C113.732 127.217 112.619 127.174 111.484 127.058Z" fill="#DCD1F1"/>
<path id="Vector_190" d="M111.484 128.66C112.912 128.542 114.343 128.514 115.773 128.507C117.204 128.501 118.632 128.542 120.062 128.66C118.632 128.779 117.204 128.804 115.773 128.81C114.343 128.816 112.912 128.776 111.484 128.66Z" fill="#DCD1F1"/>
<path id="Vector_191" d="M105.038 165.709H92.8824C92.5277 164.948 92.3234 164.125 92.2809 163.287V153.553H104.437V163.418C104.437 164.393 105.038 165.709 105.038 165.709Z" fill="#371B63"/>
<path id="Vector_192" d="M94.3696 156.417C95.7972 156.299 97.2278 156.271 98.6585 156.264C100.089 156.258 101.517 156.299 102.947 156.417C101.517 156.532 100.089 156.56 98.6585 156.567C97.2278 156.573 95.7878 156.532 94.3696 156.417Z" fill="#DCD1F1"/>
<path id="Vector_193" d="M94.3696 158.02C95.6538 157.902 96.9411 157.877 98.2253 157.871C99.5094 157.865 100.8 157.902 102.084 158.02C100.8 158.139 99.5125 158.167 98.2253 158.17C96.938 158.173 95.6538 158.139 94.3696 158.02Z" fill="#DCD1F1"/>
<path id="Vector_194" d="M94.3696 159.621C95.4917 159.506 96.6169 159.478 97.7421 159.471C98.8673 159.465 99.9926 159.503 101.118 159.621C99.9926 159.739 98.8673 159.767 97.7421 159.774C96.6169 159.78 95.4917 159.739 94.3696 159.621Z" fill="#DCD1F1"/>
<path id="Vector_195" d="M94.3696 161.227C95.7972 161.108 97.2278 161.08 98.6585 161.074C100.089 161.068 101.517 161.108 102.947 161.227C101.517 161.342 100.089 161.37 98.6585 161.376C97.2278 161.382 95.7878 161.345 94.3696 161.227Z" fill="#DCD1F1"/>
<path id="Vector_196" d="M87.5363 132.919H75.3803C75.0239 132.158 74.8185 131.336 74.7756 130.497V120.76H86.9316V130.625C86.9316 131.61 87.5363 132.919 87.5363 132.919Z" fill="#5119B7"/>
<path id="Vector_197" d="M76.8641 123.63C78.2948 123.511 79.7255 123.483 81.1561 123.477C82.5868 123.471 84.0144 123.511 85.445 123.63C84.0144 123.745 82.5837 123.773 81.1561 123.78C79.7286 123.786 78.2948 123.748 76.8641 123.63Z" fill="#DCD1F1"/>
<path id="Vector_198" d="M76.8641 125.236C78.1514 125.118 79.4387 125.093 80.7229 125.087C82.0071 125.08 83.2943 125.118 84.5816 125.236C83.2943 125.355 82.0102 125.38 80.7229 125.386C79.4356 125.392 78.1514 125.355 76.8641 125.236Z" fill="#DCD1F1"/>
<path id="Vector_199" d="M76.8641 126.839C77.9893 126.723 79.1146 126.695 80.2398 126.689C81.365 126.683 82.4902 126.72 83.6154 126.839C82.4902 126.957 81.365 126.985 80.2398 126.991C79.1146 126.998 77.9893 126.957 76.8641 126.839Z" fill="#DCD1F1"/>
<path id="Vector_200" d="M76.8641 128.442C78.2948 128.324 79.7255 128.296 81.1561 128.29C82.5868 128.283 84.0144 128.324 85.445 128.442C84.0144 128.558 82.5837 128.586 81.1561 128.592C79.7286 128.598 78.2948 128.558 76.8641 128.442Z" fill="#DCD1F1"/>
<path id="Vector_201" d="M135.665 182.001H126.002C125.875 181.201 125.805 180.392 125.794 179.582V169.842H137.95V179.707C137.946 180.692 135.665 182.001 135.665 182.001Z" fill="#FF8D5C"/>
<path id="Vector_202" opacity="0.2" d="M137.947 179.704C137.947 180.664 135.803 181.917 135.669 181.995C136.024 181.755 135.965 179.85 135.965 179.85C135.965 179.85 137.913 179.598 137.947 179.704Z" fill="#371B63"/>
<path id="Vector_203" d="M127.581 172.716C129.008 172.597 130.439 172.569 131.869 172.563C133.3 172.557 134.728 172.597 136.158 172.716C134.728 172.834 133.3 172.859 131.869 172.865C130.439 172.872 129.008 172.831 127.581 172.716Z" fill="#DCD1F1"/>
<path id="Vector_204" d="M127.581 174.318C128.703 174.2 129.828 174.175 130.953 174.169C132.078 174.162 133.203 174.2 134.329 174.318C133.207 174.426 132.08 174.476 130.953 174.468C129.828 174.462 128.703 174.437 127.581 174.318Z" fill="#DCD1F1"/>
<path id="Vector_205" d="M127.581 175.919C128.703 175.803 129.828 175.775 130.953 175.769C132.078 175.763 133.203 175.803 134.329 175.919C133.203 176.037 132.078 176.065 130.953 176.072C129.828 176.078 128.703 176.037 127.581 175.919Z" fill="#DCD1F1"/>
<path id="Vector_206" d="M168.524 149.068H158.862C158.734 148.267 158.665 147.458 158.653 146.646V136.909H170.809V146.774C170.809 147.759 168.524 149.068 168.524 149.068Z" fill="#FF8D5C"/>
<path id="Vector_207" opacity="0.2" d="M170.806 146.77C170.806 147.73 168.661 148.983 168.53 149.061C168.886 148.821 168.823 146.917 168.823 146.917C168.823 146.917 170.771 146.661 170.806 146.77Z" fill="#371B63"/>
<path id="Vector_208" d="M160.439 139.783C161.866 139.665 163.297 139.637 164.727 139.63C166.158 139.624 167.589 139.665 169.016 139.783C167.589 139.899 166.158 139.927 164.727 139.933C163.297 139.939 161.866 139.899 160.439 139.783Z" fill="#DCD1F1"/>
<path id="Vector_209" d="M160.439 141.396C161.564 141.278 162.689 141.253 163.811 141.247C164.938 141.239 166.065 141.289 167.187 141.396C166.062 141.515 164.936 141.54 163.811 141.546C162.686 141.552 161.554 141.502 160.439 141.396Z" fill="#DCD1F1"/>
<path id="Vector_210" d="M160.439 142.986C161.564 142.871 162.689 142.843 163.811 142.837C164.933 142.83 166.062 142.868 167.187 142.986C166.062 143.105 164.936 143.133 163.811 143.139C162.686 143.145 161.554 143.105 160.439 142.986Z" fill="#DCD1F1"/>
</g>
</g>
</svg>
