<svg width="24" height="24" viewBox="0 0 24 24" fill="none" xmlns="http://www.w3.org/2000/svg">
<g id="Frame">
<g id="Group">
<path id="Vector" d="M21 12C21.003 13.7868 20.4715 15.5336 19.474 17.016C18.6514 18.2429 17.5391 19.2483 16.2355 19.9432C14.9319 20.638 13.4772 21.001 12 21C10.5228 21.001 9.06808 20.638 7.76451 19.9432C6.46093 19.2483 5.34865 18.2429 4.526 17.016C3.74273 15.8484 3.2439 14.5135 3.06951 13.1184C2.89511 11.7233 3.05 10.3067 3.52175 8.98227C3.9935 7.6578 4.769 6.46228 5.78607 5.49154C6.80314 4.52081 8.0335 3.80186 9.37851 3.39233C10.7235 2.9828 12.1458 2.89408 13.5312 3.13329C14.9167 3.3725 16.2269 3.93299 17.3567 4.76981C18.4865 5.60663 19.4046 6.69651 20.0373 7.95209C20.67 9.20767 20.9997 10.594 21 12Z" stroke="#371B63" stroke-width="1.5"/>
<g id="Vector 3">
<path d="M8.5 20.5L5 17.5L6.5 16L8.5 15H14.5L16.5 15.5L19 17.5L18 19L13.5 21L8.5 20.5Z" fill="#5119B7"/>
<path d="M14 10L12 11L10 10L10.5 7.5L12.5 7L14 8.5V10Z" fill="#5119B7"/>
</g>
<path id="Vector_2" d="M13.2501 9C13.2501 9.69 12.6901 10.25 12.0001 10.25V11.75C12.7294 11.75 13.4289 11.4603 13.9446 10.9445C14.4603 10.4288 14.7501 9.72935 14.7501 9H13.2501ZM12.0001 10.25C11.3101 10.25 10.7501 9.69 10.7501 9H9.25008C9.25008 9.72935 9.53981 10.4288 10.0555 10.9445C10.5713 11.4603 11.2707 11.75 12.0001 11.75V10.25ZM10.7501 9C10.7501 8.31 11.3101 7.75 12.0001 7.75V6.25C11.2707 6.25 10.5713 6.53973 10.0555 7.05546C9.53981 7.57118 9.25008 8.27065 9.25008 9H10.7501ZM12.0001 7.75C12.6901 7.75 13.2501 8.31 13.2501 9H14.7501C14.7501 8.27065 14.4603 7.57118 13.9446 7.05546C13.4289 6.53973 12.7294 6.25 12.0001 6.25V7.75ZM5.16608 17.856L4.44708 17.642L4.33008 18.034L4.59708 18.344L5.16608 17.856ZM18.8341 17.856L19.4041 18.345L19.6701 18.035L19.5531 17.642L18.8341 17.856ZM9.00008 15.75H15.0001V14.25H9.00008V15.75ZM9.00008 14.25C7.97718 14.25 6.98159 14.5802 6.16131 15.1913C5.34102 15.8024 4.73983 16.6619 4.44708 17.642L5.88508 18.07C6.08561 17.3996 6.49701 16.8118 7.05818 16.3939C7.61936 15.9759 8.30037 15.7501 9.00008 15.75V14.25ZM12.0001 20.25C10.8095 20.2514 9.63279 19.9944 8.55116 19.4968C7.46954 18.9993 6.50874 18.273 5.73508 17.368L4.59708 18.344C5.51154 19.413 6.64692 20.272 7.92497 20.8598C9.20301 21.4476 10.5933 21.7513 12.0001 21.75V20.25ZM15.0001 15.75C16.4701 15.75 17.7151 16.728 18.1151 18.07L19.5531 17.642C19.2603 16.6619 18.6591 15.8024 17.8388 15.1913C17.0186 14.5802 16.023 14.25 15.0001 14.25V15.75ZM18.2651 17.368C17.4914 18.273 16.5306 18.9993 15.449 19.4968C14.3674 19.9944 13.1907 20.2514 12.0001 20.25V21.75C13.4068 21.7513 14.7971 21.4476 16.0752 20.8598C17.3532 20.272 18.4896 19.414 19.4041 18.345L18.2651 17.368Z" fill="#371B63"/>
</g>
</g>
</svg>
