<svg width="25" height="24" viewBox="0 0 25 24" fill="none" xmlns="http://www.w3.org/2000/svg">
<g id="Frame">
<path id="Vector 2" d="M3 11L9 4.5L20 15.5L13 22H10L8.5 20.5C8.33333 20.3333 8.1 19.8 8.5 19C8.9 18.2 8.66667 17.3333 8.5 17L6.5 16L4 16.5L2.5 14.5L3 11Z" fill="#5119B7"/>
<path id="Vector" d="M19.5 14.9999L9.50005 4.99994M20.209 7.64994C20.366 7.49294 20.637 7.47694 20.796 7.64994C21.728 8.66794 22.2451 9.42194 22.4151 10.2559C22.5121 10.7359 22.526 11.2239 22.455 11.6989C22.265 12.9839 21.225 14.0239 19.143 16.1049L16.605 18.6429C14.525 20.7239 13.484 21.7649 12.199 21.9559C11.724 22.0259 11.236 22.0119 10.756 21.9149C9.92205 21.7449 9.16805 21.2289 8.15105 20.2959C7.97705 20.1359 7.99305 19.8659 8.15105 19.7079C9.02705 18.8319 8.98505 17.3699 8.05805 16.4419C7.13005 15.5149 5.66805 15.4729 4.79205 16.3489C4.63505 16.5069 4.36305 16.5229 4.20405 16.3489C3.27105 15.3319 2.75505 14.5789 2.58505 13.7439C2.48854 13.2689 2.475 12.7806 2.54505 12.3009C2.73505 11.0159 3.77505 9.97594 5.85705 7.89494L8.39505 5.35694C10.475 3.27594 11.516 2.23494 12.801 2.04394C13.276 1.97394 13.7641 1.98794 14.2441 2.08494C15.0791 2.25494 15.8321 2.77194 16.8491 3.70494C17.0231 3.86394 17.0071 4.13494 16.8491 4.29094C15.9731 5.16794 16.0151 6.62994 16.9431 7.55694C17.8701 8.48494 19.334 8.52694 20.209 7.64994Z" stroke="#371B63" stroke-width="1.5" stroke-linecap="round" stroke-linejoin="round"/>
</g>
</svg>
