<svg width="20" height="20" viewBox="0 0 20 20" fill="none" xmlns="http://www.w3.org/2000/svg">
<g id="start icon">
<path id="Vector" d="M14.375 5.625C14.7188 5.625 15 5.90625 15 6.25V13.75C15 14.0938 14.7188 14.375 14.375 14.375H11.875C11.5312 14.375 11.25 14.0938 11.25 13.75V11.875H8.75V13.75C8.75 14.0938 8.46875 14.375 8.125 14.375H5.625C5.28125 14.375 5 14.0938 5 13.75V6.25C5 5.90625 5.28125 5.625 5.625 5.625H8.125C8.46875 5.625 8.75 5.90625 8.75 6.25V8.125H11.25V6.25C11.25 5.90625 11.5312 5.625 11.875 5.625H14.375ZM2.5 7.5C2.5 7.33424 2.56585 7.17527 2.68306 7.05806C2.80027 6.94085 2.95924 6.875 3.125 6.875H3.75V13.125H3.125C2.95924 13.125 2.80027 13.0592 2.68306 12.9419C2.56585 12.8247 2.5 12.6658 2.5 12.5V11.25C2.16848 11.25 1.85054 11.1183 1.61612 10.8839C1.3817 10.6495 1.25 10.3315 1.25 10C1.25 9.66848 1.3817 9.35054 1.61612 9.11612C1.85054 8.8817 2.16848 8.75 2.5 8.75V7.5ZM17.5 8.75C17.8315 8.75 18.1495 8.8817 18.3839 9.11612C18.6183 9.35054 18.75 9.66848 18.75 10C18.75 10.3315 18.6183 10.6495 18.3839 10.8839C18.1495 11.1183 17.8315 11.25 17.5 11.25V12.5C17.5 12.6658 17.4342 12.8247 17.3169 12.9419C17.1997 13.0592 17.0408 13.125 16.875 13.125H16.25V6.875H16.875C17.0408 6.875 17.1997 6.94085 17.3169 7.05806C17.4342 7.17527 17.5 7.33424 17.5 7.5V8.75Z" fill="#FF8D5C"/>
</g>
</svg>
