<svg width="24" height="24" viewBox="0 0 24 24" fill="none" xmlns="http://www.w3.org/2000/svg">
<g id="Gateway Of India">
<path id="Vector" d="M23.7939 20.6327H22.8421V12.9184H23.4132C23.4893 12.9184 23.5655 12.8816 23.6035 12.8082L23.9842 11.7061C24.0223 11.6327 23.9842 11.5959 23.9462 11.5224C23.9081 11.4857 23.87 11.449 23.7939 11.449H22.8421V9.97959H23.0325C23.1467 9.97959 23.2228 9.90612 23.2228 9.79592V8.69388C23.2228 8.58367 23.1467 8.5102 23.0325 8.5102H17.5123V7.22449C17.5123 7.11429 17.4362 7.04082 17.3219 7.04082H17.1316V4.46939C17.1316 4.13878 16.9032 3.8449 16.5605 3.77143V3.18367C16.5605 3.07347 16.4844 3 16.3702 3C16.256 3 16.1798 3.07347 16.1798 3.18367V3.77143C15.8372 3.8449 15.6088 4.13878 15.6088 4.46939V5.93878H8.37545V4.46939C8.37545 4.13878 8.14702 3.8449 7.80439 3.77143V3.18367C7.80439 3.07347 7.72825 3 7.61404 3C7.49983 3 7.42369 3.07347 7.42369 3.18367V3.77143C7.08106 3.8449 6.85264 4.13878 6.85264 4.46939V7.04082H6.66229C6.54808 7.04082 6.47194 7.11429 6.47194 7.22449V8.5102H0.951755C0.837545 8.5102 0.761404 8.58367 0.761404 8.69388V9.79592C0.761404 9.90612 0.837545 9.97959 0.951755 9.97959H1.14211V11.449H0.190351C0.114211 11.449 0.0761406 11.4857 0.0380704 11.5224C1.44659e-07 11.5592 0 11.6327 0 11.7061L0.380702 12.8082C0.418772 12.8816 0.494913 12.9184 0.571053 12.9184H1.14211V20.6327H0.190351C0.0761404 20.6327 0 20.7061 0 20.8163C0 20.9265 0.0761404 21 0.190351 21H23.7939C23.9081 21 23.9842 20.9265 23.9842 20.8163C23.9842 20.7061 23.9081 20.6327 23.7939 20.6327ZM23.2609 12.551H17.5123V11.8163H23.5274L23.2609 12.551ZM8.75615 7.40816H15.2281V9.61225H8.75615V7.40816ZM17.1316 7.40816V9.61225H15.6088V7.40816H17.1316ZM10.6597 9.97959V11.449H9.89825V9.97959H10.6597ZM11.0404 9.97959H11.8018V11.449H11.0404V9.97959ZM12.1825 9.97959H12.9439V11.449H12.1825V9.97959ZM13.3246 9.97959H14.086V11.449H13.3246V9.97959ZM14.4667 9.97959H15.2281V11.449H14.4667V9.97959ZM15.6088 11.449V9.97959H17.1316V11.449H15.6088ZM9.51755 9.97959V11.449H8.75615V9.97959H9.51755ZM8.37545 11.449H6.85264V9.97959H8.37545V11.449ZM8.37545 11.8163V12.551H6.85264V11.8163H8.37545ZM15.6088 11.8163H17.1316V12.551H15.6088V11.8163ZM22.4614 11.449H17.5123V9.97959H22.4614V11.449ZM22.8421 8.87755V9.61225H17.5123V8.87755H22.8421ZM15.9895 7.04082V5.20408H16.7509V7.04082H15.9895ZM16.3702 4.10204C16.5986 4.10204 16.7509 4.24898 16.7509 4.46939V4.83673H15.9895V4.46939C15.9895 4.24898 16.1418 4.10204 16.3702 4.10204ZM15.6088 6.30612V7.04082H8.37545V6.30612H15.6088ZM7.61404 4.10204C7.84246 4.10204 7.99474 4.24898 7.99474 4.46939V4.83673H7.23334V4.46939C7.23334 4.24898 7.38562 4.10204 7.61404 4.10204ZM7.23334 5.20408H7.99474V7.04082H7.23334V5.20408ZM7.04299 7.40816H8.37545V9.61225H6.85264V7.40816H7.04299ZM1.14211 8.87755H6.47194V9.61225H1.14211V8.87755ZM1.52281 9.97959H6.47194V11.449H1.52281V9.97959ZM0.456843 11.8163H6.47194V12.551H0.723334L0.456843 11.8163ZM1.52281 12.9184H6.47194V20.6327H5.90088V16.4449C5.90088 15.4531 5.32983 14.5714 4.37807 14.1306C4.26386 14.0571 4.11158 14.0571 3.9593 14.1306C3.04562 14.5714 2.47456 15.4531 2.43649 16.4449V20.6327H1.48474V12.9184H1.52281ZM3.23597 20.6327H2.85527V16.5918H5.52018V20.6327H5.13948V18.2449C5.13948 17.2898 4.30193 16.9959 4.26386 16.9592H4.14965C4.11158 16.9592 3.23597 17.2898 3.23597 18.2449V20.6327ZM2.85527 16.2245C2.93141 15.4531 3.38825 14.7551 4.14965 14.3878H4.22579C4.94913 14.7551 5.44404 15.4163 5.52018 16.2245H2.85527ZM3.61667 20.6327V18.2449C3.61667 17.6939 4.03544 17.4367 4.18772 17.3265C4.37807 17.4367 4.75878 17.6939 4.75878 18.2449V20.6327H3.61667ZM6.85264 20.6327V12.9184H8.37545V20.6327H6.85264ZM9.51755 20.6327V16.6286C9.51755 15.5265 10.0886 14.498 11.0784 13.9102L11.9921 13.3224L12.9058 13.8735C13.8956 14.4612 14.4667 15.4898 14.4667 16.6286V20.6694H9.51755V20.6327ZM13.0962 13.5796L12.0683 12.9551C11.9921 12.9184 11.916 12.9184 11.8779 12.9551L10.85 13.5796C9.78404 14.2408 9.13685 15.3796 9.13685 16.6286V20.6327H8.75615V11.8163H15.2281V20.6327H14.8474V16.5918C14.8474 15.3796 14.2002 14.2408 13.0962 13.5796ZM15.6088 20.6327V12.9184H17.1316V20.6327H15.6088ZM18.4641 16.5918H21.129V20.6327H20.7483V18.2449C20.7483 17.2898 19.9107 16.9959 19.8726 16.9592H19.7584C19.7204 16.9592 18.8448 17.2898 18.8448 18.2449V20.6327H18.4641V16.5918ZM18.4641 16.2245C18.5402 15.4531 18.997 14.7551 19.7584 14.3878H19.8346C20.5579 14.7551 21.0528 15.4163 21.129 16.2245H18.4641ZM19.2255 20.6327V18.2449C19.2255 17.6939 19.6442 17.4367 19.7965 17.3265C19.9869 17.4367 20.3676 17.6939 20.3676 18.2449V20.6327H19.2255ZM21.5097 20.6327V16.4449C21.5097 15.4531 20.9386 14.5714 19.9869 14.0939C19.8726 14.0204 19.7204 14.0204 19.5681 14.0939C18.6544 14.5347 18.0453 15.4531 18.0453 16.4449V20.6327H17.4742V12.9184H22.4234V20.6327H21.5097Z" fill="#371B63" fill-opacity="0.6"/>
</g>
</svg>
