<svg width="24" height="24" viewBox="0 0 24 24" fill="none" xmlns="http://www.w3.org/2000/svg">
<g id="Frame">
<path id="Vector" d="M12 2C17.523 2 22 6.477 22 12C22 17.523 17.523 22 12 22C10.404 22.0022 8.83081 21.6208 7.41299 20.888L3.58699 21.955C3.37353 22.0146 3.14808 22.0163 2.93372 21.9601C2.71936 21.9038 2.52381 21.7916 2.3671 21.6349C2.2104 21.4782 2.09817 21.2826 2.04192 21.0683C1.98567 20.8539 1.98742 20.6285 2.04699 20.415L3.11499 16.592C2.38035 15.1729 1.99792 13.5979 1.99999 12C1.99999 6.477 6.47699 2 12 2ZM12 3.5C9.74565 3.5 7.58364 4.39553 5.98959 5.98959C4.39553 7.58365 3.49999 9.74566 3.49999 12C3.49999 13.47 3.87299 14.883 4.57299 16.137L4.72299 16.407L3.61099 20.391L7.59799 19.279L7.86799 19.429C9.00238 20.0597 10.2661 20.4222 11.5623 20.4888C12.8586 20.5554 14.1528 20.3242 15.3458 19.8131C16.5389 19.3019 17.599 18.5244 18.4449 17.54C19.2909 16.5556 19.9002 15.3906 20.2261 14.1343C20.5519 12.8779 20.5858 11.5636 20.325 10.2922C20.0643 9.02073 19.5158 7.82589 18.7216 6.79927C17.9275 5.77264 16.9088 4.94152 15.7437 4.36962C14.5785 3.79773 13.2979 3.50025 12 3.5ZM8.74999 13H13.248C13.438 13.0001 13.6209 13.0722 13.7598 13.202C13.8986 13.3317 13.9831 13.5093 13.996 13.6989C14.009 13.8885 13.9495 14.0759 13.8296 14.2233C13.7096 14.3707 13.5382 14.4671 13.35 14.493L13.248 14.5H8.74999C8.55997 14.4999 8.37705 14.4278 8.2382 14.298C8.09935 14.1683 8.01492 13.9907 8.00197 13.8011C7.98902 13.6115 8.04851 13.4241 8.16843 13.2767C8.28834 13.1293 8.45974 13.0329 8.64799 13.007L8.74999 13ZM8.74999 9.5H15.255C15.4449 9.50031 15.6277 9.57267 15.7663 9.70248C15.905 9.83229 15.9892 10.0099 16.0021 10.1994C16.0149 10.3889 15.9553 10.5762 15.8354 10.7235C15.7155 10.8708 15.5442 10.9671 15.356 10.993L15.255 11H8.74999C8.55997 10.9999 8.37705 10.9278 8.2382 10.798C8.09935 10.6683 8.01492 10.4907 8.00197 10.3011C7.98902 10.1115 8.04851 9.92411 8.16843 9.7767C8.28834 9.62929 8.45974 9.5329 8.64799 9.507L8.74999 9.5Z" fill="#371B63"/>
</g>
</svg>
