<svg width="20" height="20" viewBox="0 0 20 20" fill="none" xmlns="http://www.w3.org/2000/svg">
<g id="start icon">
<path id="Vector" d="M6.08056 10.7638L6.92606 8.97681C7.05318 8.72372 7.23428 8.52218 7.46934 8.37218C7.7038 8.2228 7.95865 8.14811 8.23388 8.14811H9.5525V2.41477C9.5525 2.19996 9.62145 2.02156 9.75937 1.87959C9.89729 1.73761 10.0706 1.66663 10.2793 1.66663H14.0912C14.2219 1.66663 14.3236 1.72527 14.3961 1.84255C14.4681 1.95922 14.4726 2.08268 14.4096 2.21292L14.0705 2.88237C14.0405 2.93607 14.0255 2.99379 14.0255 3.05551C14.0255 3.11724 14.0405 3.17465 14.0705 3.22774L14.4096 3.89811C14.4732 4.02835 14.4687 4.15181 14.3961 4.26848C14.3236 4.38514 14.2219 4.44379 14.0912 4.4444H10.452V8.14811H11.7022C11.9781 8.14811 12.2314 8.2228 12.4623 8.37218C12.6937 8.52156 12.8748 8.72095 13.0055 8.97033L13.878 10.8046L11.7679 12.2472L10.0022 11.3268L8.23568 12.2472L6.08056 10.7638ZM4.79163 18.3333C4.25495 18.3333 3.8451 18.0975 3.56206 17.6259C3.27903 17.1537 3.25864 16.6685 3.5009 16.1703L5.6875 11.5935L8.17182 13.3083L10.0022 12.3768L11.8335 13.3083L14.29 11.6398L16.4991 16.1648C16.7413 16.6629 16.7209 17.149 16.4379 17.6231C16.1549 18.0972 15.7393 18.3339 15.1912 18.3333H4.79163Z" fill="#FF8D5C"/>
</g>
</svg>
