<svg width="21" height="20" viewBox="0 0 21 20" fill="none" xmlns="http://www.w3.org/2000/svg">
<g id="start icon">
<path id="Vector" fill-rule="evenodd" clip-rule="evenodd" d="M18.1292 2.37723C17.7786 2.02462 17.3274 1.78911 16.8376 1.70302C16.3478 1.61692 15.8434 1.68446 15.3935 1.89638C15.094 2.03687 14.8266 2.23741 14.6078 2.48555L8.27696 9.57106C8.88124 9.83718 9.42604 10.2217 9.87914 10.7019C10.3323 11.1821 10.6845 11.7483 10.915 12.3669L18.022 5.92773C18.268 5.70776 18.4666 5.44004 18.6058 5.14088C18.7449 4.84173 18.8217 4.51738 18.8315 4.18759C18.8443 3.85388 18.7885 3.52109 18.6677 3.20974C18.5469 2.89839 18.3637 2.61507 18.1292 2.37723ZM8.58529 16.6661L8.60672 16.6447C6.92342 18.317 4.17584 18.9502 2.36516 17.6052C2.10683 17.4148 2.11278 17.0434 2.31278 16.7911C3.18658 15.6889 3.10562 14.851 3.02943 14.0726C2.95563 13.3132 2.88777 12.6133 3.71633 11.7861C4.02988 11.4369 4.41136 11.1553 4.83745 10.9585C5.26354 10.7616 5.7253 10.6538 6.1945 10.6414C6.66371 10.6291 7.1305 10.7125 7.56636 10.8867C8.00222 11.0608 8.39798 11.322 8.72947 11.6542C9.06096 11.9864 9.3212 12.3828 9.4943 12.819C9.6674 13.2552 9.74972 13.7221 9.73622 14.1912C9.72273 14.6603 9.61371 15.1217 9.41582 15.5472C9.21793 15.9727 8.93533 16.3535 8.58529 16.6661Z" fill="#FF8D5C"/>
</g>
</svg>
