<svg width="24" height="32" viewBox="0 0 24 32" fill="none" xmlns="http://www.w3.org/2000/svg">
<g id="hourglass" filter="url(#filter0_d_395_19051)">
<rect id="Rectangle 1135" x="5.54883" y="0.941406" width="12.9024" height="1.8432" rx="0.9216" fill="#371B63"/>
<rect id="Rectangle 1136" x="5.54883" y="21.2168" width="12.9024" height="1.8432" rx="0.9216" fill="#371B63"/>
<path id="Vector 5" d="M17.0688 5.5498H6.93121L7.39201 8.3146L8.31361 9.697L9.69601 11.0794L12 12.4618L15.2256 10.1578L16.608 8.3146L17.0688 5.5498Z" fill="#FF8D5C"/>
<g id="Vector 7">
<path d="M17.0688 2.7832H6.93121V5.548H17.0688V2.7832Z" fill="white"/>
<path d="M6.93121 17.9896V21.676H17.0688V17.9896L16.608 16.1464L15.2256 13.8424L13.8432 12.46V11.0776L12 12.46L10.1568 11.0776V12.46L8.77441 13.8424L7.39201 16.1464L6.93121 17.9896Z" fill="white"/>
</g>
<path id="Vector 6" d="M12 18.4502L7.85278 21.215H16.608L12 18.4502Z" fill="#FF8D5C"/>
<path id="Vector" d="M17.8752 20.9862H17.5586V18.6939C17.56 17.6297 17.3267 16.5783 16.8753 15.6146C16.4239 14.6509 15.7655 13.7986 14.9471 13.1184L14.5616 12.7971C14.4448 12.6998 14.3508 12.5781 14.2863 12.4404C14.2218 12.3028 14.1884 12.1526 14.1884 12.0006C14.1884 11.8486 14.2218 11.6984 14.2863 11.5608C14.3508 11.4231 14.4448 11.3014 14.5616 11.2041L14.9471 10.8828C15.0735 10.7775 15.1876 10.6615 15.3057 10.549L15.3359 10.5288C15.3572 10.5083 15.3755 10.4851 15.3966 10.4644C15.5079 10.3545 15.6135 10.2407 15.7169 10.1246C15.78 10.0539 15.8421 9.98288 15.9022 9.90973C16.0031 9.78722 16.0995 9.66189 16.1915 9.53376C16.2386 9.4679 16.2839 9.4012 16.3288 9.33383C16.4249 9.19026 16.5169 9.04497 16.6023 8.89525C16.6317 8.84336 16.6586 8.79033 16.6868 8.73776C16.7764 8.571 16.8623 8.40297 16.9385 8.22979C16.9537 8.19536 16.9661 8.15979 16.9808 8.12512C17.0611 7.93451 17.1373 7.74248 17.2011 7.54529L17.2034 7.53745C17.3209 7.16774 17.4086 6.78918 17.4654 6.40543C17.4789 6.31873 17.4983 6.23321 17.5086 6.14593C17.5193 6.05307 17.5208 5.95861 17.528 5.865C17.5391 5.72367 17.5546 5.58286 17.5573 5.44061C17.5574 5.43192 17.5532 5.42411 17.5527 5.4155C17.5532 5.37918 17.5587 5.34366 17.5587 5.30729V3.01501H17.8752C18.1502 3.01501 18.4139 2.90577 18.6083 2.71133C18.8028 2.5169 18.912 2.25318 18.912 1.97821C18.912 1.70323 18.8028 1.43952 18.6083 1.24508C18.4139 1.05064 18.1502 0.941406 17.8752 0.941406L6.12481 0.941406C5.84984 0.941406 5.58612 1.05064 5.39168 1.24508C5.19725 1.43952 5.08801 1.70323 5.08801 1.97821C5.08801 2.25318 5.19725 2.5169 5.39168 2.71133C5.58612 2.90577 5.84984 3.01501 6.12481 3.01501H6.44138V5.30731C6.44138 5.34367 6.44678 5.37919 6.44733 5.41552C6.44683 5.42413 6.44261 5.43193 6.44274 5.44063C6.44535 5.5817 6.46088 5.72143 6.47184 5.8617C6.4791 5.95666 6.48066 6.05247 6.49154 6.14672C6.49939 6.21312 6.51466 6.27818 6.52441 6.34432C6.75468 7.95008 7.51923 9.43143 8.69469 10.5494L8.7114 10.5669L8.71912 10.5721C8.82957 10.6764 8.93529 10.7848 9.05297 10.8828L9.4384 11.2041C9.55522 11.3014 9.64922 11.4231 9.71373 11.5608C9.77824 11.6984 9.81168 11.8486 9.81168 12.0006C9.81168 12.1526 9.77824 12.3028 9.71373 12.4404C9.64922 12.5781 9.55522 12.6998 9.4384 12.7971L9.05297 13.1184C8.23454 13.7986 7.57617 14.6509 7.12477 15.6146C6.67337 16.5783 6.44003 17.6297 6.44138 18.6939V20.9862H6.12481C5.84984 20.9862 5.58612 21.0954 5.39168 21.2899C5.19725 21.4843 5.08801 21.748 5.08801 22.023C5.08801 22.298 5.19725 22.5617 5.39168 22.7561C5.58612 22.9506 5.84984 23.0598 6.12481 23.0598H17.8752C18.1502 23.0598 18.4139 22.9506 18.6083 22.7561C18.8028 22.5617 18.912 22.298 18.912 22.023C18.912 21.748 18.8028 21.4843 18.6083 21.2899C18.4139 21.0954 18.1502 20.9862 17.8752 20.9862ZM6.12481 2.32381C6.03315 2.32381 5.94525 2.2874 5.88044 2.22258C5.81562 2.15777 5.77921 2.06987 5.77921 1.97821C5.77921 1.88655 5.81562 1.79864 5.88044 1.73383C5.94525 1.66902 6.03315 1.63261 6.12481 1.63261H17.8752C17.9669 1.63261 18.0548 1.66902 18.1196 1.73383C18.1844 1.79864 18.2208 1.88655 18.2208 1.97821C18.2208 2.06987 18.1844 2.15777 18.1196 2.22258C18.0548 2.2874 17.9669 2.32381 17.8752 2.32381H6.12481ZM7.13258 3.01501H16.8674V5.08861H7.13258V3.01501ZM9.17041 10.0488C9.14096 10.0207 9.10982 9.99413 9.08097 9.96557C8.99297 9.87879 8.90881 9.78855 8.82616 9.697C8.76132 9.62516 8.69826 9.55202 8.63699 9.47759C8.55681 9.3803 8.47782 9.28205 8.40357 9.18034C8.35648 9.11606 8.31316 9.0496 8.26853 8.98379C8.18854 8.86541 8.10796 8.74725 8.03586 8.62393C8.02932 8.61279 8.02401 8.60098 8.01755 8.5898C7.82363 8.25431 7.6595 7.90247 7.52704 7.53832L7.52666 7.53739C7.47658 7.39923 7.43621 7.25769 7.39537 7.11636C7.37441 7.04304 7.35182 6.97027 7.3334 6.89614C7.3034 6.77697 7.27923 6.6563 7.25594 6.53544C7.23561 6.42812 7.21717 6.32037 7.20211 6.21174C7.18793 6.11108 7.17515 6.01025 7.16566 5.90887C7.16178 5.86612 7.16165 5.82266 7.15858 5.77981H16.8414C16.8384 5.82296 16.8383 5.86663 16.8343 5.90962C16.825 6.00956 16.8124 6.10891 16.7985 6.20809C16.7829 6.32103 16.7639 6.43308 16.7426 6.54458C16.7207 6.65786 16.6981 6.77088 16.6704 6.88258C16.647 6.97776 16.6186 7.07124 16.5909 7.16507C16.5568 7.28083 16.5244 7.39723 16.4842 7.51067C16.4357 7.64683 16.3794 7.77966 16.3222 7.91208C16.2806 8.00903 16.238 8.10509 16.1919 8.19972C16.1108 8.36492 16.0256 8.52827 15.9307 8.68627C15.9089 8.72285 15.8846 8.75757 15.8621 8.79368C15.7586 8.95859 15.6493 9.12009 15.531 9.27572C15.5128 9.29968 15.4942 9.32317 15.4757 9.34691C15.3512 9.50604 15.2189 9.65955 15.0787 9.80743C15.0544 9.83295 15.031 9.85941 15.0063 9.88446C14.9582 9.9337 14.9041 9.97787 14.8544 10.0258L12 11.9307L9.17041 10.0488ZM7.13258 18.6939C7.13139 17.7311 7.34255 16.7798 7.75102 15.9079C8.1595 15.036 8.75524 14.265 9.4958 13.6496L9.88122 13.3283C10.1161 13.1441 10.2957 12.8988 10.4004 12.6193C10.5051 12.3398 10.5308 12.0368 10.4746 11.7436L11.6544 12.531V13.7286C11.6544 13.8203 11.6908 13.9082 11.7556 13.973C11.8204 14.0378 11.9084 14.0742 12 14.0742C12.0917 14.0742 12.1796 14.0378 12.2444 13.973C12.3092 13.9082 12.3456 13.8203 12.3456 13.7286V12.5308L13.5258 11.7406C13.4693 12.0342 13.4948 12.3377 13.5994 12.6177C13.704 12.8978 13.8837 13.1437 14.1188 13.3284L14.5042 13.6497C15.2448 14.265 15.8405 15.0361 16.249 15.9079C16.6575 16.7798 16.8686 17.7311 16.8674 18.6939V20.9862H16.7948L13.2164 18.4637C12.8601 18.2135 12.4354 18.0792 12 18.0792C11.5647 18.0792 11.1399 18.2135 10.7837 18.4637L7.20523 20.9862H7.13258V18.6939ZM15.5951 20.9862H8.40496L11.1819 19.0287C11.4215 18.8604 11.7072 18.77 12 18.77C12.2928 18.77 12.5785 18.8604 12.8181 19.0287L15.5951 20.9862ZM17.8752 22.3686H6.12481C6.03315 22.3686 5.94525 22.3322 5.88044 22.2674C5.81562 22.2026 5.77921 22.1147 5.77921 22.023C5.77921 21.9313 5.81562 21.8434 5.88044 21.7786C5.94525 21.7138 6.03315 21.6774 6.12481 21.6774H17.8752C17.9669 21.6774 18.0548 21.7138 18.1196 21.7786C18.1844 21.8434 18.2208 21.9313 18.2208 22.023C18.2208 22.1147 18.1844 22.2026 18.1196 22.2674C18.0548 22.3322 17.9669 22.3686 17.8752 22.3686ZM12.3456 16.1478C12.414 16.1478 12.4808 16.1275 12.5376 16.0896C12.5945 16.0516 12.6387 15.9976 12.6649 15.9345C12.6911 15.8713 12.6979 15.8018 12.6846 15.7348C12.6712 15.6677 12.6383 15.6062 12.59 15.5578C12.5417 15.5095 12.4801 15.4766 12.413 15.4632C12.346 15.4499 12.2765 15.4568 12.2134 15.4829C12.1502 15.5091 12.0962 15.5534 12.0583 15.6102C12.0203 15.667 12 15.7339 12 15.8022C12 15.8939 12.0364 15.9818 12.1012 16.0466C12.166 16.1114 12.254 16.1478 12.3456 16.1478ZM11.6544 17.5302C11.7228 17.5302 11.7896 17.5099 11.8464 17.472C11.9033 17.434 11.9475 17.38 11.9737 17.3169C11.9999 17.2537 12.0067 17.1842 11.9934 17.1172C11.98 17.0501 11.9471 16.9886 11.8988 16.9402C11.8505 16.8919 11.7889 16.859 11.7218 16.8456C11.6548 16.8323 11.5853 16.8392 11.5222 16.8653C11.459 16.8915 11.405 16.9358 11.3671 16.9926C11.3291 17.0494 11.3088 17.1163 11.3088 17.1846C11.3088 17.2763 11.3452 17.3642 11.41 17.429C11.4748 17.4938 11.5628 17.5302 11.6544 17.5302Z" fill="#371B63"/>
</g>
<defs>
<filter id="filter0_d_395_19051" x="-4" y="0" width="32" height="32" filterUnits="userSpaceOnUse" color-interpolation-filters="sRGB">
<feFlood flood-opacity="0" result="BackgroundImageFix"/>
<feColorMatrix in="SourceAlpha" type="matrix" values="0 0 0 0 0 0 0 0 0 0 0 0 0 0 0 0 0 0 127 0" result="hardAlpha"/>
<feOffset dy="4"/>
<feGaussianBlur stdDeviation="2"/>
<feComposite in2="hardAlpha" operator="out"/>
<feColorMatrix type="matrix" values="0 0 0 0 1 0 0 0 0 1 0 0 0 0 1 0 0 0 0.3 0"/>
<feBlend mode="normal" in2="BackgroundImageFix" result="effect1_dropShadow_395_19051"/>
<feBlend mode="normal" in="SourceGraphic" in2="effect1_dropShadow_395_19051" result="shape"/>
</filter>
</defs>
</svg>
