<svg width="21" height="20" viewBox="0 0 21 20" fill="none" xmlns="http://www.w3.org/2000/svg">
<g id="start icon" clip-path="url(#clip0_1384_104)">
<path id="Vector" d="M20.5 5.42957C18.9047 5.34183 17.322 5.75632 15.9746 6.61472C15.6488 6.24379 15.3139 5.87287 14.9609 5.52004L14.6984 5.27577L14.8252 5.16721C15.2678 4.78742 15.5832 4.28107 15.7288 3.71647C15.8745 3.15187 15.8434 2.55619 15.6397 2.00982C15.3455 1.39298 14.8784 0.874819 14.2952 0.518283C13.7119 0.161747 13.0377 -0.0178197 12.3543 0.00139555V1.81079C12.6763 1.80631 12.9937 1.88778 13.2737 2.04682C13.5537 2.20585 13.7862 2.43667 13.9472 2.71548C14.1011 3.07736 13.9472 3.47543 13.5218 3.90063L13.3137 4.09062C12.3696 3.30431 11.3332 2.63594 10.2273 2.10029C7.9375 1.06894 6.76089 1.54842 6.18164 2.10029C6.00514 2.27715 5.86385 2.48591 5.76531 2.71548L5.60239 3.19497L4.29908 7.12135C5.33087 9.69068 7.82889 14.2594 13.2594 16.2316L17.7848 14.7298C17.9374 14.6731 18.0718 14.5762 18.1739 14.4494L18.364 14.2865C19.6583 12.9838 18.8256 10.4778 17.0879 8.04414C18.1197 7.4422 19.3078 7.16184 20.5 7.23896V5.42957ZM17.0697 13.0019H17.0154C16.3909 13.3366 13.8024 12.4862 10.87 9.55498C10.5622 9.24738 10.2726 8.94883 10.0101 8.65028C9.91962 8.55077 9.83817 8.4422 9.74766 8.33364L9.26796 7.75463L9.01454 7.4018C8.88783 7.22991 8.76112 7.05802 8.65251 6.89517C8.5439 6.73233 8.5077 6.65995 8.43529 6.54234C8.36288 6.42473 8.23617 6.23475 8.15472 6.08095C8.07326 5.92715 8.03706 5.86382 7.98275 5.74621C7.92845 5.6286 7.82889 5.4929 7.77458 5.36624C7.72028 5.23958 7.69313 5.15816 7.64787 5.05864C7.60262 4.95913 7.54831 4.81438 7.51211 4.69676C7.47591 4.57915 7.46686 4.52487 7.44875 4.4344C7.43065 4.34393 7.39445 4.21728 7.37635 4.12681C7.372 4.0545 7.372 3.98199 7.37635 3.90968C7.36745 3.83153 7.36745 3.75261 7.37635 3.67446L7.47591 3.394C7.62977 3.23116 8.29953 3.18592 9.49424 3.72874C10.2927 4.11214 11.0481 4.57916 11.7479 5.12197C11.3664 5.29027 10.9596 5.39421 10.5441 5.42957V7.23896C11.5057 7.18443 12.4386 6.89222 13.2594 6.38855L13.7029 6.80471C14.1011 7.19372 14.4541 7.58274 14.7799 7.95367C14.2342 8.88382 14.0174 9.97044 14.1644 11.0387L15.9746 10.6858C15.9134 10.3448 15.9134 9.99556 15.9746 9.6545C17.1422 11.4367 17.3594 12.7214 17.0697 13.0019ZM3.66552 9.04835L1.6472 15.1098C1.50152 15.5548 1.46327 16.028 1.53558 16.4906C1.60788 16.9533 1.78869 17.3922 2.06321 17.7716C2.33773 18.151 2.69819 18.4601 3.1151 18.6736C3.53201 18.8871 3.99355 18.9989 4.46199 19C4.76993 18.997 5.07544 18.9451 5.36707 18.8462L11.2682 16.883C7.93762 15.1828 5.2642 12.4278 3.66552 9.04835Z" fill="#FF8D5C"/>
</g>
<defs>
<clipPath id="clip0_1384_104">
<rect width="20" height="20" fill="white" transform="translate(0.5)"/>
</clipPath>
</defs>
</svg>
