<svg width="24" height="24" viewBox="0 0 24 24" fill="none" xmlns="http://www.w3.org/2000/svg">
<g id="India Gate">
<path id="Vector" d="M10.6154 1C10.5695 1 10.5255 1.01811 10.493 1.05034C10.4605 1.08257 10.4423 1.12629 10.4423 1.17188V1.70469C10.1848 1.74181 9.94619 1.86059 9.76217 2.04334C9.57815 2.22608 9.45853 2.46299 9.42115 2.71875H8.53846C8.49256 2.71875 8.44854 2.73686 8.41608 2.76909C8.38362 2.80132 8.36538 2.84504 8.36538 2.89062V3.40625H6.46154C6.41564 3.40625 6.37161 3.42436 6.33915 3.45659C6.3067 3.48882 6.28846 3.53254 6.28846 3.57812V6.5H5.42308C5.37717 6.5 5.33315 6.51811 5.30069 6.55034C5.26823 6.58257 5.25 6.62629 5.25 6.67188V7.53125H4.73077C4.68487 7.53125 4.64084 7.54936 4.60839 7.58159C4.57593 7.61382 4.55769 7.65754 4.55769 7.70312V8.90625H3.69231C3.66282 8.90641 3.63385 8.91402 3.60814 8.92837C3.58243 8.94271 3.56082 8.96332 3.54534 8.98825C3.52987 9.01317 3.52103 9.0416 3.51967 9.07086C3.51832 9.10011 3.52448 9.12923 3.53758 9.15547L4.55769 11.1815V14.75H4.38462C4.33871 14.75 4.29469 14.7681 4.26223 14.8003C4.22977 14.8326 4.21154 14.8763 4.21154 14.9219C4.21154 14.9675 4.22977 15.0112 4.26223 15.0434C4.29469 15.0756 4.33871 15.0938 4.38462 15.0938H4.55769V17.1562H4.06062C4.0294 17.1565 3.99883 17.1651 3.97212 17.1811C3.9454 17.1971 3.92353 17.22 3.90879 17.2474C3.89406 17.2747 3.88701 17.3055 3.88839 17.3364C3.88976 17.3674 3.89952 17.3974 3.91662 17.4233L4.55769 18.3783V21.625H4.38462C4.33871 21.625 4.29469 21.6431 4.26223 21.6753C4.22977 21.7076 4.21154 21.7513 4.21154 21.7969C4.21154 21.8425 4.22977 21.8862 4.26223 21.9184C4.29469 21.9506 4.33871 21.9688 4.38462 21.9688H4.55769V22.6562H3.17308C3.12717 22.6562 3.08315 22.6744 3.05069 22.7066C3.01823 22.7388 3 22.7825 3 22.8281C3 22.8737 3.01823 22.9174 3.05069 22.9497C3.08315 22.9819 3.12717 23 3.17308 23H20.8269C20.8728 23 20.9168 22.9819 20.9493 22.9497C20.9818 22.9174 21 22.8737 21 22.8281C21 22.7825 20.9818 22.7388 20.9493 22.7066C20.9168 22.6744 20.8728 22.6562 20.8269 22.6562H19.4423V21.9688H19.6154C19.6613 21.9688 19.7053 21.9506 19.7378 21.9184C19.7702 21.8862 19.7885 21.8425 19.7885 21.7969C19.7885 21.7513 19.7702 21.7076 19.7378 21.6753C19.7053 21.6431 19.6613 21.625 19.6154 21.625H19.4423V18.4116L20.1055 17.4233C20.1229 17.3975 20.1328 17.3674 20.1343 17.3363C20.1358 17.3053 20.1288 17.2744 20.114 17.247C20.0993 17.2196 20.0773 17.1967 20.0504 17.1807C20.0236 17.1647 19.9928 17.1563 19.9615 17.1562H19.4423V15.0938H19.6154C19.6613 15.0938 19.7053 15.0756 19.7378 15.0434C19.7702 15.0112 19.7885 14.9675 19.7885 14.9219C19.7885 14.8763 19.7702 14.8326 19.7378 14.8003C19.7053 14.7681 19.6613 14.75 19.6154 14.75H19.4423V11.1808L20.4624 9.15478C20.4757 9.1286 20.4819 9.09949 20.4806 9.07022C20.4793 9.04095 20.4705 9.0125 20.455 8.98758C20.4395 8.96266 20.4178 8.9421 20.392 8.92786C20.3662 8.91363 20.3372 8.90619 20.3077 8.90625H19.4423V7.70312C19.4423 7.65754 19.4241 7.61382 19.3916 7.58159C19.3592 7.54936 19.3151 7.53125 19.2692 7.53125H18.75V6.67188C18.75 6.62629 18.7318 6.58257 18.6993 6.55034C18.6668 6.51811 18.6228 6.5 18.5769 6.5H17.7115V3.57812C17.7115 3.53254 17.6933 3.48882 17.6608 3.45659C17.6284 3.42436 17.5844 3.40625 17.5385 3.40625H15.6346V2.89062C15.6346 2.84504 15.6164 2.80132 15.5839 2.76909C15.5515 2.73686 15.5074 2.71875 15.4615 2.71875H14.5788C14.5754 2.69572 14.5764 2.67097 14.5719 2.64828C14.5208 2.40668 14.3961 2.18655 14.2146 2.0178C14.0332 1.84905 13.8038 1.73985 13.5577 1.70503V1.17188C13.5577 1.12629 13.5395 1.08257 13.507 1.05034C13.4745 1.01811 13.4305 1 13.3846 1H10.6154ZM10.7885 1.34375H13.2115V1.6875H10.7885V1.34375ZM10.6154 2.03125H13.3846C13.8024 2.03125 14.1531 2.32687 14.233 2.71875H9.76765C9.84796 2.32687 10.1976 2.03125 10.6154 2.03125ZM8.71154 3.0625H15.2885V3.40625H8.71154V3.0625ZM6.63462 3.75H17.3654V6.5H6.63462V3.75ZM9.92308 4.4375C9.87717 4.4375 9.83315 4.45561 9.80069 4.48784C9.76823 4.52007 9.75 4.56379 9.75 4.60938V5.64062C9.75 5.68621 9.76823 5.72993 9.80069 5.76216C9.83315 5.79439 9.87717 5.8125 9.92308 5.8125H10.4423V5.98438C10.4423 6.02996 10.4605 6.07368 10.493 6.10591C10.5255 6.13814 10.5695 6.15625 10.6154 6.15625H13.3846C13.4305 6.15625 13.4745 6.13814 13.507 6.10591C13.5395 6.07368 13.5577 6.02996 13.5577 5.98438V5.8125H14.0769C14.1228 5.8125 14.1668 5.79439 14.1993 5.76216C14.2318 5.72993 14.25 5.68621 14.25 5.64062V4.60938C14.25 4.56379 14.2318 4.52007 14.1993 4.48784C14.1668 4.45561 14.1228 4.4375 14.0769 4.4375H9.92308ZM8.53846 4.44472C8.309 4.4449 8.089 4.5355 7.92674 4.69663C7.76449 4.85775 7.67326 5.07623 7.67308 5.30409C7.67308 5.77847 8.06112 6.16347 8.53846 6.16347C9.01581 6.16347 9.40385 5.77847 9.40385 5.30409C9.40385 4.83006 9.01581 4.44472 8.53846 4.44472ZM15.4615 4.44472C15.2321 4.4449 15.0121 4.5355 14.8498 4.69663C14.6876 4.85775 14.5963 5.07623 14.5962 5.30409C14.5962 5.77847 14.9842 6.16347 15.4615 6.16347C15.9389 6.16347 16.3269 5.77847 16.3269 5.30409C16.3269 4.83006 15.9389 4.44472 15.4615 4.44472ZM10.0962 4.78125H13.9038V5.46875H13.3846C13.3387 5.46875 13.2947 5.48686 13.2622 5.51909C13.2298 5.55132 13.2115 5.59504 13.2115 5.64062V5.8125H10.7885V5.64062C10.7885 5.59504 10.7702 5.55132 10.7378 5.51909C10.7053 5.48686 10.6613 5.46875 10.6154 5.46875H10.0962V4.78125ZM8.53846 4.78847C8.82473 4.78847 9.05769 5.01981 9.05769 5.30409C9.05769 5.58838 8.82473 5.81972 8.53846 5.81972C8.25219 5.81972 8.01923 5.58838 8.01923 5.30409C8.01923 5.01981 8.25219 4.78847 8.53846 4.78847ZM15.4615 4.78847C15.7478 4.78847 15.9808 5.01981 15.9808 5.30409C15.9808 5.58838 15.7478 5.81972 15.4615 5.81972C15.1753 5.81972 14.9423 5.58838 14.9423 5.30409C14.9423 5.01981 15.1753 4.78847 15.4615 4.78847ZM5.59615 6.84375H18.4038V7.53125H5.59615V6.84375ZM4.90385 7.875H19.0962V8.90625H4.90385V7.875ZM3.97235 9.25H20.0273L19.8542 9.59375H4.14577L3.97235 9.25ZM4.3185 9.9375H4.55769V10.4129L4.3185 9.9375ZM4.90385 9.9375H5.59615V10.9688H4.90385V9.9375ZM5.94231 9.9375H6.63462V10.9688H5.94231V9.9375ZM6.98077 9.9375H7.67308V10.9688H6.98077V9.9375ZM8.01923 9.9375H8.71154V10.9688H8.01923V9.9375ZM9.05769 9.9375H9.75V10.9688H9.05769V9.9375ZM10.0962 9.9375H10.7885V10.9688H10.0962V9.9375ZM11.1346 9.9375H11.8269V10.9688H11.1346V9.9375ZM12.1731 9.9375H12.8654V10.9688H12.1731V9.9375ZM13.2115 9.9375H13.9038V10.9688H13.2115V9.9375ZM14.25 9.9375H14.9423V10.9688H14.25V9.9375ZM15.2885 9.9375H15.9808V10.9688H15.2885V9.9375ZM16.3269 9.9375H17.0192V10.9688H16.3269V9.9375ZM17.3654 9.9375H18.0577V10.9688H17.3654V9.9375ZM18.4038 9.9375H19.0962V10.9688H18.4038V9.9375ZM19.4423 9.9375H19.6815L19.4423 10.4129V9.9375ZM4.90385 11.3125H8.71154V14.75H8.36538V13.5469C8.36538 13.5013 8.34715 13.4576 8.31469 13.4253C8.28223 13.3931 8.23821 13.375 8.19231 13.375H5.42308C5.37717 13.375 5.33315 13.3931 5.30069 13.4253C5.26823 13.4576 5.25 13.5013 5.25 13.5469V14.75H4.90385V11.3125ZM9.05769 11.3125H14.9423V12H12.3462C12.3003 12 12.2562 12.0181 12.2238 12.0503C12.1913 12.0826 12.1731 12.1263 12.1731 12.1719V13.375H11.8269V12.1719C11.8269 12.1263 11.8087 12.0826 11.7762 12.0503C11.7438 12.0181 11.6997 12 11.6538 12H9.05769V11.3125ZM15.2885 11.3125H19.0962V14.75H18.75V13.5469C18.75 13.5013 18.7318 13.4576 18.6993 13.4253C18.6668 13.3931 18.6228 13.375 18.5769 13.375H15.8077C15.7618 13.375 15.7178 13.3931 15.6853 13.4253C15.6529 13.4576 15.6346 13.5013 15.6346 13.5469V14.75H15.2885V11.3125ZM6.80769 11.6562C6.42588 11.6562 6.11538 11.9646 6.11538 12.3438C6.11538 12.7229 6.42588 13.0312 6.80769 13.0312C7.1895 13.0312 7.5 12.7229 7.5 12.3438C7.5 11.9646 7.1895 11.6562 6.80769 11.6562ZM17.1923 11.6562C16.8105 11.6562 16.5 11.9646 16.5 12.3438C16.5 12.7229 16.8105 13.0312 17.1923 13.0312C17.5741 13.0312 17.8846 12.7229 17.8846 12.3438C17.8846 11.9646 17.5741 11.6562 17.1923 11.6562ZM6.80769 12C6.8995 12 6.98754 12.0362 7.05246 12.1007C7.11738 12.1651 7.15385 12.2526 7.15385 12.3438C7.15385 12.4349 7.11738 12.5224 7.05246 12.5868C6.98754 12.6513 6.8995 12.6875 6.80769 12.6875C6.71589 12.6875 6.62784 12.6513 6.56292 12.5868C6.49801 12.5224 6.46154 12.4349 6.46154 12.3438C6.46154 12.2526 6.49801 12.1651 6.56292 12.1007C6.62784 12.0362 6.71589 12 6.80769 12ZM17.1923 12C17.2841 12 17.3722 12.0362 17.4371 12.1007C17.502 12.1651 17.5385 12.2526 17.5385 12.3438C17.5385 12.4349 17.502 12.5224 17.4371 12.5868C17.3722 12.6513 17.2841 12.6875 17.1923 12.6875C17.1005 12.6875 17.0125 12.6513 16.9475 12.5868C16.8826 12.5224 16.8462 12.4349 16.8462 12.3438C16.8462 12.2526 16.8826 12.1651 16.9475 12.1007C17.0125 12.0362 17.1005 12 17.1923 12ZM9.05769 12.3438H11.4808V12.4008C10.353 12.6298 9.49038 13.583 9.41181 14.75H9.05769V12.3438ZM12.5192 12.3438H14.9423V14.75H14.5882C14.51 13.583 13.6467 12.6298 12.5192 12.4008V12.3438ZM11.4808 12.7514V13.1117C11.1129 13.2159 10.7853 13.4281 10.541 13.7205C10.2966 14.0128 10.147 14.3717 10.1117 14.75H9.75796C9.79546 14.2788 9.98241 13.8315 10.292 13.4724C10.6015 13.1133 11.0177 12.8609 11.4808 12.7514ZM12.5192 12.7514C12.9823 12.8609 13.3985 13.1133 13.708 13.4724C14.0176 13.8315 14.2045 14.2788 14.242 14.75H13.8883C13.8531 14.3717 13.7035 14.0128 13.4592 13.7204C13.2148 13.428 12.8872 13.2158 12.5192 13.1117V12.7514ZM11.4808 13.4716V13.5469C11.4808 13.5925 11.499 13.6362 11.5315 13.6684C11.5639 13.7006 11.6079 13.7188 11.6538 13.7188H12.3462C12.3921 13.7188 12.4361 13.7006 12.4685 13.6684C12.501 13.6362 12.5192 13.5925 12.5192 13.5469V13.4716C12.7933 13.568 13.0346 13.739 13.2156 13.9651C13.3966 14.1911 13.5099 14.4631 13.5428 14.75H13.3846C13.3387 14.75 13.2947 14.7681 13.2622 14.8003C13.2298 14.8326 13.2115 14.8763 13.2115 14.9219C13.2115 14.9675 13.2298 15.0112 13.2622 15.0434C13.2947 15.0756 13.3387 15.0938 13.3846 15.0938H13.5577V17.1562H13.3846C13.3387 17.1562 13.2947 17.1744 13.2622 17.2066C13.2298 17.2388 13.2115 17.2825 13.2115 17.3281C13.2115 17.3737 13.2298 17.4174 13.2622 17.4497C13.2947 17.4819 13.3387 17.5 13.3846 17.5H13.5577V22.6562H10.4423V17.5H10.6154C10.6613 17.5 10.7053 17.4819 10.7378 17.4497C10.7702 17.4174 10.7885 17.3737 10.7885 17.3281C10.7885 17.2825 10.7702 17.2388 10.7378 17.2066C10.7053 17.1744 10.6613 17.1562 10.6154 17.1562H10.4423V15.0938H10.6154C10.6613 15.0938 10.7053 15.0756 10.7378 15.0434C10.7702 15.0112 10.7885 14.9675 10.7885 14.9219C10.7885 14.8763 10.7702 14.8326 10.7378 14.8003C10.7053 14.7681 10.6613 14.75 10.6154 14.75H10.4572C10.4901 14.4631 10.6035 14.1912 10.7845 13.9651C10.9655 13.7391 11.2067 13.5681 11.4808 13.4716ZM5.59615 13.7188H6.11538V14.0625H5.59615V13.7188ZM6.46154 13.7188H7.15385V14.0625H6.46154V13.7188ZM7.5 13.7188H8.01923V14.0625H7.5V13.7188ZM15.9808 13.7188H16.5V14.0625H15.9808V13.7188ZM16.8462 13.7188H17.5385V14.0625H16.8462V13.7188ZM17.8846 13.7188H18.4038V14.0625H17.8846V13.7188ZM5.59615 14.4062H8.01923V14.75H5.59615V14.4062ZM15.9808 14.4062H18.4038V14.75H15.9808V14.4062ZM4.90385 15.0938H5.25V15.4375H4.90385V15.0938ZM5.59615 15.0938H8.01923V15.4375H5.59615V15.0938ZM8.36538 15.0938H8.71154V15.4375H8.36538V15.0938ZM9.05769 15.0938H10.0962V17.1562H9.05769V15.0938ZM13.9038 15.0938H14.9423V17.1562H13.9038V15.0938ZM15.2885 15.0938H15.6346V15.4375H15.2885V15.0938ZM15.9808 15.0938H18.4038V15.4375H15.9808V15.0938ZM18.75 15.0938H19.0962V15.4375H18.75V15.0938ZM4.90385 15.7812H5.25V17.1562H4.90385V15.7812ZM5.59615 15.7812H5.94231V16.6406C5.94231 16.6862 5.96054 16.7299 5.993 16.7622C6.02546 16.7944 6.06948 16.8125 6.11538 16.8125H7.5C7.5459 16.8125 7.58993 16.7944 7.62238 16.7622C7.65484 16.7299 7.67308 16.6862 7.67308 16.6406V15.7812H8.01923V17.1562H5.59615V15.7812ZM6.28846 15.7812H7.32692V16.4688H6.28846V15.7812ZM8.36538 15.7812H8.71154V17.1562H8.36538V15.7812ZM15.2885 15.7812H15.6346V17.1562H15.2885V15.7812ZM15.9808 15.7812H16.3269V16.6406C16.3269 16.6862 16.3452 16.7299 16.3776 16.7622C16.4101 16.7944 16.4541 16.8125 16.5 16.8125H17.8846C17.9305 16.8125 17.9745 16.7944 18.007 16.7622C18.0395 16.7299 18.0577 16.6862 18.0577 16.6406V15.7812H18.4038V17.1562H15.9808V15.7812ZM16.6731 15.7812H17.7115V16.4688H16.6731V15.7812ZM18.75 15.7812H19.0962V17.1562H18.75V15.7812ZM4.38392 17.5H9.25362L8.79185 18.1875H4.845L4.38392 17.5ZM9.66969 17.5H10.0962V22.6562H9.05769V18.4116L9.66969 17.5ZM13.9038 17.5H14.3528L14.9423 18.3783V22.6562H13.9038V17.5ZM14.7685 17.5H19.6382L19.1765 18.1875H15.2296L14.7685 17.5ZM4.90385 18.5312H5.25V21.625H4.90385V18.5312ZM5.59615 18.5312H8.01923V21.625H5.59615V18.5312ZM8.36538 18.5312H8.71154V21.625H8.36538V18.5312ZM15.2885 18.5312H15.6346V21.625H15.2885V18.5312ZM15.9808 18.5312H18.4038V21.625H15.9808V18.5312ZM18.75 18.5312H19.0962V21.625H18.75V18.5312ZM4.90385 21.9688H5.25V22.6562H4.90385V21.9688ZM5.59615 21.9688H5.94231V22.6562H5.59615V21.9688ZM6.28846 21.9688H7.32692V22.6562H6.28846V21.9688ZM7.67308 21.9688H8.01923V22.6562H7.67308V21.9688ZM8.36538 21.9688H8.71154V22.6562H8.36538V21.9688ZM15.2885 21.9688H15.6346V22.6562H15.2885V21.9688ZM15.9808 21.9688H16.3269V22.6562H15.9808V21.9688ZM16.6731 21.9688H17.7115V22.6562H16.6731V21.9688ZM18.0577 21.9688H18.4038V22.6562H18.0577V21.9688ZM18.75 21.9688H19.0962V22.6562H18.75V21.9688Z" fill="#371B63" fill-opacity="0.6"/>
</g>
</svg>
