<svg width="20" height="20" viewBox="0 0 20 20" fill="none" xmlns="http://www.w3.org/2000/svg">
<g id="Group">
<path id="Vector" d="M10 5.01746C10.0001 4.68683 9.93507 4.35942 9.8086 4.05393C9.68212 3.74844 9.49669 3.47087 9.26289 3.23708C9.0291 3.00329 8.75153 2.81785 8.44604 2.69137C8.14056 2.5649 7.81314 2.49985 7.48251 2.49996H5.01751C4.68421 2.49568 4.35337 2.55762 4.0442 2.6822C3.73503 2.80678 3.45368 2.99152 3.21647 3.2257C2.97926 3.45988 2.79091 3.73883 2.66236 4.04637C2.53382 4.35392 2.46762 4.68393 2.46762 5.01726C2.46762 5.35058 2.53382 5.68059 2.66236 5.98814C2.79091 6.29568 2.97926 6.57463 3.21647 6.80881C3.45368 7.04299 3.73503 7.22773 4.0442 7.35231C4.35337 7.47689 4.68421 7.53884 5.01751 7.53455H5.50001V8.74996C5.50001 8.74996 10 8.14246 10 5.01746ZM7.70834 11.6666C7.70834 12.5875 6.96251 13.3333 6.04167 13.3333C5.12084 13.3333 4.37501 12.5875 4.37501 11.6666C4.37501 10.7458 5.12084 9.99996 6.04167 9.99996C6.96251 9.99996 7.70834 10.7458 7.70834 11.6666ZM6.04167 14.1666C4.85959 14.1666 2.50001 14.7625 2.50001 15.9445V17.5H9.58334V15.9445C9.58334 14.762 7.22376 14.1666 6.04167 14.1666ZM13.9583 13.3333C14.8792 13.3333 15.625 12.5875 15.625 11.6666C15.625 10.7458 14.8792 9.99996 13.9583 9.99996C13.0375 9.99996 12.2917 10.7458 12.2917 11.6666C12.2917 12.5875 13.0375 13.3333 13.9583 13.3333ZM13.9583 14.1666C12.7763 14.1666 10.4167 14.7625 10.4167 15.9445V17.5H17.5V15.9445C17.5 14.762 15.1404 14.1666 13.9583 14.1666ZM13.3508 2.91663C13.0202 2.91652 12.6928 2.98156 12.3873 3.10804C12.0818 3.23452 11.8042 3.41995 11.5705 3.65375C11.3367 3.88754 11.1512 4.16511 11.0248 4.4706C10.8983 4.77608 10.8332 5.1035 10.8333 5.43413C10.8333 8.55913 14.8333 9.16663 14.8333 9.16663V7.95121H14.9825C15.3158 7.9555 15.6466 7.89356 15.9558 7.76898C16.265 7.64439 16.5463 7.45965 16.7835 7.22548C17.0208 6.9913 17.2091 6.71235 17.3377 6.4048C17.4662 6.09726 17.5324 5.76725 17.5324 5.43392C17.5324 5.10059 17.4662 4.77058 17.3377 4.46304C17.2091 4.1555 17.0208 3.87654 16.7835 3.64237C16.5463 3.40819 16.265 3.22345 15.9558 3.09887C15.6466 2.97429 15.3158 2.91234 14.9825 2.91663H13.3508Z" fill="#FF8D5C"/>
</g>
</svg>
