<svg width="21" height="20" viewBox="0 0 21 20" fill="none" xmlns="http://www.w3.org/2000/svg">
<g id="start icon" clip-path="url(#clip0_1384_1312)">
<path id="Vector" d="M20.5 0.269231V15.0769C20.5 15.5176 20.3524 15.9099 20.0573 16.2536C19.7622 16.5974 19.3889 16.864 18.9375 17.0535C18.4861 17.243 18.0369 17.384 17.5898 17.4766C17.1428 17.5691 16.724 17.6154 16.3333 17.6154C15.9427 17.6154 15.5239 17.5691 15.0768 17.4766C14.6298 17.384 14.1806 17.243 13.7292 17.0535C13.2778 16.864 12.9045 16.5974 12.6094 16.2536C12.3142 15.9099 12.1667 15.5176 12.1667 15.0769C12.1667 14.6362 12.3142 14.244 12.6094 13.9002C12.9045 13.5565 13.2778 13.2899 13.7292 13.1004C14.1806 12.9109 14.6298 12.7698 15.0768 12.6773C15.5239 12.5847 15.9427 12.5385 16.3333 12.5385C17.2448 12.5385 18.0781 12.7103 18.8333 13.0541V5.95433L8.83333 9.08774V18.4615C8.83333 18.9022 8.68576 19.2945 8.39062 19.6382C8.09549 19.982 7.72222 20.2486 7.27083 20.4381C6.81944 20.6276 6.37023 20.7686 5.92318 20.8612C5.47613 20.9537 5.05729 21 4.66667 21C4.27604 21 3.8572 20.9537 3.41016 20.8612C2.96311 20.7686 2.51389 20.6276 2.0625 20.4381C1.61111 20.2486 1.23785 19.982 0.942708 19.6382C0.647569 19.2945 0.5 18.9022 0.5 18.4615C0.5 18.0208 0.647569 17.6286 0.942708 17.2849C1.23785 16.9411 1.61111 16.6745 2.0625 16.485C2.51389 16.2955 2.96311 16.1544 3.41016 16.0619C3.8572 15.9694 4.27604 15.9231 4.66667 15.9231C5.57812 15.9231 6.41146 16.095 7.16667 16.4387V3.65385C7.16667 3.38061 7.24913 3.13161 7.41406 2.90685C7.57899 2.68209 7.79167 2.52564 8.05208 2.4375L18.8854 -0.947115C18.9896 -0.982372 19.1111 -1 19.25 -1C19.5972 -1 19.8924 -0.876603 20.1354 -0.629808C20.3785 -0.383013 20.5 -0.0833333 20.5 0.269231Z" fill="#FF8D5C"/>
</g>
<defs>
<clipPath id="clip0_1384_1312">
<rect width="20" height="20" fill="white" transform="translate(0.5)"/>
</clipPath>
</defs>
</svg>
