<svg width="24" height="24" viewBox="0 0 24 24" fill="none" xmlns="http://www.w3.org/2000/svg">
<g id="Frame">
<path id="Vector" d="M18.0021 21.65H18.002C17.2692 21.65 16.6407 21.3911 16.125 20.8761C15.6092 20.3624 15.35 19.734 15.35 19C15.35 18.8582 15.3621 18.7126 15.3859 18.5634L15.386 18.5628C15.4036 18.4551 15.4274 18.3514 15.4574 18.2517L7.92406 13.8136C7.68569 14.0611 7.41295 14.2581 7.10628 14.4035C6.76101 14.5673 6.39174 14.6493 6.00027 14.65L6 14.65C5.26609 14.65 4.63778 14.3919 4.12393 13.8781C3.60886 13.3637 3.35 12.7354 3.35 12.002C3.35 11.2686 3.60887 10.64 4.12393 10.1249C4.63893 9.60994 5.26712 9.3507 5.99986 9.35H6C6.39228 9.35 6.76178 9.43202 7.10662 9.59663C7.41254 9.74267 7.68507 9.93959 7.92382 10.1865L15.458 5.74756C15.4277 5.64813 15.404 5.54455 15.3869 5.43694C15.3624 5.28766 15.35 5.14197 15.35 5C15.35 4.26603 15.6085 3.63769 16.123 3.12386C16.6367 2.60881 17.2647 2.35 17.998 2.35C18.7313 2.35 19.3599 2.60849 19.875 3.12286C20.3901 3.63722 20.6493 4.26512 20.65 4.99786C20.6507 5.73075 20.3918 6.35938 19.8761 6.87507C19.3629 7.39088 18.7346 7.65 18 7.65C17.6077 7.65 17.2382 7.56798 16.8934 7.40337C16.5875 7.25733 16.3149 7.06041 16.0762 6.81349L8.54266 11.2527C8.57254 11.3516 8.59597 11.4544 8.61307 11.561M18.0021 21.65L8.465 11.585M18.0021 21.65C18.7361 21.6493 19.3644 21.3901 19.8782 20.8749C20.3919 20.3598 20.65 19.7313 20.65 18.998C20.65 18.2646 20.3911 17.6366 19.8759 17.1228C19.3621 16.6084 18.7339 16.35 18 16.35C17.6083 16.35 17.2389 16.432 16.8935 16.5966C16.587 16.7426 16.3144 16.9395 16.0761 17.1865M18.0021 21.65L16.0761 17.1865M8.61307 11.561C8.61308 11.5611 8.6131 11.5612 8.61311 11.5612L8.465 11.585M8.61307 11.561C8.61305 11.5609 8.61303 11.5608 8.61302 11.5607L8.465 11.585M8.61307 11.561C8.63757 11.7102 8.65 11.8553 8.65 11.996C8.65 12.1368 8.63756 12.2832 8.61309 12.4349C8.59551 12.5439 8.57174 12.6484 8.54163 12.7483M8.465 11.585C8.48833 11.727 8.5 11.864 8.5 11.996C8.5 12.128 8.48833 12.2663 8.465 12.411C8.44167 12.5557 8.407 12.6907 8.361 12.816M8.54163 12.7483L8.43713 12.6868L8.361 12.816M8.54163 12.7483L16.0761 17.1865M8.54163 12.7483C8.52941 12.7889 8.51614 12.8287 8.50182 12.8677L8.361 12.816M8.361 12.816L16.0761 17.1865M6 13.35L5.99976 13.35C5.62814 13.3506 5.31331 13.2198 5.04719 12.9531C4.78087 12.6861 4.65 12.3711 4.65 12C4.65 11.629 4.78079 11.3141 5.04695 11.0472C5.31314 10.7816 5.62824 10.6506 6.00024 10.65C6.37186 10.6494 6.68669 10.7802 6.95281 11.0469C7.21913 11.3139 7.35 11.6289 7.35 12C7.35 12.371 7.21919 12.686 6.95298 12.9529C6.68607 13.2192 6.37105 13.35 6 13.35ZM18.9529 5.95298C18.686 6.21919 18.371 6.35 18 6.35C17.629 6.35 17.314 6.21919 17.0471 5.95298C16.7808 5.68607 16.65 5.37105 16.65 5C16.65 4.62897 16.7808 4.31395 17.0471 4.04704C17.314 3.78082 17.629 3.65 18 3.65C18.371 3.65 18.686 3.78082 18.9529 4.04704C19.2192 4.31395 19.35 4.62897 19.35 5C19.35 5.37105 19.2192 5.68607 18.9529 5.95298ZM18.9529 19.9529C18.686 20.2192 18.371 20.35 18 20.35C17.629 20.35 17.314 20.2192 17.0471 19.9529C16.7808 19.686 16.65 19.371 16.65 19C16.65 18.629 16.7808 18.314 17.0471 18.0471C17.314 17.7808 17.629 17.65 18 17.65C18.371 17.65 18.686 17.7808 18.9529 18.0471C19.2192 18.314 19.35 18.629 19.35 19C19.35 19.371 19.2192 19.686 18.9529 19.9529Z" fill="#371B63" stroke="#371B63" stroke-width="0.3"/>
</g>
</svg>
