<svg width="21" height="20" viewBox="0 0 21 20" fill="none" xmlns="http://www.w3.org/2000/svg">
<g id="start icon">
<path id="Vector" d="M9.48908 3.6219C9.45678 3.58959 9.41779 3.56475 9.37485 3.54914C9.33191 3.53353 9.28607 3.52752 9.24056 3.53154C9.19505 3.53557 9.15098 3.54952 9.11144 3.57242C9.07191 3.59532 9.03787 3.62661 9.01174 3.66409C8.3525 4.60498 7.99923 5.72617 8.00002 6.87502C8.00053 7.12114 8.01697 7.36697 8.04924 7.61096L2.61877 15.0172C2.44102 15.2576 2.35576 15.554 2.37857 15.8521C2.40138 16.1502 2.53074 16.4301 2.74299 16.6406L3.8594 17.7571C4.06995 17.9693 4.34988 18.0987 4.64798 18.1215C4.94608 18.1443 5.24243 18.059 5.48283 17.8813L12.8899 12.4492C13.1336 12.482 13.3791 12.499 13.625 12.5C14.7734 12.5011 15.8943 12.1484 16.8352 11.4899C16.8727 11.4637 16.9039 11.4297 16.9268 11.3902C16.9497 11.3506 16.9637 11.3066 16.9677 11.261C16.9717 11.2155 16.9657 11.1697 16.9501 11.1268C16.9345 11.0838 16.9097 11.0448 16.8774 11.0125L9.48908 3.6219ZM9.69299 11.6906L8.44299 12.9406C8.38553 13.0011 8.31655 13.0495 8.2401 13.0829C8.16365 13.1163 8.0813 13.134 7.99788 13.1351C7.91446 13.1362 7.83168 13.1205 7.7544 13.0891C7.67713 13.0577 7.60693 13.0111 7.54794 12.9521C7.48895 12.8931 7.44237 12.8229 7.41093 12.7456C7.3795 12.6684 7.36386 12.5856 7.36493 12.5022C7.366 12.4187 7.38375 12.3364 7.41715 12.2599C7.45055 12.1835 7.49892 12.1145 7.5594 12.0571L8.8094 10.8071C8.92756 10.6948 9.0849 10.6331 9.24788 10.6352C9.41086 10.6373 9.56657 10.703 9.68182 10.8182C9.79707 10.9335 9.86274 11.0892 9.86483 11.2522C9.86691 11.4151 9.80525 11.5725 9.69299 11.6906ZM18.2399 10.0844C18.2137 10.122 18.1797 10.1534 18.1401 10.1764C18.1005 10.1994 18.0563 10.2134 18.0107 10.2174C17.9651 10.2214 17.9191 10.2154 17.8761 10.1997C17.8331 10.184 17.794 10.159 17.7617 10.1266L10.3735 2.73831C10.341 2.706 10.3161 2.66696 10.3004 2.62394C10.2847 2.58092 10.2786 2.53498 10.2826 2.48937C10.2867 2.44376 10.3007 2.39958 10.3236 2.35998C10.3466 2.32037 10.378 2.2863 10.4156 2.26018C11.4978 1.50506 12.8112 1.15486 14.1257 1.27094C15.4402 1.38702 16.6719 1.96198 17.605 2.89508C18.5381 3.82817 19.113 5.05987 19.2291 6.37434C19.3452 7.68882 18.995 9.00222 18.2399 10.0844Z" fill="#FF8D5C"/>
</g>
</svg>
