<svg width="21" height="20" viewBox="0 0 21 20" fill="none" xmlns="http://www.w3.org/2000/svg">
<g id="start icon">
<path id="Vector" fill-rule="evenodd" clip-rule="evenodd" d="M2.19 9.37496C2.34765 7.27891 3.29158 5.31986 4.83264 3.89038C6.37369 2.4609 8.39803 1.66659 10.5 1.66663C9.80834 1.66663 9.19167 1.96996 8.68333 2.43413C8.17917 2.89579 7.75334 3.54079 7.40834 4.30246C7.06167 5.06913 6.79167 5.96579 6.60917 6.93829C6.4604 7.7428 6.37182 8.55728 6.34417 9.37496H2.19ZM2.19 10.625H6.34417C6.37417 11.46 6.46334 12.2816 6.60917 13.0616C6.7925 14.0341 7.06167 14.9308 7.40834 15.6975C7.75334 16.4591 8.17917 17.1041 8.68333 17.5658C9.19167 18.03 9.80834 18.3333 10.5 18.3333C6.10834 18.3333 2.50917 14.9358 2.19 10.625Z" fill="#FF8D5C"/>
<path id="Vector_2" d="M10.5 2.82922C10.2708 2.82922 9.97499 2.92672 9.63083 3.24172C9.28416 3.55922 8.93666 4.05672 8.62999 4.73422C8.32499 5.40756 8.07749 6.22006 7.90749 7.12839C7.77416 7.84339 7.69083 8.60172 7.66083 9.37506H13.3392C13.312 8.62114 13.2296 7.87024 13.0925 7.12839C12.9225 6.22006 12.6758 5.40756 12.37 4.73422C12.0633 4.05672 11.7167 3.55922 11.37 3.24256C11.025 2.92672 10.7292 2.82922 10.5 2.82922ZM7.90749 12.8717C8.07749 13.7801 8.32499 14.5926 8.62999 15.2659C8.93666 15.9434 9.28416 16.4409 9.62999 16.7576C9.97499 17.0734 10.2717 17.1709 10.5 17.1709C10.7292 17.1709 11.025 17.0734 11.3692 16.7584C11.7167 16.4409 12.0633 15.9434 12.37 15.2659C12.675 14.5926 12.9225 13.7801 13.0925 12.8717C13.2267 12.1567 13.31 11.3984 13.3392 10.6251H7.66083C7.68999 11.3984 7.77333 12.1567 7.90749 12.8717Z" fill="#FF8D5C"/>
<path id="Vector_3" d="M10.5 1.66663C11.1925 1.66663 11.8083 1.96996 12.3167 2.43413C12.8208 2.89579 13.2475 3.54079 13.5917 4.30246C13.9392 5.06913 14.2083 5.96579 14.3908 6.93829C14.5367 7.71829 14.6258 8.53996 14.6558 9.37496H18.81C18.6525 7.27884 17.7087 5.31968 16.1676 3.89016C14.6265 2.46064 12.602 1.6664 10.5 1.66663ZM14.3908 13.0616C14.2083 14.0341 13.9392 14.9308 13.5917 15.6975C13.2475 16.4591 12.8208 17.1041 12.3167 17.5658C11.8083 18.03 11.1925 18.3333 10.5 18.3333C14.8917 18.3333 18.4908 14.9358 18.81 10.625H14.6558C14.6282 11.4426 14.5396 12.2571 14.3908 13.0616Z" fill="#FF8D5C"/>
</g>
</svg>
