<svg width="24" height="24" viewBox="0 0 24 24" fill="none" xmlns="http://www.w3.org/2000/svg">
<g id="Vidhana Soudha">
<path id="Vector" d="M20.9259 17.3333C21.3333 17.3333 21.6667 17.0333 21.6667 16.6667C21.6667 16.3 21.3333 16 20.9259 16C20.5185 16 20.1852 16.3 20.1852 16.6667C20.1852 17.0333 20.5185 17.3333 20.9259 17.3333ZM20.9259 16.3333C21.1481 16.3333 21.2963 16.4667 21.2963 16.6667C21.2963 16.8667 21.1481 17 20.9259 17C20.7037 17 20.5556 16.8667 20.5556 16.6667C20.5556 16.4667 20.7037 16.3333 20.9259 16.3333ZM3.14815 17.3333C3.55556 17.3333 3.88889 17.0333 3.88889 16.6667C3.88889 16.3 3.55556 16 3.14815 16C2.74074 16 2.40741 16.3 2.40741 16.6667C2.40741 17.0333 2.74074 17.3333 3.14815 17.3333ZM3.14815 16.3333C3.37037 16.3333 3.51852 16.4667 3.51852 16.6667C3.51852 16.8667 3.37037 17 3.14815 17C2.92593 17 2.77778 16.8667 2.77778 16.6667C2.77778 16.4667 2.92593 16.3333 3.14815 16.3333ZM3.66667 21H2.55556C2.44444 21 2.37037 21.0667 2.37037 21.1667V21.8333C2.37037 21.9333 2.44444 22 2.55556 22H3.66667C3.77778 22 3.85185 21.9333 3.85185 21.8333V21.1667C3.85185 21.1 3.77778 21 3.66667 21ZM3.48148 21.6667H2.74074V21.3333H3.48148V21.6667ZM4.03704 18H2.18519C2.07407 18 2 18.0667 2 18.1667C2 18.2667 2.07407 18.3333 2.18519 18.3333H2.37037V20.1667C2.37037 20.2667 2.44444 20.3333 2.55556 20.3333H3.66667C3.77778 20.3333 3.85185 20.2667 3.85185 20.1667V18.3333H4.03704C4.14815 18.3333 4.22222 18.2667 4.22222 18.1667C4.22222 18.0667 4.14815 18 4.03704 18ZM3.48148 20H2.74074V18.3333H3.48148V20ZM21.4444 21H20.3333C20.2222 21 20.1481 21.0667 20.1481 21.1667V21.8333C20.1481 21.9333 20.2222 22 20.3333 22H21.4444C21.5556 22 21.6296 21.9333 21.6296 21.8333V21.1667C21.6296 21.1 21.5556 21 21.4444 21ZM21.2593 21.6667H20.5185V21.3333H21.2593V21.6667ZM21.8148 18H19.963C19.8519 18 19.7778 18.0667 19.7778 18.1667C19.7778 18.2667 19.8519 18.3333 19.963 18.3333H20.1481V20.1667C20.1481 20.2667 20.2222 20.3333 20.3333 20.3333H21.4444C21.5556 20.3333 21.6296 20.2667 21.6296 20.1667V18.3333H21.8148C21.9259 18.3333 22 18.2667 22 18.1667C22 18.0667 21.9259 18 21.8148 18ZM21.2593 20H20.5185V18.3333H21.2593V20Z" fill="#371B63" fill-opacity="0.6"/>
<path id="Vector_2" d="M22.822 22.6024H22.3236V11.5783C22.3236 11.4699 22.2524 11.3976 22.1456 11.3976H21.9676V10.241L22.0032 10.2048C22.2168 9.95181 22.288 9.59036 22.2524 9.26506C22.2168 8.93976 22.0388 8.61446 21.7896 8.43373L20.2233 7.16867V7.06024C20.3301 6.98795 20.4369 6.87952 20.4369 6.73494C20.4369 6.51807 20.2589 6.33735 20.0453 6.33735C19.8317 6.33735 19.6537 6.51807 19.6537 6.73494C19.6537 6.87952 19.7249 7.0241 19.8673 7.06024V7.16867L18.301 8.43373C18.0518 8.6506 17.8738 8.93976 17.8382 9.26506C17.8026 9.59036 17.8738 9.91566 18.0874 10.1687V11.0723H17.9094C17.8026 11.0723 17.7314 11.1446 17.7314 11.253V11.4337H15.5243L14.8835 10.4578V9.15663L15.5955 8.07229C15.6311 8 15.6311 7.92771 15.5955 7.89157C15.5599 7.81928 15.4887 7.78313 15.4531 7.78313H14.8835V7.3494L14.9191 7.31325C15.2395 6.87952 15.3463 6.33735 15.2395 5.83133C15.1327 5.3253 14.8123 4.89157 14.3495 4.63855L13.1392 3.98795V3.26506C13.1392 3.15663 13.068 3.08434 12.9612 3.08434H12.7832V2.72289C12.7832 2.3253 12.4628 2 12.0712 2C11.6796 2 11.3592 2.3253 11.3592 2.72289V3.08434H11.1812C11.0744 3.08434 11.0032 3.15663 11.0032 3.26506V4.0241L9.75728 4.63855C9.2589 4.92771 8.93851 5.43374 8.83172 5.93976C8.76052 6.40964 8.86731 6.84337 9.1521 7.24096V7.78313H8.65372C8.58253 7.78313 8.51133 7.81928 8.51133 7.89157C8.47573 7.96385 8.47573 8.03614 8.51133 8.07229L9.1521 9.04819V10.4217L8.54693 11.3614H6.30421V11.1807C6.30421 11.0723 6.23301 11 6.12621 11H5.94822V10.2048L5.98382 10.1687C6.19741 9.91566 6.26861 9.55422 6.23301 9.22892C6.19741 8.90361 6.01942 8.57831 5.77023 8.39759L4.20388 7.13253V7.0241C4.31068 6.95181 4.41748 6.84337 4.41748 6.69879C4.41748 6.48193 4.23948 6.30121 4.02589 6.30121C3.8123 6.30121 3.6343 6.48193 3.6343 6.69879C3.6343 6.84337 3.7055 6.98795 3.8479 7.0241V7.13253L2.28155 8.43373C2.03236 8.6506 1.85437 8.93976 1.81877 9.26506C1.78317 9.59036 1.85437 9.91566 2.06796 10.1687V11.4337H1.88997C1.78317 11.4337 1.71197 11.506 1.71197 11.6145V22.6386H1.17799C1.0712 22.6386 1 22.7108 1 22.8193C1 22.9277 1.0712 23 1.17799 23H22.822C22.9288 23 23 22.9277 23 22.8193C23 22.7108 22.9288 22.6024 22.822 22.6024ZM18.1586 9.3012C18.1942 9.04819 18.301 8.83132 18.479 8.68675L20.0097 7.45783L21.5405 8.68675C21.7184 8.83132 21.8608 9.04819 21.8608 9.3012C21.8964 9.55422 21.8252 9.77108 21.6828 9.95181H18.301C18.1942 9.77108 18.1586 9.55422 18.1586 9.3012ZM18.4078 10.3133H21.6117V11.3976H19.1197V11.2169C19.1197 11.1084 19.0485 11.0361 18.9417 11.0361H18.4078V10.3133ZM17.6958 17.9036H16.8414V16.4578H17.6958V17.9036ZM16.8414 18.2651H17.6958V19.3494H16.8414V18.2651ZM17.6958 16.0964H16.8414V15.012H17.6958V16.0964ZM17.8738 14.6506H4.55987V13.9277H19.5113V14.6506H17.8738ZM14.5275 16.4578H15.3819V17.9036H14.5275V16.4578ZM15.3819 16.0964H14.5275V15.012H15.3819V16.0964ZM14.5275 18.2651H15.3819V19.3494H14.5275V18.2651ZM10.932 16.4578H13.068V17.9036H10.932V16.4578ZM13.068 16.0964H10.932V15.012H13.068V16.0964ZM10.932 18.2651H13.068V19.3494H10.932V18.2651ZM8.61812 16.4578H9.43689V17.9036H8.61812V16.4578ZM9.47249 16.0964H8.65372V15.012H9.47249V16.0964ZM8.61812 18.2651H9.43689V19.3494H8.61812V18.2651ZM7.15858 16.0964H6.33981V15.012H7.15858V16.0964ZM6.33981 16.4578H7.15858V17.9036H6.33981V16.4578ZM6.33981 18.2651H7.15858V19.3494H6.33981V18.2651ZM19.6537 13.5663H4.09709L4.80906 12.8434H19.2621L19.9741 13.5663H19.6537ZM5.23625 11.3976H5.94822V12.4819H5.23625V11.3976ZM9.50809 9.22892H10.2557L10.2201 10.3133H9.50809V9.22892ZM11.3236 10.3494H10.5761L10.6117 9.26506H13.4951L13.4595 10.3494H12.6764L12.0712 9.98795C12 9.95181 11.9644 9.95181 11.8932 9.98795L11.3236 10.3494ZM13.4239 11.3976V10.8554C13.4239 10.7831 13.3883 10.747 13.3172 10.7108L13.2816 10.6747H13.5307L13.9935 11.3976H13.4239ZM13.8511 9.22892H14.4919V10.3133H13.8155L13.8511 9.22892ZM10.5405 8.86747L10.0777 8.14458H14.0291L13.5663 8.86747H10.5405ZM10.7184 10.6747L10.6828 10.7108C10.6117 10.747 10.5761 10.8193 10.5761 10.8554V11.3976H10.0421L10.5049 10.6747H10.7184ZM10.932 10.9639L12 10.3494L13.068 10.9639V12.4819H10.932V10.9639ZM18.0518 11.3976H18.7638V12.4819H18.0518V11.3976ZM17.6958 12.4819H13.4239V11.759H17.6958V12.4819ZM14.4563 11.3976L13.9935 10.6747H14.5987L15.0971 11.3976H14.4563ZM14.5987 8.86747H13.9935L14.4563 8.14458H15.0971L14.5987 8.86747ZM11.644 2.72289C11.644 2.54217 11.822 2.36145 12 2.36145C12.178 2.36145 12.356 2.50602 12.356 2.72289V3.08434H11.644V2.72289ZM11.288 3.44578H12.712V3.80723H11.288V3.44578ZM9.1877 6.01205C9.2589 5.57831 9.54369 5.18072 9.93528 4.96386L11.3948 4.16867H12.6408L14.1003 4.96386C14.4563 5.18072 14.7411 5.50602 14.8123 5.90361C14.8835 6.3012 14.8123 6.69879 14.5631 7.06024H12.6764V6.66265C12.6764 6.33735 12.534 6.08434 12.2492 5.90361L12.0356 5.75904C11.9644 5.72289 11.8932 5.72289 11.8576 5.75904L11.644 5.90361C11.3948 6.08434 11.2524 6.33735 11.2524 6.66265V7.06024H9.40129C9.2233 6.73494 9.11651 6.37349 9.1877 6.01205ZM12.356 7.06024H11.644V6.66265C11.644 6.48193 11.7508 6.30121 11.8932 6.19277L12 6.12048L12.1068 6.19277C12.2492 6.30121 12.356 6.44578 12.356 6.66265V7.06024ZM9.50809 7.42169H14.4919V7.78313H9.50809V7.42169ZM9.3301 8.14458H9.61489L10.0777 8.86747H9.43689L8.97411 8.14458H9.3301ZM9.43689 10.6747H10.0777L9.61489 11.3976H8.97411L9.43689 10.6747ZM6.33981 11.759H10.5761V12.4819H6.33981V11.759ZM2.13916 9.3012C2.17476 9.04819 2.28155 8.83132 2.45955 8.68675L3.99029 7.45783L5.52104 8.68675C5.69903 8.83132 5.84142 9.04819 5.84142 9.3012C5.87702 9.55422 5.80583 9.77108 5.66343 9.95181H2.28155C2.17476 9.77108 2.13916 9.55422 2.13916 9.3012ZM2.38835 10.3133H5.59223V11.0361H5.05825C4.95146 11.0361 4.88026 11.1084 4.88026 11.2169V11.3976H2.38835V10.3133ZM4.70227 22.6024H2.03236V11.759H4.88026V12.4819H4.73786C4.70227 12.4819 4.63107 12.5181 4.59547 12.5181L3.52751 13.6024C3.49191 13.6386 3.45631 13.747 3.49191 13.7831C3.52751 13.8193 3.59871 13.8916 3.6699 13.8916H4.16828V14.7952C4.16828 14.9036 4.23948 14.9759 4.34628 14.9759H4.88026V22.5663H4.70227V22.6024ZM5.23625 22.6024V15.012H5.98382V22.6024H5.23625ZM6.33981 22.6024V19.7108H7.15858V22.6024H6.33981ZM7.51456 22.6024V15.012H8.26214V22.6024H7.51456ZM8.61812 22.6024V19.7108H9.43689V22.6024H8.61812ZM9.82848 22.6024V15.012H10.5761V22.6024H9.82848ZM10.932 22.6024V19.7108H13.068V22.6024H10.932ZM13.4239 22.6024V15.012H14.1715V22.6024H13.4239ZM14.5275 22.6024V19.7108H15.3819V22.6024H14.5275ZM15.7379 22.6024V15.012H16.4854V22.6024H15.7379ZM16.8414 22.6024V19.7108H17.6958V22.6024H16.8414ZM18.4078 22.6024H18.0518V15.012H18.7994V22.6024H18.4078ZM19.1553 22.6024V15.012H19.6537C19.7605 15.012 19.8317 14.9398 19.8317 14.8313V13.9277H20.4013C20.4725 13.9277 20.5437 13.8916 20.5793 13.8193C20.6149 13.747 20.5793 13.6747 20.5437 13.6386L19.4757 12.5542C19.4401 12.5181 19.4045 12.5181 19.3333 12.5181H19.1197V11.7952H21.9676V22.6386H19.1553V22.6024Z" fill="#371B63" fill-opacity="0.6"/>
</g>
</svg>
